<svg width="2300" height="300" viewBox="0 0 2300 300" fill="none" xmlns="http://www.w3.org/2000/svg">
<rect width="2300" height="300" fill="white"/>
<g clip-path="url(#clip0_26_154)">
<path d="M2064.59 276.795C2130.31 212.685 2222.63 150.356 2273.33 127.918C2265.51 122.219 2253.3 114.027 2239.53 105.123C2174.12 129.699 2097.76 184.192 2029.53 245.808C2041.11 255.781 2053.32 266.11 2064.59 276.795Z" fill="#E31837"/>
<path d="M2034.54 102.63C2024.84 97.2876 2014.2 92.3013 2006.06 88.0273C1981.34 101.918 1949.1 122.931 1908.42 156.055C1917.18 161.397 1926.57 167.808 1936.59 174.219C1967.88 147.863 1999.49 122.931 2034.54 102.63Z" fill="#012169"/>
<path d="M2093.07 72.0001C2081.17 64.5206 2039.86 47.0686 2011.38 39.5891C2002.93 43.1508 1991.04 48.4932 1982.9 52.411C1993.23 55.6165 2031.73 67.3699 2064.59 86.2466C2073.04 81.6165 2084.93 75.9179 2093.07 72.0001Z" fill="#E31837"/>
<path d="M1953.17 67.3699C1916.56 86.6028 1878.06 112.959 1857.09 128.274C1864.6 132.192 1872.11 135.397 1882.44 141.096C1928.76 105.479 1965.06 83.7534 1979.46 76.6301C1969.13 72.3562 1959.43 69.5069 1953.17 67.3699Z" fill="#012169"/>
<path d="M2120.61 60.9589C2129.06 57.7534 2138.76 54.9041 2147.21 52.0548C2122.8 40.3014 2092.13 27.8356 2064.59 20C2060.21 21.4247 2047.06 25.3425 2037.98 28.5479C2047.37 31.7534 2078.36 39.9452 2120.61 60.9589ZM1966.32 194.877C1976.33 201.644 1986.97 210.904 1997.3 218.74C2065.84 158.192 2133.44 111.534 2207.61 85.1781C2197.28 79.1233 2188.21 73.7808 2176.63 67.3699C2132.19 80.1918 2056.14 114.74 1966.32 194.877Z" fill="#E31837"/>
<path d="M20 258.274H70.0741C95.4241 258.274 107.317 243.315 107.317 222.301C107.317 205.206 99.4926 193.808 83.2185 190.247C97.6148 186.329 104.187 176.356 104.187 161.753C104.187 143.233 92.2944 128.274 66.9444 128.274H20.313V258.274H20ZM63.5019 203.069C72.8907 203.069 79.463 208.411 79.463 219.096C79.463 230.493 73.2037 235.123 63.5019 235.123H47.2278V202.712H63.5019V203.069ZM60.3722 151.069C69.7611 151.069 76.3333 155.699 76.3333 166.384C76.3333 177.069 70.0741 181.699 60.3722 181.699H47.2278V151.069H60.3722ZM208.404 127.918H180.237L137.361 258.274H165.841L173.665 231.206H214.976L222.8 258.274H251.593L208.404 127.918ZM194.32 159.26L207.778 207.343H180.237L194.32 159.26ZM394.304 127.918H368.328V215.178L319.506 127.918H290.4V258.274H316.376V171.37L365.198 258.274H394.304V127.918ZM514.168 258.274L476.613 192.027V258.274H448.759V127.918H476.613V190.603L512.291 127.918H543.274L505.719 190.603L546.717 258.274H514.168ZM645.3 193.096C645.3 219.096 659.07 235.123 676.909 235.123C694.748 235.123 708.519 219.096 708.519 193.096C708.519 167.096 694.748 151.069 676.909 151.069C659.07 151.069 645.3 167.096 645.3 193.096ZM615.881 193.096C616.194 154.986 639.667 125.069 676.909 125.069C714.152 125.069 737.624 154.986 737.937 193.096C737.624 231.206 714.152 261.123 676.909 261.123C639.667 261.123 616.194 231.206 615.881 193.096ZM776.119 258.274H803.972V206.986H840.276V182.055H803.972V152.849H847.787L852.794 127.918H776.119V258.274ZM982.674 127.918H954.507L911.631 258.274H940.111L947.935 231.206H989.246L997.07 258.274H1025.86L982.674 127.918ZM968.591 159.26L982.048 207.343H954.507L968.591 159.26ZM1191.11 127.918H1158.56L1128.83 198.438L1099.1 127.918H1066.55V258.274H1091.59V171.014L1128.51 258.274L1165.44 171.014V258.274H1191.42L1191.11 127.918ZM1245.25 258.274H1323.49V233.343H1273.1V204.137H1312.85V179.918H1273.1V152.849H1319.11L1324.12 127.918H1245.25V258.274ZM1429.59 258.274H1459.94L1431.46 203.069C1447.11 198.082 1454.62 185.617 1454.62 167.452C1454.62 143.945 1442.1 128.274 1413.94 128.274H1369.81V258.63H1397.04V207.343H1404.55L1429.59 258.274ZM1408.62 152.137C1420.2 152.137 1426.14 157.836 1426.14 168.877C1426.14 179.918 1420.2 185.617 1408.62 185.617H1396.72V152.137H1408.62ZM1501.57 258.274H1529.42V128.274H1501.57V258.274ZM1666.5 223.37C1655.86 231.918 1646.47 234.767 1636.77 234.767C1615.49 234.767 1600.46 218.027 1600.46 193.096C1600.46 168.164 1615.17 151.425 1635.83 151.425C1645.22 151.425 1654.61 154.274 1664.93 162.822V133.26C1655.54 127.206 1644.59 124.712 1632.39 124.712C1594.52 124.712 1570.73 154.63 1570.42 192.74C1570.73 231.206 1593.89 260.767 1632.39 260.767C1645.22 260.767 1656.17 258.274 1666.19 252.219V223.37H1666.5ZM1768.52 127.918H1740.36L1697.48 258.274H1725.96L1733.79 231.206H1775.1L1782.92 258.274H1811.71L1768.52 127.918ZM1754.44 159.26L1767.9 207.343H1740.36L1754.44 159.26Z" fill="#012169"/>
</g>
<defs>
<clipPath id="clip0_26_154">
<rect width="2253.33" height="260" fill="white" transform="translate(20 20)"/>
</clipPath>
</defs>
</svg>
