<svg width="1730" height="300" viewBox="0 0 1730 300" fill="none" xmlns="http://www.w3.org/2000/svg">
<rect width="1730" height="300" fill="white"/>
<path d="M162.123 132.778C190.427 126.515 222.269 108.771 222.269 78.5025C222.269 33.6209 173.916 33.6209 149.151 33.6209H47.7287C52.446 35.7085 54.8046 47.1898 54.8046 62.8462C54.8046 81.6338 53.6253 107.728 50.0873 143.215L48.908 157.828C44.1907 219.41 41.8321 254.898 30.0388 263.248H120.847C190.427 263.248 232.882 231.935 232.882 191.228C234.062 153.653 203.399 136.953 162.123 132.778ZM101.978 109.815C103.157 93.1151 105.516 76.415 107.874 60.7586C113.771 59.7149 120.847 59.7149 125.564 59.7149C156.226 59.7149 170.378 71.1962 170.378 86.8526C170.378 113.99 139.716 124.428 106.695 124.428H100.798L101.978 109.815ZM118.488 234.022C100.798 234.022 93.7223 229.847 93.7223 227.76C93.7223 213.147 94.9016 201.666 96.0809 186.01L98.4396 152.609H117.309C151.509 152.609 178.634 162.003 178.634 192.272C178.634 219.41 155.047 234.022 118.488 234.022ZM1642.17 129.647C1616.23 115.034 1591.46 102.509 1591.46 85.8088C1591.46 64.9337 1611.51 56.5836 1633.92 56.5836C1659.86 56.5836 1682.27 70.1525 1692.89 86.8526L1699.96 32.5772C1682.27 32.5772 1664.58 28.4022 1636.28 28.4022C1587.93 28.4022 1540.75 45.1023 1540.75 94.1589C1540.75 127.559 1567.88 145.303 1610.33 168.266C1630.38 178.703 1646.89 190.185 1646.89 206.885C1646.89 227.76 1626.84 239.241 1599.72 239.241C1564.34 239.241 1540.75 221.497 1527.78 197.491L1523.06 254.898C1550.19 264.291 1573.77 267.423 1596.18 267.423C1651.61 267.423 1698.78 240.285 1698.78 197.491C1698.78 164.091 1670.48 145.303 1642.17 129.647ZM1457.02 139.04C1469.99 120.253 1530.14 35.7085 1544.29 33.6209H1474.71C1477.07 35.7085 1478.25 41.971 1478.25 47.1898C1478.25 54.4961 1474.71 60.7586 1471.17 67.0212C1454.66 89.9839 1442.87 107.728 1424 131.734C1416.92 112.947 1403.95 87.8963 1387.44 53.4523C1376.83 32.5772 1372.11 30.4897 1354.42 30.4897C1344.98 30.4897 1323.76 31.5334 1308.43 32.5772C1317.86 36.7522 1332.01 56.5836 1344.98 77.4588C1365.03 110.859 1378.01 139.04 1387.44 168.266C1388.62 188.097 1382.72 252.81 1370.93 263.248H1441.69C1435.79 258.029 1434.61 244.46 1434.61 234.022C1434.61 208.972 1436.97 186.01 1440.51 169.309C1442.87 159.916 1451.12 148.434 1457.02 139.04ZM693.998 224.629L640.928 162.003C637.391 157.828 631.494 150.522 627.956 148.434C662.156 139.04 690.46 119.209 690.46 82.6776C690.46 37.796 646.825 33.6209 616.163 33.6209H519.458C524.175 35.7085 526.534 46.146 526.534 62.8462C526.534 81.6338 525.355 107.728 521.817 143.215L520.637 157.828C514.741 228.804 511.203 255.941 500.589 263.248H571.348C566.631 261.16 564.272 249.679 564.272 234.022C564.272 220.454 565.452 201.666 566.631 177.659L567.81 160.959H568.99C578.424 160.959 581.962 166.178 587.859 172.441L660.977 262.204C666.874 269.51 671.591 272.641 691.639 272.641C704.612 272.641 724.66 271.598 738.812 270.554C730.557 265.335 727.019 263.248 693.998 224.629ZM584.321 131.734C580.783 131.734 576.066 131.734 572.528 130.69L573.707 115.034C576.066 87.8963 577.245 70.1525 579.604 60.7586C585.5 59.7149 593.756 59.7149 599.652 59.7149C624.418 59.7149 638.57 70.1525 638.57 87.8963C638.57 115.034 616.163 131.734 584.321 131.734ZM439.264 159.916L428.65 124.428C415.678 82.6776 400.346 33.6209 400.346 33.6209H343.739C346.098 35.7085 347.277 40.9272 347.277 46.146C347.277 51.3648 329.587 85.8088 313.076 117.122L295.387 151.566C263.545 211.06 241.138 247.591 223.448 263.248H285.952C284.773 261.16 284.773 255.941 284.773 252.81C284.773 240.285 297.745 218.366 302.463 207.928L308.359 198.535H339.022C369.684 198.535 388.553 195.403 400.346 191.228L406.243 211.06C423.933 265.335 426.292 266.379 448.699 266.379C455.775 266.379 473.465 265.335 488.796 264.291C471.106 250.723 459.313 221.497 439.264 159.916ZM322.511 166.178L364.967 85.8088L390.912 166.178H322.511ZM780.089 154.697C780.089 108.771 802.496 55.5399 857.924 55.5399C886.228 55.5399 907.456 69.1087 919.249 89.9839L926.325 31.5334C903.918 31.5334 890.945 27.3584 862.641 27.3584C773.013 27.3584 725.84 86.8526 725.84 163.047C725.84 218.366 764.757 267.423 831.979 267.423C883.869 267.423 914.532 244.46 928.683 205.841C895.662 226.716 875.614 231.935 853.207 231.935C811.93 231.935 780.089 204.797 780.089 154.697ZM1286.02 159.916L1275.4 124.428C1270.69 108.771 1247.1 33.6209 1247.1 33.6209H1190.49C1192.85 35.7085 1194.03 40.9272 1194.03 46.146C1194.03 52.4086 1177.52 84.7651 1159.83 117.122L1142.14 151.566C1129.17 177.659 1115.02 201.666 1102.04 221.497C1082 232.979 1071.38 234.022 1028.93 234.022C1017.13 234.022 1012.42 231.935 1012.42 221.497C1012.42 198.535 1015.95 175.572 1017.13 152.609L1018.31 139.04C1023.03 77.4588 1026.57 39.8835 1037.18 34.6647H966.422C971.139 39.8835 972.318 48.2336 973.498 63.8899C973.498 82.6776 972.318 108.771 968.78 144.259L967.601 158.872C962.884 220.454 959.346 253.854 948.732 264.291H1132.71C1131.53 262.204 1131.53 256.985 1131.53 253.854C1131.53 241.329 1142.14 223.585 1149.22 208.972L1155.11 199.578H1185.78C1216.44 199.578 1235.31 196.447 1247.1 192.272L1253 212.104C1270.69 266.379 1273.05 267.423 1295.45 267.423C1302.53 267.423 1321.4 266.379 1335.55 265.335C1316.68 250.723 1304.89 221.497 1286.02 159.916ZM1169.27 166.178L1211.72 85.8088L1237.67 166.178H1169.27Z" fill="#00AEEF"/>
</svg>
