<svg width="1170" height="300" viewBox="0 0 1170 300" fill="none" xmlns="http://www.w3.org/2000/svg">
<rect width="1170" height="300" fill="white"/>
<path d="M25.8467 272.989H255.952V26.2756H25.8467V272.989Z" fill="#00A870"/>
<path d="M205.45 91.1655C191.193 100.133 186.834 100.836 171.438 110.763C180.39 100.316 183.501 95.8875 189.085 87.1333C174.851 87.9275 154.156 89.7665 139.341 93.2669C152.236 85.9483 177.763 77.6887 191.21 75.7766C188.076 71.152 162.823 56.4906 156.543 53.6865C176.526 55.3604 200.965 63.3142 212.777 71.1277C217.547 69.5577 222.316 69.4659 230.949 68.6351C228.749 72.7159 228.726 75.0863 220.196 81.1037C222.55 87.8664 216.943 125.04 212.305 134.967C212.105 119.358 210.806 99.6814 205.45 91.1655Z" fill="white"/>
<path d="M101.42 224.568C93.2375 221.3 87.3343 217.53 80.8784 211.049C82.8044 205.337 85.0038 200.792 88.6619 195.141C81.9781 196.155 77.1576 196.925 71.4026 198.128C66.7529 189.337 64.6561 180.956 62.28 169.269C60.9808 181.664 60.5306 190.535 62.183 200.425C56.9408 201.946 53.2143 203.333 48.9009 205.416C54.918 209.406 59.8069 212.485 66.6047 215.832C70.223 224.147 73.9723 229.846 80.0294 236.249C78.6163 230.775 78.2687 226.407 78.7986 220.689C86.3656 223.059 92.8272 224.269 101.42 224.568Z" fill="white"/>
<path d="M122.668 100.891C120.104 104.398 117.135 110.989 116.377 114.08C137.381 117.165 154.298 128.73 154.31 128.73C135.814 125.229 126.195 125.663 119.335 126.311C112.469 127.038 111.095 127.911 111.095 127.911C106.127 139.494 103.187 159.556 103.187 159.556C99.8247 150.924 95.0097 133.586 95.0097 133.586C85.6934 138.914 64.3826 160.417 64.3826 160.417H64.3599C76.0979 135.248 87.9784 123.696 87.9784 123.696H87.9955C83.8929 119.297 73.1577 117.129 65.3457 116.744C69.4084 114.954 79.8701 112.834 87.91 112.455C95.9272 112.174 100.793 112.73 100.822 112.73C108.001 106.627 118.862 101.52 122.668 100.891Z" fill="white"/>
<path d="M144.959 208.966C141.215 214.342 138.07 218.588 133.928 223.548C126.845 225.625 121.198 226.401 114.309 226.419C118.554 228.735 122.668 230.189 127.061 231.142C122.668 235.448 118.885 238.503 114.623 241.423C121.802 239.615 131.312 236.304 138.349 231.869C141.962 232.009 145.421 231.753 147.933 231.258C147.335 228.93 146.931 227.232 146.338 224.245C152.988 218.722 157.819 213.749 163.284 207.793C157.438 212.167 152.366 215.466 145.631 218.875C145.312 215.539 145.101 212.717 144.959 208.966Z" fill="white"/>
<path d="M342.408 196.473C358.049 196.528 363.884 199.998 363.884 209.149C363.884 211.605 363.161 213.712 361.793 215.539C358.796 219.357 352.847 221.348 345.434 220.951H345.052L340.761 233.09H345.115C353.736 232.809 361.217 235.699 365.041 240.733C366.83 243.06 367.713 245.711 367.713 248.552C367.713 258.18 359.907 263.061 344.488 263.061C341.907 263.061 337.707 263.061 335.041 262.89C334.471 250.244 334.437 233.029 334.437 227.934C334.437 221.929 334.682 208.483 335.075 197.016C336.779 196.693 339.736 196.436 342.408 196.473ZM313.496 187.694C314.129 196.79 314.573 219.583 314.573 227.934C314.573 235.558 314.476 261.222 313.376 272.304L313.291 273.214L350.744 273.239C369.007 273.239 388.534 267.032 388.534 249.542C388.534 238.576 381.149 230.482 367.309 226.016C377.44 223.12 384.374 215.551 384.374 206.864C384.374 192.593 369.069 187.211 354.773 186.869L313.439 186.814L313.496 187.694Z" fill="black"/>
<path d="M474.866 186.814H456.712L457.492 208.538C457.817 219.387 458.113 230.433 458.826 241.173C457.578 237.855 456.564 236.077 451.133 227.47C450.94 227.183 432.085 195.911 425.498 187.059L425.327 186.814H404.13L404.181 187.651C404.802 196.747 405.235 219.528 405.235 227.934C405.235 235.54 405.161 261.222 404.073 272.304L403.976 273.19H422.785L422.745 272.365C421.623 251.203 421.623 229.95 421.623 209.399V209.35C422.284 211.794 423.173 214.073 426.124 218.764C426.449 219.284 458.752 269.873 460.393 272.878L460.575 273.19H475.686L475.606 272.304C474.501 261.204 474.41 235.54 474.41 227.934C474.41 219.528 474.866 196.735 475.475 187.651L475.538 186.814H474.866Z" fill="black"/>
<path d="M524.222 197.2C534.69 196.998 542.097 199.326 545.63 204.012C547.237 206.15 548.052 208.783 548.052 211.862C548.052 224.367 535.003 227.006 524.046 227.006L519.59 226.853C519.59 226.853 518.513 226.67 517.829 226.578C517.749 223.689 517.732 219.968 517.732 215.649C517.732 210.139 517.8 203.816 517.983 197.78C519.379 197.524 521.806 197.267 524.222 197.2ZM496.746 187.645C497.356 196.791 497.795 219.529 497.795 227.935C497.795 235.54 497.743 261.204 496.621 272.298L496.558 273.166H518.974L518.86 272.298C518.097 264.375 517.829 249.2 517.732 237.507C518.672 237.556 521.823 237.758 521.823 237.758L524.991 237.892C554.542 237.892 568.901 229.419 568.901 211.862C568.901 191.867 548.764 187.218 531.903 186.815L496.706 186.784L496.746 187.645Z" fill="black"/>
<path d="M639.198 197.2C649.665 196.998 657.073 199.326 660.617 204.012C662.206 206.15 663.027 208.783 663.027 211.862C663.027 224.367 649.995 227.006 639.01 227.006L634.565 226.853C634.565 226.853 633.465 226.67 632.821 226.578C632.753 223.689 632.685 219.883 632.685 215.607C632.685 210.09 632.765 203.816 632.958 197.78C634.354 197.524 636.787 197.267 639.198 197.2ZM611.716 187.645C612.343 196.791 612.799 219.529 612.799 227.935C612.799 235.54 612.702 261.204 611.602 272.298L611.511 273.166H633.938L633.853 272.298C633.089 264.375 632.804 249.2 632.696 237.507C633.636 237.556 636.81 237.758 636.81 237.758L639.984 237.892C669.511 237.892 683.888 229.419 683.888 211.862C683.888 191.867 663.745 187.218 646.862 186.815L611.687 186.784L611.716 187.645Z" fill="black"/>
<path d="M719.369 212.289C721.175 216.351 725.757 227.934 730.953 241.576C730.167 241.582 729.244 241.618 729.244 241.618L719.369 241.783C719.369 241.783 709.164 241.581 707.568 241.551C711.757 230.555 715.831 220.689 719.369 212.289ZM713.916 186.869H713.54L713.398 187.327C709.21 199.619 682.394 262.444 678.201 272.06L677.682 273.239H696.93L697.038 272.731C698.742 266.848 700.879 260.159 703.409 252.914C704.104 252.896 719.295 252.663 719.295 252.663L732.389 252.847C732.389 252.847 734.697 252.896 735.255 252.896C738.743 262.23 741.301 269.286 742.429 272.756L742.583 273.239H764.84L728.953 186.869H713.916Z" fill="black"/>
<path d="M773.729 187.651C774.321 196.747 774.8 219.528 774.8 227.934C774.8 235.54 774.726 261.204 773.564 272.298L773.501 273.19H795.928L795.843 272.304C794.726 261.179 794.641 235.54 794.641 227.934C794.641 221.929 794.88 208.459 795.279 197.743C797.136 197.523 799.655 197.267 801.37 197.236C811.82 197.016 819.239 199.387 822.766 204.042C824.368 206.149 825.217 208.788 825.217 211.861C825.217 221.837 816.464 226.871 808.339 227.348C805.627 227.47 803.564 227.079 803.564 227.079L802.008 226.804L803.005 228.362C810.869 240.842 822.812 262.541 827.849 272.878L828.009 273.239H852.043L851.319 271.944C850.482 270.569 834.749 245.827 828.06 235.253C828.06 235.253 827.849 234.886 827.633 234.593C839.855 230.61 845.855 223.187 845.855 211.861C845.855 191.866 825.718 187.217 808.84 186.839L773.649 186.814L773.729 187.651Z" fill="black"/>
<path d="M883.89 186.766H862.396L862.493 187.615C863.092 196.748 863.548 219.528 863.548 227.885C863.548 235.497 863.451 261.155 862.357 272.255L862.26 273.153H884.665L884.579 272.255C883.479 261.155 883.382 235.497 883.382 227.885C883.382 219.528 883.855 196.735 884.459 187.615L884.516 186.766H883.89Z" fill="black"/>
<path d="M933.81 196.473C949.428 196.528 955.252 199.998 955.252 209.149C955.252 211.605 954.54 213.712 953.155 215.539C950.203 219.357 944.203 221.348 936.819 220.951H936.431L932.141 233.09H936.534C945.155 232.809 952.568 235.699 956.42 240.733C958.198 243.06 959.081 245.711 959.081 248.552C959.081 258.18 951.275 263.061 935.867 263.061C933.28 263.061 929.052 263.061 926.374 262.89C925.844 250.244 925.827 233.029 925.827 227.934C925.827 221.898 926.066 208.459 926.443 197.016C928.163 196.693 931.104 196.436 933.81 196.473ZM904.887 187.694C905.479 196.79 905.941 219.583 905.941 227.934C905.941 235.558 905.872 261.222 904.744 272.304L904.642 273.214L942.112 273.239C960.403 273.239 979.924 267.032 979.924 249.542C979.924 238.576 972.523 230.482 958.642 226.016C968.819 223.12 975.748 215.551 975.748 206.864C975.748 192.593 960.46 187.211 946.135 186.869L904.83 186.814L904.887 187.694Z" fill="black"/>
<path d="M1025.82 212.191C1027.61 216.26 1032.16 227.849 1037.39 241.447C1036.6 241.472 1035.7 241.552 1035.7 241.552L1025.81 241.692C1025.81 241.692 1015.64 241.472 1014.02 241.447C1018.15 230.482 1022.26 220.616 1025.82 212.191ZM1035.07 186.766H1019.97L1019.82 187.218C1015.4 200.285 986.991 266.531 984.637 271.987L984.107 273.153H1003.36L1003.49 272.64C1005.16 266.763 1007.32 260.105 1009.85 252.847C1010.53 252.798 1025.72 252.578 1025.72 252.578L1038.84 252.774C1038.84 252.774 1041.13 252.798 1041.71 252.847C1045.18 262.145 1047.75 269.188 1048.87 272.683L1049.03 273.153H1071.28L1035.41 186.766H1035.07Z" fill="black"/>
<path d="M1077.55 209.162C1077.55 224.367 1091.81 230.5 1104.37 235.986C1114.14 240.208 1124.23 244.618 1124.23 251.845C1124.23 254.032 1123.74 255.804 1122.67 257.142C1120.35 260.117 1115.53 261.363 1107.95 260.991C1100.58 260.612 1092.1 258.033 1082.74 253.366L1078.79 251.424L1078.81 254.765V270.301L1081.37 270.899L1082.95 271.235C1087.65 272.451 1096.59 274.729 1105.62 274.729C1129.27 274.729 1143.39 264.686 1143.39 247.923C1143.39 232.339 1128.82 226.114 1115.95 220.616C1106.45 216.572 1096.66 212.381 1096.66 205.759C1096.66 203.816 1096.66 198.012 1108.81 198.012C1117.91 198.012 1126.8 201.983 1131.62 204.103L1136.22 206.15L1136.18 202.894V187.212L1131.62 186.313C1127.05 185.385 1119.42 183.785 1111.5 183.785C1091.17 183.785 1077.55 193.993 1077.55 209.162Z" fill="black"/>
</svg>
