<svg width="1010" height="300" viewBox="0 0 1010 300" fill="none" xmlns="http://www.w3.org/2000/svg">
<rect width="1010" height="300" fill="white"/>
<path d="M143.613 225.527L142.925 226.19C131.83 237.429 118.988 243.385 105.756 243.385C78.1359 243.385 58.0866 222.783 58.0866 194.358C58.0866 165.983 78.1359 145.352 105.756 145.352C118.988 145.352 131.83 151.333 142.925 162.602L143.613 163.284L161.376 141.929L160.901 141.349C146.129 123.993 128.404 115.544 106.613 115.544C84.7476 115.544 64.7594 122.86 50.3539 136.055C34.702 150.344 26.438 170.496 26.438 194.358C26.438 218.207 34.702 238.409 50.3539 252.702C64.7594 265.958 84.7476 273.234 106.613 273.234C128.404 273.234 146.129 264.79 160.901 247.426L161.376 246.887L143.613 225.527Z" fill="#003B70"/>
<path d="M179.325 270.328H210.706V118.018H179.325V270.328Z" fill="#003B70"/>
<path d="M333.623 237.209C325.252 242.278 317.46 244.826 310.463 244.826C300.325 244.826 295.744 239.505 295.744 227.655V146.839H327.702V118.157H295.744V70.7653L264.987 87.1312V118.157H238.453V146.839H264.987V232.81C264.987 256.233 278.941 272.234 299.772 272.65C313.916 272.926 322.443 268.736 327.621 265.674L327.925 265.45L335.48 236.082L333.623 237.209Z" fill="#003B70"/>
<path d="M359.613 270.328H391.014V118.018H359.613V270.328Z" fill="#003B70"/>
<path d="M891.495 60.0654V205.353L901.27 190.225C901.262 190.292 945.188 127.049 950.817 118.985H970.393C966.226 124.552 931.69 171.809 931.69 171.809C931.69 171.809 976.677 265.018 979.276 270.328H960.052C958.995 268.153 920.348 186.806 920.348 186.806L891.495 227.002V270.328H873.585V70.2348C875.152 69.3404 887.28 62.428 891.495 60.0654ZM744.371 137.028C753.609 123.297 768.084 115.725 785.019 115.725C818.787 115.725 836.683 137.138 836.683 177.659V270.328H818.728V181.496C818.728 147.022 806.689 131.019 780.608 131.019C755.646 131.019 740.741 149.897 740.741 181.496V270.328H722.837V118.985H740.741V142.455L744.371 137.028ZM634.293 115.725C669.041 115.725 685.933 131.524 685.933 164.034V270.328H668.022V248.248L664.537 252.069C651.356 266.529 636.226 273.599 618.211 273.599C604.094 273.599 571.249 268.953 571.249 225.869C571.249 190.652 600.486 178.153 627.876 178.153C641.629 178.153 655.215 181.302 665.074 186.795L668.022 188.419V166.692C668.022 142.603 656.19 130.403 632.807 130.403C618.388 130.403 605.375 134.022 592.031 141.499C590.854 138.81 586.715 129.712 585.564 127.116C599.509 119.808 616.73 115.725 634.293 115.725ZM588.811 224.386C588.811 247.01 600.601 259.478 622.021 259.478C640.252 259.478 656.444 250.914 667.685 235.341L668.022 234.806V201.625L667.027 201.052C655.595 194.572 643.886 191.959 626.677 191.959C602.987 191.959 588.811 204.078 588.811 224.386ZM450.514 60.0654V141.025L453.982 137.25C467.172 122.765 481.772 115.725 498.559 115.725C532.152 115.725 551.433 143.564 551.433 192.117C551.433 241.613 529.534 273.599 495.628 273.599C479.108 273.599 465.88 267.226 454 253.566L450.514 249.532V270.328H432.64V70.2348C434.162 69.3404 446.312 62.428 450.514 60.0654ZM450.939 154.211L450.514 154.77V233.551L450.834 234.034C460.713 249.236 476.808 258.325 493.938 258.325C520.393 258.325 533.803 236.155 533.803 192.44C533.803 153.388 518.946 131.019 493.043 131.019C477.342 131.019 463.175 138.819 450.939 154.211Z" fill="#003B70"/>
<path fill-rule="evenodd" clip-rule="evenodd" d="M409.81 90.9926C381.085 50.5377 333.38 26.4013 284.845 26.4013C236.329 26.4013 188.615 50.5377 159.937 90.9926L158.466 93.0742H194.635L195.036 92.6424C219.654 67.3796 251.79 54.0196 284.845 54.0196C317.904 54.0196 350.034 67.3796 374.699 92.6424L375.099 93.0742H411.257L409.81 90.9926Z" fill="#D9261C"/>
</svg>
