<svg width="1390" height="300" viewBox="0 0 1390 300" fill="none" xmlns="http://www.w3.org/2000/svg">
<rect width="1390" height="300" fill="white"/>
<path d="M61.34 268.712H28.9949V170.469H61.34C95.5602 170.469 113.901 187.183 113.901 219.523C113.901 251.587 98.6658 268.712 61.34 268.712ZM58.9962 185.414H48.3903V253.761H58.7618C85.4817 254.306 94.0954 241.264 94.0954 219.658C94.0954 195.878 81.7315 185.414 58.9962 185.414Z" fill="#1C62B7"/>
<path d="M143.551 227.268C144.078 218.298 148.473 210.009 158.61 210.009C168.454 210.009 173.318 217.344 172.907 227.268H143.551ZM159.196 198.461C133.355 198.461 124.39 216.805 124.39 234.058C124.39 254.581 134.703 269.931 156.735 270.61C174.255 270.751 189.783 265.449 190.838 246.291H172.907C172.907 254.036 166.638 259.063 159.313 259.063C146.949 259.063 143.023 249.958 142.848 238.815L192.361 238.681C193.826 218.298 184.978 198.461 159.196 198.461Z" fill="#1C62B7"/>
<path d="M271.877 268.712H253.361L253.243 257.569C250.138 266.398 241.524 270.886 230.977 270.886C218.437 270.886 206.601 263.275 206.484 245.067V200.904H225.234V242.483C225.117 252.267 228.926 257.704 238.126 257.838C246.446 257.838 253.243 253.081 253.243 239.905V200.904H271.877V268.712Z" fill="#1C62B7"/>
<path d="M295.901 201.18V190.441L314.007 180.932V201.18H331.293V214.356H314.007V247.105C314.007 253.761 316.293 257.569 323.09 257.838C325.668 257.838 328.012 258.108 331.41 257.159V268.847C322.562 270.071 312.367 272.379 303.929 267.892C297.542 264.5 295.901 258.518 295.901 249.009V214.356H281.369V201.18H295.901Z" fill="#1C62B7"/>
<path d="M401.667 239.495C404.656 245.477 404.538 253.357 400.847 258.793C394.46 268.571 380.573 271.02 369.849 270.751C354.614 269.796 341.079 265.859 341.723 247.65H360.24C360.064 255.53 364.986 258.383 372.018 258.653C378.815 258.653 385.612 256.344 385.612 250.093C385.612 245.067 380.866 242.893 374.772 241.534C367.799 240.04 362.818 239.36 355.025 236.232C348.813 233.244 342.661 228.217 342.661 218.709C342.661 210.823 348.813 204.847 356.841 201.584C362.232 199.276 368.912 198.596 374.654 198.596C387.546 198.596 401.55 203.078 400.73 219.382H383.327C383.327 216.939 382.799 214.221 380.748 212.592C376.94 209.194 365.22 208.784 361.587 214.356C357.486 223.87 370.142 224.55 384.147 228.352C392.995 230.391 398.972 234.058 401.667 239.495Z" fill="#1C62B7"/>
<path d="M448.017 198.321C462.842 198.321 478.194 205.117 478.194 223.735L459.97 223.595C459.97 214.901 455.224 209.599 446.259 210.009C443.915 210.143 441.454 210.958 439.462 212.048C433.836 215.311 432.079 224.415 432.079 233.519C432.079 243.163 434.422 252.542 438.641 255.934C441.454 258.653 446.493 259.473 450.829 258.653C458.037 257.434 460.205 250.363 460.381 244.252L478.194 244.118C478.428 263.545 462.549 270.886 445.966 270.61C423.817 269.796 413.621 255.395 413.621 234.058C413.621 212.458 425.985 198.321 448.017 198.321Z" fill="#1C62B7"/>
<path d="M492.55 170.604H511.301V211.637C516.223 202.943 523.547 199.141 533.45 199.141C545.99 199.141 557.826 208.515 557.826 221.966V268.712H539.31V227.128C539.31 217.888 535.384 211.778 526.536 211.778C518.274 211.778 511.184 217.209 511.184 229.711V268.712H492.55V170.604Z" fill="#1C62B7"/>
<path d="M591.519 227.268C592.046 218.298 596.382 210.009 606.578 210.009C616.364 210.009 621.286 217.344 620.876 227.268H591.519ZM607.164 198.461C581.323 198.461 572.358 216.805 572.358 234.058C572.358 254.581 582.671 269.931 604.703 270.61C622.223 270.751 637.751 265.449 638.806 246.291H620.876C620.876 254.036 614.606 259.063 607.281 259.063C594.917 259.063 590.992 249.958 590.816 238.815L640.33 238.681C641.794 218.298 632.946 198.461 607.164 198.461Z" fill="#1C62B7"/>
<path d="M755.94 265.859C749.612 267.892 741.408 268.712 732.619 268.712H697.109V170.738H734.904C751.78 170.738 769.417 176.04 770.12 194.929C770.531 206.886 762.386 214.49 752.19 217.888C760.042 219.927 766.429 222.236 770.765 229.576C774.574 236.097 774.867 244.797 771.761 251.997C768.48 258.793 763.44 263.275 755.94 265.859ZM734.904 185.414H715.743V210.823H735.197C745.393 210.823 750.667 206.611 750.667 198.321C750.667 190.576 744.572 185.414 734.904 185.414ZM736.838 225.499L715.743 225.364V254.171H736.135C749.729 254.171 754.065 247.51 754.065 239.226C754.065 232.84 749.436 225.364 736.838 225.499Z" fill="#1C62B7"/>
<path d="M815.24 258.928C808.325 258.383 804.224 254.985 804.224 248.465C804.341 234.199 822.447 235.693 831.822 235.693C832.233 246.971 831.295 258.653 815.24 258.928ZM849.636 219.523C849.636 205.661 834.694 198.731 817.408 198.865C800.942 199.141 788.989 204.437 788.754 220.337H806.802C806.392 212.997 811.431 209.194 818.111 209.059C828.131 209.059 832.643 213.676 831.705 225.095C821.744 225.634 808.443 224.954 798.54 229.576C791.332 232.974 785.766 239.36 785.766 249.548C785.766 262.596 794.848 270.475 808.15 270.886C817.701 271.835 828.541 267.622 832.76 258.793L833.463 268.712H849.636C849.636 252.267 849.636 236.097 849.636 219.523Z" fill="#1C62B7"/>
<path d="M867.683 200.904H886.434V211.778C891.356 202.943 900.321 199.141 910.4 199.141C921.65 199.141 933.194 205.661 933.194 221.966V268.712H914.443V227.127C914.56 218.299 910.224 211.778 901.669 211.778C893.231 211.778 886.317 217.209 886.317 229.711V268.712H867.683V200.904Z" fill="#1C62B7"/>
<path d="M998.821 268.712L970.285 229.846L996.126 200.904H1018.16L991.38 229.166L1022.9 268.712H998.821ZM951.3 170.604H969.758V268.712H951.3V170.604Z" fill="#1C62B7"/>
<path d="M1122.34 28.9829H1361.01V268.571H1122.34V28.9829ZM1267.37 85.7296L1174.14 210.829H1216.27L1309.85 85.7296H1267.37ZM1155.57 235.388H1327.78V62.172H1155.57V235.388Z" fill="#1C62B7"/>
</svg>
