<svg width="1730" height="300" viewBox="0 0 1730 300" fill="none" xmlns="http://www.w3.org/2000/svg">
<rect width="1730" height="300" fill="white"/>
<g clip-path="url(#clip0_26_97)">
<mask id="mask0_26_97" style="mask-type:luminance" maskUnits="userSpaceOnUse" x="-369" y="-1461" width="5002" height="3745">
<path d="M-368.325 -1460.46H4632.52V2283.53H-368.325V-1460.46Z" fill="white"/>
</mask>
<g mask="url(#mask0_26_97)">
<path fill-rule="evenodd" clip-rule="evenodd" d="M58.56 79.9946C58.56 41.1012 58.56 33.1094 34.2125 30.6586H28.8142C26.2803 27.9946 28.8142 22.7733 28.8142 20.3225C39.6108 20.3225 44.899 22.7733 53.1617 22.7733H149.78C176.552 22.7733 200.568 22.7733 203.433 20.3225C205.967 27.9946 208.831 53.9946 211.365 72.0028C208.831 74.7733 203.433 74.7733 200.568 72.0028C195.17 53.9946 192.746 41.1012 171.263 35.8799C163.001 33.1094 149.78 33.1094 133.696 33.1094H103.95C93.2634 33.1094 93.2634 35.8799 93.2634 48.7733V126.773C93.2634 137.109 93.2634 137.109 103.95 137.109H128.297C144.382 137.109 157.602 134.445 160.467 134.445C165.865 131.995 168.399 129.224 171.263 121.552L173.797 105.995C176.552 103.224 181.95 103.224 184.484 105.995C184.484 113.56 181.95 129.224 181.95 144.782C181.95 157.675 184.484 173.232 184.484 181.224C181.95 183.675 176.552 183.675 173.797 181.224L171.263 165.56C168.399 160.445 165.865 152.454 157.602 152.454C152.314 150.003 144.382 150.003 128.297 150.003H103.95C93.2634 150.003 93.2634 150.003 93.2634 160.445V214.896C93.2634 232.904 93.2634 248.462 98.6617 253.683C103.95 258.904 112.213 261.675 146.916 261.675C179.085 261.675 189.882 261.675 198.035 256.454C205.967 253.683 216.653 240.896 224.916 220.011C230.314 217.56 235.602 220.011 235.602 222.462C232.738 235.675 222.052 264.126 219.518 274.462H23.5261C20.9922 274.462 20.9922 269.347 20.9922 266.896L34.2125 264.126C58.56 264.126 58.56 256.454 58.56 217.56V79.9946ZM291.789 150.109C281.102 124.109 278.568 121.339 270.306 118.888L257.085 116.118C254.221 113.667 254.221 108.445 257.085 108.445H332.221C334.755 108.445 334.755 116.118 332.221 116.118L324.068 118.888C313.272 118.888 313.272 124.109 321.535 142.118L340.153 186.126C350.84 207.011 356.238 222.568 364.391 233.011C372.323 217.347 377.721 201.79 385.874 186.126C393.806 168.118 404.492 142.118 409.891 131.782C412.755 124.109 409.891 121.339 399.204 118.888L393.806 116.118C388.407 113.667 391.272 108.445 393.806 108.445H452.857C458.255 108.445 458.255 116.118 455.721 116.118L444.924 118.888C434.238 121.339 431.374 124.109 418.153 150.109L388.407 212.126C375.187 238.126 364.39 266.577 359.102 277.019C359.102 279.79 356.238 279.79 356.238 279.79C353.704 279.79 350.84 279.79 350.84 277.019C348.306 269.347 343.018 256.241 337.619 245.798L291.789 150.109ZM509.263 147.659C509.263 121.659 506.509 121.659 493.179 119.208L487.78 116.437C485.026 116.437 485.026 108.872 487.78 108.872H616.679C616.679 111.323 619.213 129.65 621.967 147.659C619.213 150.109 613.814 150.109 611.28 147.659C608.416 137.323 605.882 132.101 603.018 129.65C597.729 119.208 579.111 119.208 570.848 119.208H552.23C538.679 119.208 538.679 119.208 538.679 132.101V173.659C538.679 181.331 538.679 181.331 546.831 181.331H565.45C586.933 181.331 586.933 178.88 592.331 168.437V160.552C595.196 158.101 600.484 158.101 603.018 160.552V215.322C600.484 217.773 595.196 217.773 592.331 215.322V210.101C586.933 196.888 586.933 194.437 565.45 194.437H546.831C538.679 194.437 538.679 194.437 538.679 202.109V230.56C538.679 241.003 538.679 254.109 544.077 259.331C546.831 261.782 554.763 264.552 576.246 264.552C603.018 264.552 616.679 261.782 627.365 230.56C629.899 228.109 638.162 230.56 638.162 233.331C635.297 248.888 629.899 269.773 627.365 274.888H479.628C477.094 274.888 477.094 267.003 479.628 267.003L490.314 264.552C506.509 264.552 509.263 261.782 509.263 233.331V147.659ZM705.035 152.88C705.035 129.65 705.035 121.659 697.102 121.659L686.416 119.208C681.018 119.208 681.018 111.216 686.416 108.765H750.865C788.433 108.765 828.535 113.986 828.535 152.88C828.535 178.88 807.052 189.216 790.857 194.437V199.659C812.34 233.331 828.535 251.339 842.085 261.781C849.907 267.003 858.17 269.667 863.568 269.667C866.102 269.667 866.102 274.888 863.568 274.888C860.704 277.339 855.306 277.339 847.374 277.339C823.136 277.339 809.806 269.667 790.857 248.888C780.17 235.782 769.484 220.118 761.551 207.331C758.687 202.109 753.289 202.109 748.001 202.109C737.204 202.109 734.67 202.109 734.67 207.331V233.331C734.67 261.782 737.204 261.782 753.289 264.552L764.085 267.003C766.95 267.003 766.95 274.888 761.551 274.888H681.018C678.153 274.888 678.153 267.003 681.018 267.003L686.416 264.552C705.035 261.782 705.035 261.782 705.035 233.331V152.88ZM734.67 181.331C734.67 191.667 737.204 191.667 756.153 191.667C780.17 191.667 793.721 181.331 793.721 155.331C793.721 134.552 780.17 119.208 753.289 119.208C737.204 119.208 734.67 119.208 734.67 129.331V181.331ZM1051.41 111.216C1051.41 119.208 1051.41 137.216 1053.94 152.88C1051.41 155.65 1046.01 155.65 1043.14 152.88C1037.75 132.101 1024.53 113.986 989.492 113.986C954.789 113.986 919.755 137.216 919.755 189.216C919.755 241.216 954.789 269.667 992.357 269.667C1029.92 269.667 1046.01 241.216 1048.54 230.88C1051.41 228.109 1056.7 228.109 1059.23 230.88C1056.7 248.888 1051.41 264.552 1046.01 272.118C1035.32 274.888 1019.13 280.109 992.357 280.109C968.009 280.109 943.992 274.888 922.509 261.781C901.136 248.888 884.941 225.659 884.941 194.437C884.941 163.216 898.272 139.986 919.755 126.88C938.704 111.216 965.475 103.65 994.891 103.65C1021.66 103.65 1046.01 111.216 1051.41 111.216ZM1295.76 191.667C1295.76 243.667 1255.33 280.109 1198.81 280.109C1137.23 280.109 1102.2 241.216 1102.2 194.437C1102.2 142.437 1142.63 103.65 1198.81 103.65C1263.48 103.65 1295.76 145.208 1295.76 191.667ZM1137.23 186.552C1137.23 225.659 1155.85 269.667 1201.68 269.667C1231.31 269.667 1260.73 248.888 1260.73 196.888C1260.73 155.65 1239.25 113.986 1196.28 113.986C1166.64 113.986 1137.23 132.101 1137.23 186.552ZM1370.9 152.88C1370.9 129.65 1370.9 121.659 1360.1 121.659L1349.42 119.208C1346.55 119.208 1346.55 111.216 1349.42 108.765H1416.29C1451.32 108.765 1491.42 113.986 1491.42 152.88C1491.42 178.88 1472.81 189.216 1456.72 194.437V199.659C1478.2 233.331 1494.29 251.659 1507.62 261.781C1515.77 267.003 1521.17 269.667 1528.99 269.667V274.888C1523.7 277.339 1518.31 277.339 1512.91 277.339C1488.89 277.339 1472.81 269.667 1456.72 248.888C1446.03 236.101 1435.24 220.437 1427.09 207.331C1424.55 202.109 1419.15 202.109 1411 202.109C1400.2 202.109 1400.2 202.109 1400.2 207.331V233.331C1400.2 261.782 1403.07 261.782 1419.15 264.552L1429.95 267.003C1432.48 267.003 1429.95 274.888 1427.09 274.888H1346.55C1344.02 274.888 1344.02 267.003 1346.55 267.003L1351.95 264.552C1368.03 261.782 1370.9 261.782 1370.9 233.331V152.88ZM1400.2 181.331C1400.2 191.667 1400.2 191.667 1421.69 191.667C1446.03 191.667 1459.25 181.331 1459.25 155.65C1459.25 134.765 1446.03 119.208 1419.15 119.208C1403.07 119.208 1400.2 119.208 1400.2 129.65V181.331ZM1577.36 147.659C1577.36 121.659 1577.36 121.659 1561.27 118.888L1555.87 116.437C1553.34 116.437 1553.34 108.445 1555.87 108.445H1687.53C1687.53 111.216 1690.06 129.331 1690.06 147.659C1690.06 150.109 1682.13 150.109 1682.13 147.659C1679.26 137.216 1676.84 131.995 1673.98 129.331C1668.58 118.888 1649.96 118.888 1639.27 118.888H1623.08C1609.53 118.888 1609.53 118.888 1609.53 131.995V173.339C1609.53 181.331 1609.53 181.331 1614.92 181.331H1633.87C1655.36 181.331 1657.89 178.56 1660.64 168.118L1663.18 160.445C1663.18 157.782 1671.44 157.782 1671.44 160.445V214.896C1671.44 217.667 1663.18 217.667 1663.18 214.896L1660.64 209.782C1657.89 196.888 1655.36 194.118 1633.87 194.118H1614.92C1609.53 194.118 1609.53 194.118 1609.53 202.109V230.56C1609.53 240.896 1609.53 253.79 1612.39 259.011C1617.79 261.782 1623.08 264.232 1647.09 264.232C1671.44 264.232 1684.66 261.782 1698.21 230.56C1700.75 227.79 1706.14 230.56 1709.01 233.011C1706.14 248.568 1700.75 269.347 1695.46 274.568H1550.48C1547.94 274.568 1545.19 266.896 1547.94 266.896L1558.74 264.232C1577.36 264.232 1577.36 261.781 1577.36 233.011V147.659Z" fill="#264E83"/>
</g>
</g>
<defs>
<clipPath id="clip0_26_97">
<rect width="1690" height="260" fill="white" transform="translate(20 20)"/>
</clipPath>
</defs>
</svg>
