<svg width="680" height="300" viewBox="0 0 680 300" fill="none" xmlns="http://www.w3.org/2000/svg">
<rect width="680" height="300" fill="white"/>
<path fill-rule="evenodd" clip-rule="evenodd" d="M614.179 140.844H589.056V42.7053H612.704V53.6921C615.659 47.0998 623.05 41.239 632.658 40.5078C648.915 39.7766 659.999 49.2972 659.999 69.8046V140.844H634.134V66.8764C634.134 58.087 634.134 50.7635 628.223 49.2972C626.005 48.5665 622.312 49.2972 619.352 51.4903C615.659 55.1541 614.179 59.549 614.179 66.8764C614.179 68.3384 614.179 140.844 614.179 140.844Z" fill="#64A8F0"/>
<path fill-rule="evenodd" clip-rule="evenodd" d="M187.049 49.2923C181.14 44.1667 173.747 40.5029 164.878 40.5029C156.014 40.5029 149.362 44.1667 142.711 49.2923C132.363 58.0821 125.716 74.1946 125.716 91.7695C125.716 110.079 132.363 125.457 142.711 134.251C149.362 139.377 156.014 143.036 164.878 143.036C173.747 143.036 181.14 139.377 187.049 134.251C198.135 125.457 204.045 110.079 204.045 91.7695C204.045 74.1946 198.135 58.0821 187.049 49.2923ZM177.443 91.7695C177.443 110.079 177.443 124.73 174.484 132.054C172.271 135.713 170.05 137.91 164.878 137.91C160.448 137.91 157.494 135.713 156.014 132.054C152.317 124.73 152.317 110.079 152.317 91.7695C152.317 74.1946 152.317 58.8129 156.014 51.4854C157.494 47.826 160.448 45.6286 164.878 45.6286C170.05 45.6286 172.271 47.826 174.484 51.4854C178.185 58.8129 177.443 74.1946 177.443 91.7695Z" fill="#64A8F0"/>
<path fill-rule="evenodd" clip-rule="evenodd" d="M444.951 178.203V204.567H439.782C436.826 193.585 432.391 184.064 420.57 183.329C413.179 182.598 406.526 186.993 405.784 193.585C405.046 200.173 407.264 206.034 420.57 213.357C437.564 222.878 450.866 227.272 450.866 247.049C450.866 268.287 432.391 278.543 416.872 278.543C410.219 278.543 387.309 278.543 387.309 278.543V241.919H392.487C396.184 260.964 402.095 272.682 416.134 273.413C425 273.413 431.649 268.287 431.649 258.767C431.649 249.246 425.738 243.385 411.699 235.327C396.184 225.806 386.571 219.949 386.571 206.765C386.571 189.186 399.139 178.203 419.09 178.203C425.738 178.203 444.951 178.203 444.951 178.203Z" fill="#64A8F0"/>
<path fill-rule="evenodd" clip-rule="evenodd" d="M477.471 140.848V69.8093C477.471 49.3019 466.383 39.7813 450.126 40.5125C439.042 41.2437 432.393 48.5712 429.434 54.428C425.74 44.1763 417.612 39.7813 405.786 40.5125C396.186 41.2437 388.791 47.1045 385.836 53.6968V42.71H362.93V140.848H388.053C388.053 140.848 388.053 69.0786 388.053 66.8811C388.053 59.5537 388.791 55.1588 393.226 51.495C396.186 49.3019 399.142 48.5712 401.355 49.3019C407.266 50.7682 407.266 58.0917 407.266 66.8811V140.848H432.393V66.1499C432.393 59.5537 433.869 55.1588 437.566 51.495C440.522 49.3019 443.477 48.5712 445.695 49.3019C451.606 50.7682 452.343 58.0917 452.343 66.8811V140.848H477.471Z" fill="#64A8F0"/>
<path fill-rule="evenodd" clip-rule="evenodd" d="M221.044 22.1973H246.908V140.843H221.044V22.1973Z" fill="#64A8F0"/>
<path fill-rule="evenodd" clip-rule="evenodd" d="M338.544 140.843V22.1973H312.676V50.0278C310.463 44.9021 305.287 41.2384 297.898 41.2384C279.423 41.2384 264.641 60.2795 263.903 89.5763C263.166 109.353 269.817 142.309 295.68 142.309C306.024 142.309 311.938 136.452 314.155 131.322V140.843H338.544ZM308.242 50.7629C313.418 58.0864 313.418 75.6609 313.418 89.5763C313.418 104.223 314.155 123.268 308.242 131.322C306.024 134.255 303.812 135.717 300.115 135.717C294.943 135.717 291.984 129.86 290.509 120.34C289.767 111.55 289.767 100.563 289.767 88.8452C289.767 69.0733 291.246 47.0992 300.853 47.0992C304.549 47.0992 306.024 48.5659 308.242 50.7629Z" fill="#64A8F0"/>
<path fill-rule="evenodd" clip-rule="evenodd" d="M554.324 45.6286C560.972 49.2923 565.407 55.1492 565.407 68.3334V140.839H541.022V129.856C538.067 137.91 529.938 143.036 518.85 143.036C509.984 143.036 494.464 138.646 494.464 115.941C494.464 94.6977 508.508 90.3076 524.027 83.7152C538.067 77.8584 539.542 77.1189 539.542 71.2621C539.542 66.1403 539.542 61.7415 539.542 55.1492C539.542 48.5616 535.853 45.6286 528.458 45.6286C525.503 46.3598 520.33 47.826 520.33 51.4854C519.588 55.8847 524.761 55.8847 525.503 62.4766C526.241 72.7284 518.112 76.3877 510.726 75.6566C505.548 75.6566 499.637 72.7284 498.9 64.6741C498.162 51.4854 512.939 40.5029 533.631 40.5029C543.24 40.5029 549.15 42.7004 554.324 45.6286ZM539.542 82.2489L531.414 87.3746C523.285 92.5046 521.805 99.0926 521.067 106.42C520.33 112.277 520.33 117.407 521.067 126.192C521.805 134.251 526.983 135.713 531.414 134.251C536.591 132.054 539.542 122.533 539.542 112.277C539.542 112.277 539.542 85.9127 539.542 82.2489Z" fill="#64A8F0"/>
<path fill-rule="evenodd" clip-rule="evenodd" d="M188.529 182.598C195.18 186.993 198.872 192.119 198.872 205.299V278.543H175.226V267.556C172.271 274.879 164.144 280.005 153.054 280.005C143.448 280.005 128.666 276.341 128.666 253.641C128.666 232.402 142.711 228.008 157.493 221.415C172.271 214.823 173.746 214.092 173.746 208.962C173.746 203.837 173.746 199.442 173.746 192.85C173.746 185.526 170.05 182.598 162.665 183.329C159.706 183.329 154.534 184.795 154.534 188.455C153.796 193.585 158.968 193.585 159.706 200.173C160.448 209.697 152.317 213.357 144.928 213.357C139.756 212.626 133.842 209.697 133.1 201.639C132.362 189.186 147.145 178.203 167.837 178.203C177.443 178.203 183.352 179.669 188.529 182.598ZM173.746 219.218L165.62 224.344C157.493 229.47 156.014 236.062 155.272 243.385C154.534 249.246 154.534 255.103 155.272 263.161C155.272 271.951 160.448 273.413 164.878 271.216C170.792 269.018 173.746 260.233 173.746 249.246C173.746 249.246 173.746 222.878 173.746 219.218Z" fill="#64A8F0"/>
<path fill-rule="evenodd" clip-rule="evenodd" d="M367.361 207.499C367.361 186.991 356.277 176.735 340.019 178.201C331.892 178.932 325.241 182.596 321.544 187.722V159.16H296.418V226.54C296.418 251.442 278.685 274.878 260.948 274.142C248.383 274.142 245.428 264.622 243.953 254.37C241.736 239.72 241.736 222.876 243.211 204.566C244.69 192.848 247.645 183.327 256.514 183.327C263.165 183.327 263.903 187.722 260.948 190.65C257.989 194.314 253.559 197.974 255.776 206.032C257.989 214.822 272.03 216.284 278.685 209.696C283.857 203.835 283.12 194.314 279.423 188.453C274.988 181.13 267.599 178.201 256.514 178.201C242.473 178.201 215.872 190.65 215.872 230.203C215.872 272.68 243.211 280.003 258.731 280.003C276.468 280.003 291.984 264.622 296.418 252.173V278.541H321.544V204.566C321.544 197.242 323.024 192.848 326.716 189.184C329.675 186.991 333.368 186.256 335.585 186.991C341.498 188.453 341.498 195.776 341.498 204.566V278.541H367.361V207.499Z" fill="#64A8F0"/>
<path fill-rule="evenodd" clip-rule="evenodd" d="M108.716 20V61.746H103.544C99.11 41.2386 89.5038 25.8568 76.201 25.1257C67.3321 24.3945 62.1647 29.5206 57.7259 36.848C53.2959 45.6331 51.0747 63.9435 51.0747 85.9171C51.0747 106.425 51.8164 121.802 54.0336 132.789C55.5087 137.915 59.2054 145.973 68.8116 145.973C73.9838 145.973 77.6804 144.507 79.8977 141.579C83.5943 137.184 84.3317 128.394 84.3317 122.537C84.3317 113.017 84.3317 110.084 84.3317 102.761C84.3317 95.4377 82.1144 91.0428 78.4177 88.8453C75.4632 87.3791 71.0288 87.3791 68.8116 86.6483V81.5222H110.196V186.253H105.02C102.807 178.199 101.327 172.337 97.6345 165.745C93.9378 159.157 87.2866 151.834 76.201 151.834C64.3776 151.099 55.5087 158.426 55.5087 169.409C55.5087 184.06 64.3776 187.719 80.635 196.505C96.1551 205.294 116.105 212.621 116.105 238.254C116.105 263.157 94.6756 278.539 70.2915 278.539C65.1149 278.539 31.1246 278.539 31.1246 278.539V228.003H36.2963C42.948 266.085 59.2054 272.677 70.2915 272.677C84.3316 272.677 90.9789 263.888 90.9789 251.439C90.2412 235.322 79.1599 229.465 63.6398 221.411C41.4729 208.958 31.1246 203.096 31.1246 182.593C31.8623 165.014 45.9069 154.027 61.4226 149.637C28.9073 145.973 19.3012 116.681 20.0389 85.1816C20.0389 53.6917 38.5135 20 74.7211 20C90.9789 20 108.716 20 108.716 20Z" fill="#64A8F0"/>
</svg>
