<svg width="1010" height="300" viewBox="0 0 1010 300" fill="none" xmlns="http://www.w3.org/2000/svg">
<rect width="1010" height="300" fill="white"/>
<g clip-path="url(#clip0_26_176)">
<path d="M410.077 20H150.229V280H410.077V20Z" fill="white"/>
<path d="M540 150.306L410.077 20V280.306L540 150.306Z" fill="#DB0011"/>
<path d="M280.153 150.306L410.077 20H150.229L280.153 150.306Z" fill="#DB0011"/>
<path d="M20 150.306L150.229 280.306V20L20 150.306Z" fill="#DB0011"/>
<path d="M280.153 150.306L150.229 280.306H410.077L280.153 150.306Z" fill="#DB0011"/>
<path d="M654.027 157.953H606.949V204.447H583.41V95.553H606.949V140.212H654.027V95.553H677.566V204.447H654.027V157.953Z" fill="black"/>
<path d="M734.427 206.588C710.888 206.588 691.628 197.106 691.323 171.106H714.862C715.168 182.73 721.893 189.765 734.733 189.765C744.209 189.765 755.215 184.871 755.215 174.165C755.215 165.6 747.878 163.153 735.65 159.482L727.701 157.341C710.582 152.447 693.463 145.718 693.463 126.141C693.463 101.977 716.085 93.7178 736.567 93.7178C757.66 93.7178 776.002 101.059 776.308 125.224H752.769C751.852 115.435 746.043 109.624 735.038 109.624C726.173 109.624 717.613 114.212 717.613 124C717.613 131.953 724.95 134.4 740.235 139.294L749.406 142.047C768.054 147.859 779.976 154.282 779.976 172.635C779.671 197.106 755.826 206.588 734.427 206.588Z" fill="black"/>
<path d="M793.122 95.8589H831.029C838.06 95.553 845.397 95.8589 852.428 97.0824C865.573 100.141 875.661 108.706 875.661 123.388C875.661 137.459 866.796 144.494 853.956 147.859C868.63 150.612 879.635 157.953 879.635 174.165C879.635 198.941 855.179 204.447 836.226 204.447H793.427L793.122 95.8589ZM831.029 141.129C841.423 141.129 852.122 138.988 852.122 126.447C852.122 115.129 842.34 112.071 832.557 112.071H816.049V141.129H831.029ZM833.169 188.235C844.174 188.235 854.874 185.788 854.874 172.329C854.874 158.871 845.702 156.424 834.391 156.424H815.744V188.235H833.169Z" fill="black"/>
<path d="M940.776 206.588C905.62 206.588 890.029 184.259 890.029 150.918C890.029 117.577 907.454 93.4119 941.999 93.4119C963.704 93.4119 984.797 103.2 985.408 127.671H960.952C959.729 116.659 952.393 111.153 941.999 111.153C920.6 111.153 914.18 134.094 914.18 151.53C914.18 168.965 920.599 189.153 941.082 189.153C951.781 189.153 959.729 183.341 961.258 172.33H985.714C983.269 197.412 963.398 206.588 940.776 206.588Z" fill="black"/>
</g>
<defs>
<clipPath id="clip0_26_176">
<rect width="965.714" height="260" fill="white" transform="translate(20 20)"/>
</clipPath>
</defs>
</svg>
