<svg width="1170" height="300" viewBox="0 0 1170 300" fill="none" xmlns="http://www.w3.org/2000/svg">
<rect width="1170" height="300" fill="white"/>
<path d="M133.954 29.6572H67.6418V35.4391H89.1405V153.17C89.1405 188.876 80.1846 198.521 59.5827 198.521C47.0399 198.521 44.3497 187.91 44.3497 183.082C44.3497 170.54 43.453 161.861 32.6922 161.861C21.9429 161.861 20.1609 173.437 20.1609 177.3C20.1609 193.705 27.3233 206.247 56.8925 206.247C92.7389 206.247 111.547 193.705 111.547 150.285V35.4267H133.057V29.6572H133.954ZM142.922 179.219C139.335 179.219 135.748 180.21 133.954 183.082C131.264 185.979 130.367 188.876 130.367 192.739C130.367 196.577 131.264 199.487 133.954 202.396C136.644 205.281 139.335 206.234 142.922 206.234C146.497 206.234 149.187 205.269 151.877 202.396C154.568 199.499 155.464 196.577 155.464 192.739C155.464 188.876 154.568 185.979 151.877 183.082C149.187 180.185 146.497 179.219 142.91 179.219H142.922ZM289.871 179.219C286.284 179.219 283.594 180.21 280.904 183.082C278.225 185.979 277.328 188.876 277.328 192.739C277.328 196.577 278.225 199.487 280.904 202.396C283.594 205.281 286.284 206.234 289.871 206.234C293.458 206.234 297.033 205.269 298.838 202.396C301.517 199.487 302.414 196.577 302.414 192.739C302.414 188.876 301.517 185.979 298.827 183.082C296.137 180.185 293.458 179.219 289.86 179.219H289.871ZM243.264 29.6572H178.745V35.4391H197.565V170.552C197.565 181.163 196.668 184.048 195.771 186.945C194.875 190.82 192.184 192.751 187.701 194.683C185.022 195.649 180.538 196.602 174.261 196.602V202.396H244.161V196.602C237.883 196.602 233.411 195.649 230.71 194.683C226.237 192.751 223.547 189.854 222.662 186.957C221.466 183.568 220.854 179.972 220.857 176.347V130.005H237.883C288.066 130.005 302.402 108.784 302.402 79.8248C302.402 49.9124 294.343 29.6572 243.264 29.6572ZM234.297 123.257H220.857V36.4048H232.515C271.04 36.4048 279.996 53.7753 279.996 80.7905C279.996 108.771 264.774 123.257 234.297 123.257ZM509.399 185.979C508.217 182.252 507.611 178.341 507.605 174.403V35.4391H524.62V29.6572H483.428C482.531 31.5886 434.153 160.895 434.153 160.895L433.257 161.873C432.36 161.873 432.36 161.873 432.36 160.908C432.36 160.908 380.395 30.6229 380.395 29.6572H334.662V35.4514H354.378V182.129C354.378 185.038 353.482 187.935 351.688 190.82C349.895 193.717 347.205 195.649 344.514 196.602C342.721 197.592 339.146 197.592 335.547 197.592V203.362H380.361V197.568C376.774 197.568 374.98 196.602 372.302 196.602C368.715 195.636 366.921 193.705 365.128 190.808C363.334 188.876 362.438 185.979 362.438 182.129L361.541 169.574V53.7629H364.231C364.231 53.7629 422.473 200.44 423.37 202.371H427.853L483.405 54.741H485.198V174.403C485.198 179.231 484.302 183.082 483.405 186.945C482.508 190.808 479.829 192.739 476.242 194.67C472.488 196.011 468.551 196.66 464.596 196.59V202.384H527.322V196.59C523.363 196.661 519.422 196.012 515.664 194.67C512.986 192.739 510.295 189.842 509.399 185.979ZM594.519 75.9743C560.467 75.9743 539.865 100.092 539.865 141.593C539.865 203.35 584.667 207.212 593.623 207.212C612.443 207.212 648.289 194.67 648.289 140.64C648.289 98.1734 624.985 75.9743 594.519 75.9743ZM593.623 199.487C568.537 199.487 564.053 185.991 564.053 142.559C564.053 108.784 565.847 83.6876 593.623 83.6876C623.192 83.6876 623.192 109.737 623.192 140.615C623.192 184.048 616.03 199.487 593.623 199.487ZM736.112 77.9057C716.383 77.9057 709.232 90.4476 703.841 103.955H702.047C702.047 103.955 699.368 84.6533 698.472 79.8248H659.038V86.5848H680.537V171.506C680.537 180.185 679.652 185.991 677.87 189.83C676.065 193.705 670.684 196.59 662.625 196.59H659.038V204.315H725.351V196.59H721.764C712.796 196.59 709.232 194.67 707.416 190.808C705.634 186.945 704.737 181.15 704.737 172.471V126.154C704.737 111.669 715.487 94.3105 728.041 94.3105C741.48 94.3105 740.572 115.531 755.817 106.852C762.991 102.024 761.197 77.9057 736.112 77.9057ZM996.854 189.83C989.681 189.83 987.899 185.991 987.002 178.266V110.715C987.002 99.1267 985.197 92.3791 978.943 85.6067C972.666 78.8591 961.008 75.9495 943.993 75.9495C927.863 75.9495 916.217 78.8591 908.147 85.6067C900.984 91.4133 897.409 97.1953 897.409 105.887C897.409 109.725 898.306 112.634 900.088 113.6C901.881 115.531 904.571 116.497 907.25 116.497C913.516 116.497 917.114 112.659 918.896 103.955C919.816 97.1953 921.586 93.3448 924.288 89.4695C927.852 85.6314 933.255 83.6876 939.509 83.6876C947.58 83.6876 953.846 85.6067 956.536 90.4353C959.226 95.2638 961.019 101.058 961.019 108.759V129.039C940.395 130.97 890.223 135.787 892.914 176.322C893.81 191.761 906.365 206.234 923.38 206.234C942.2 206.234 953.834 194.67 961.893 185.967C962.801 194.658 970.861 205.281 984.312 205.281C999.533 205.281 1008.5 197.555 1009.41 177.288H1005.82C1005.82 185.013 1001.34 189.842 996.854 189.842V189.83ZM962.813 176.334V177.3L961.916 178.266C951.167 188.889 942.211 192.751 935.934 192.751C919.804 192.751 917.114 178.266 917.114 171.518C917.114 148.366 946.683 136.777 962.813 136.777V176.334ZM1131.27 188.876C1129.48 185.026 1126.79 179.219 1126.79 170.552V114.566C1126.79 106.852 1125.89 99.1267 1123.2 94.3105C1120.51 88.5162 1116.04 84.6534 1111.56 81.7562C1106.18 78.8591 1100.81 77.9057 1094.54 77.9057C1071.24 77.9057 1062.27 93.3448 1056.9 102.024H1055.11L1050.62 79.8248H1014.78V86.5848H1032.71V171.506C1032.71 178.266 1031.8 183.082 1030.91 185.991C1030 189.83 1027.34 192.739 1024.64 193.705C1022.85 194.67 1019.26 195.636 1014.78 195.636V203.35H1071.23V195.636C1065.85 194.67 1061.36 193.705 1059.58 190.808C1057.79 187.91 1056 182.116 1056 173.437V140.628C1056 127.132 1056 113.6 1060.49 105.887C1064.96 97.1953 1073.92 92.3791 1082.88 92.3791C1091.85 92.3791 1096.32 95.2762 1099.02 101.058C1101.7 105.887 1102.59 120.36 1102.59 130.005V170.54C1102.59 177.288 1103.51 182.116 1102.59 185.026C1101.7 188.864 1100.81 191.773 1098.1 193.692C1096.32 195.636 1092.72 195.636 1089.15 196.59V204.315H1143.83V196.59C1137.54 193.705 1133.07 191.761 1131.27 188.876ZM875.002 70.18C871.415 71.1457 869.622 75.0086 867.828 79.8372C866.931 84.6657 865.138 87.5505 862.448 88.5038C859.757 89.4819 857.079 89.4819 854.389 87.5505C848.123 81.7562 837.362 75.0086 817.645 75.0086C785.386 75.0086 771.946 99.1267 771.946 121.313C771.946 147.375 780.914 159.93 801.504 164.746C802.412 164.746 802.412 166.677 801.504 166.677C784.489 170.54 768.36 176.334 768.36 193.705C768.36 204.328 773.74 210.11 781.811 213.972C789.858 217.823 801.504 219.767 815.852 219.767C828.383 219.767 837.351 220.732 842.731 220.732C848.132 221.482 853.324 223.457 857.964 226.527C861.551 229.424 863.344 234.252 863.344 240.022C863.344 248.713 858.861 254.508 850.802 260.302C842.754 265.131 832.867 267.062 819.439 267.062C808.69 267.062 798.837 266.084 790.766 260.302C784.501 256.439 783.593 248.726 784.501 242.931C785.409 237.137 783.593 231.355 777.327 229.424C775.421 228.971 773.429 229.197 771.652 230.068C769.876 230.939 768.409 232.407 767.474 234.252C765.669 237.125 764.773 240.988 764.773 245.816C764.773 260.29 775.533 267.037 783.592 269.934C796.135 273.785 804.217 274.763 814.955 274.763C830.2 274.763 841.834 271.866 850.802 268.003C859.769 263.174 865.149 257.392 868.725 250.632C872.3 243.885 874.105 237.125 874.105 230.365C874.105 221.686 872.3 213.96 868.725 209.144C857.079 192.739 840.938 194.658 805.103 192.739C788.076 192.739 784.489 188.876 784.489 183.082C784.489 174.403 790.766 171.506 815.852 166.677C840.938 162.814 864.23 152.204 864.23 120.36C864.23 110.703 862.448 102.99 859.746 97.2076C865.138 98.161 869.622 98.161 874.094 97.2076C879.486 95.2762 882.153 92.3791 883.958 89.4819C885.751 85.6191 886.636 81.7562 884.855 78.8591C885.751 71.1457 881.268 68.2486 875.002 70.18ZM818.554 160.895C803.332 160.895 795.25 155.089 795.25 122.291C795.25 99.1391 802.424 81.7562 818.554 81.7562C837.374 81.7562 842.743 97.1953 842.743 121.326C842.743 156.067 832.89 160.895 818.554 160.895Z" fill="#54301A"/>
</svg>
