<svg width="1400" height="300" viewBox="0 0 1400 300" fill="none" xmlns="http://www.w3.org/2000/svg">
<rect width="1400" height="300" fill="white"/>
<g clip-path="url(#clip0_26_88)">
<path d="M21.6901 23.4667C22.7041 25.2 27.4361 26.9333 31.8301 26.9333C35.8861 26.9333 40.6181 29.36 41.6321 32.48C45.3501 42.1867 43.9981 259.2 40.2801 266.48C38.2521 269.947 33.5201 273.067 30.1401 273.067C26.4221 273.067 23.3801 274.453 23.3801 276.533C23.3801 278.613 57.1801 280 117.682 280H212.322L216.04 260.933C221.11 234.933 219.082 225.573 211.646 242.907C203.872 261.627 191.028 266.133 146.074 266.133C104.838 265.787 81.5161 262.32 77.1221 255.387C75.4321 252.613 74.0801 200.96 74.0801 140.293C74.0801 38.3733 74.4181 30.0533 80.1641 28.32C100.106 21.7333 96.7261 20.3467 59.5461 20.3467C33.8581 20 20.3381 21.3867 21.6901 23.4667Z" fill="black"/>
<path d="M307.638 154.16C286.682 211.013 266.064 260.933 262.346 265.44C258.628 269.6 251.868 273.067 247.812 273.067C243.418 273.067 239.024 274.8 238.01 276.533C236.658 278.613 248.488 280 270.796 280C303.92 279.653 305.272 279.653 296.146 274.453C284.992 268.213 284.992 268.213 301.216 220.027L311.694 189.52L345.494 190.56L379.632 191.6L394.166 229.733C401.94 250.533 407.686 270.64 406.672 273.76C404.982 279.307 408.024 280 435.74 280C455.344 280 465.822 278.613 464.47 276.533C463.456 274.453 459.062 273.067 454.668 273.067C439.796 273.067 438.106 269.6 383.35 133.36C365.436 88.2933 349.212 51.2 348.198 51.2C346.846 51.2 328.594 97.6533 307.638 154.16ZM346.846 175.307C331.974 176 319.13 175.653 318.454 174.613C316.764 172.88 331.298 125.387 340.424 103.2L345.156 91.0667L359.352 132.667L373.886 174.267L346.846 175.307Z" fill="black"/>
<path d="M746.362 155.547C725.406 212.747 705.126 262.667 701.746 266.48C698.366 269.947 691.944 273.067 687.55 273.067C683.156 273.067 678.424 274.8 677.41 276.533C676.058 278.613 687.888 280 710.196 280C742.982 279.653 744.334 279.307 735.546 274.453C724.73 268.56 725.068 267.52 740.954 220.027L751.094 189.52L784.894 190.56L819.032 191.6L833.566 229.733C841.34 250.533 847.086 270.64 846.072 273.76C844.382 279.307 847.424 280 875.478 280C906.912 280 910.63 277.92 891.026 271.333C877.506 266.827 871.422 254.347 824.102 136.827C805.512 89.68 788.95 51.2 787.598 51.2C786.246 51.2 767.656 98 746.362 155.547ZM786.246 175.307C771.374 176 758.53 175.653 757.854 174.613C756.164 172.88 770.698 125.387 779.824 103.2L784.556 91.0667L798.752 132.667L813.286 174.267L786.246 175.307Z" fill="black"/>
<path d="M500.298 76.5067C495.904 103.2 495.904 103.2 499.622 103.2C501.312 103.2 504.354 98.3467 506.72 92.4533C514.494 73.3867 521.93 70.96 582.094 69.2267L636.512 67.4933L619.95 91.4133C610.824 104.587 577.362 150 545.59 192.64C514.156 235.28 487.792 272.373 487.116 275.147C486.102 279.307 498.27 280 568.574 280H651.384L653.074 272.027C656.792 256.08 659.496 229.733 657.13 232.16C655.778 233.2 652.398 239.44 649.356 246.027C645.638 253.653 639.554 258.853 631.78 261.627C620.288 265.44 527 268.213 527 264.4C527 263.36 534.436 251.92 543.562 239.093C591.22 172.187 665.242 60.2133 663.552 57.44C662.538 56.0533 626.372 54.6666 582.77 54.6666H504.016L500.298 76.5067Z" fill="black"/>
<path d="M922.46 57.7867C922.46 59.8667 925.84 61.6 930.234 61.6C945.782 61.6 946.12 64.3733 946.12 162.48C946.12 254.693 944.092 273.067 934.628 273.067C931.924 273.067 928.544 274.8 927.53 276.533C926.178 278.613 938.346 280 961.668 280C983.976 280 996.82 278.613 995.13 276.88C993.102 275.147 988.032 273.067 983.3 272.373C973.16 270.987 970.118 258.507 970.118 214.827L969.78 186.4H994.454H1019.13L1047.52 225.227C1084.36 275.147 1091.46 280 1124.92 279.653C1149.93 279.653 1150.95 276.533 1128.3 271.68C1114.78 268.56 1103.29 257.813 1071.18 216.56L1041.1 178.08L1052.93 164.56C1085.04 128.507 1081.66 81.7067 1045.83 63.3333C1034.68 57.7867 1023.18 56.4 977.554 55.36C938.346 54.32 922.46 55.0133 922.46 57.7867ZM1008.65 68.88C1028.25 74.4267 1046.51 94.5333 1049.21 113.947C1051.91 132.32 1046.51 156.24 1037.38 165.6C1029.61 173.573 1003.92 177.733 985.666 173.92L971.47 170.8L970.456 119.84C969.78 73.7333 970.118 68.88 975.526 67.4933C986.342 64.72 994.792 65.0667 1008.65 68.88Z" fill="black"/>
<path d="M1169.2 58.1333C1169.2 59.8667 1173.59 61.6 1179.34 61.6C1185.76 61.6 1190.49 64.0267 1192.86 68.1867C1194.89 72.3467 1196.24 110.48 1196.24 167.333C1196.24 224.187 1194.89 262.32 1192.86 266.48C1190.83 270.293 1185.76 273.067 1181.03 273.067C1176.64 273.067 1171.9 274.453 1170.89 276.533C1167.17 282.427 1276.35 281.04 1296.96 274.8C1330.76 264.4 1357.13 235.28 1366.93 196.453C1373.69 171.147 1373.35 152.773 1365.58 127.813C1354.09 89.3333 1330.09 67.84 1289.53 59.1733C1264.85 53.9733 1169.2 52.9333 1169.2 58.1333ZM1293.25 77.8933C1330.09 95.5733 1346.65 128.507 1344.28 179.12C1342.26 220.373 1329.07 244.293 1300.01 259.547C1285.47 267.173 1250.32 271.68 1232.07 268.213L1219.9 265.787L1220.58 168.027L1221.59 70.2667L1233.42 68.1867C1252.01 65.0667 1274.32 68.5333 1293.25 77.8933Z" fill="black"/>
</g>
<defs>
<clipPath id="clip0_26_88">
<rect width="1352" height="260" fill="white" transform="translate(20 20)"/>
</clipPath>
</defs>
</svg>
