<svg width="1730" height="300" viewBox="0 0 1730 300" fill="none" xmlns="http://www.w3.org/2000/svg">
<rect width="1730" height="300" fill="white"/>
<g clip-path="url(#clip0_26_47)">
<path d="M1656.51 186.92L1656.14 189.297L1655.73 186.92L1618.5 75.8415H1597.2L1645.75 219.202V220.359C1642.85 234.091 1634.57 250.922 1627.03 256.207C1620.42 260.887 1613.21 261.492 1607.66 261.492C1604.99 261.492 1599.33 260.505 1596.98 259.922V277.198C1599.97 277.962 1607.08 279.353 1611.49 279.353C1621.85 279.353 1630.46 276.668 1637.79 271.128C1646.57 264.495 1656.41 247.304 1661.07 232.5L1709.49 75.8203H1688.22L1656.51 186.92Z" fill="black"/>
<path fill-rule="evenodd" clip-rule="evenodd" d="M1582.57 152.25H1487.75C1487.78 167.712 1491.45 180.818 1498.39 190.178C1505.53 199.867 1515.87 204.971 1528.23 204.971C1549.83 204.971 1559.34 190.199 1563.55 180.457L1581.02 189.159C1574.63 205.162 1559.36 222.874 1528.23 222.874C1516.24 222.874 1498.85 219.956 1485.31 206.213C1472.45 193.202 1465.47 173.612 1465.47 147.984C1465.47 124.955 1470.92 105.949 1480.76 93.129C1485.72 86.613 1492.33 81.6253 1499.51 78.2612C1506.83 74.8547 1515.23 73.1143 1524.5 73.1143C1542.31 73.1143 1555.83 77.5502 1565.41 86.7085C1576.64 97.4587 1582.57 114.916 1582.57 138.613V152.25ZM1525.04 91.0171C1501.88 91.0171 1490.23 104.802 1488.34 134.379H1561.38C1561.29 104.781 1549.9 91.0171 1525.04 91.0171Z" fill="black"/>
<path fill-rule="evenodd" clip-rule="evenodd" d="M332.563 147.867C332.563 168.709 327.022 187.504 316.972 200.854C306.186 215.18 290.819 222.736 272.498 222.736C254.187 222.736 238.811 215.191 227.994 200.854C217.944 187.525 212.433 168.709 212.433 147.867C212.433 127.014 217.944 108.188 227.994 94.8588C238.811 80.5747 254.187 72.9976 272.498 72.9976C290.819 72.9976 306.186 80.5747 316.962 94.8694C327.012 108.188 332.563 127.014 332.563 147.867ZM309.733 147.878C309.733 112.189 295.839 90.8792 272.498 90.8792C249.147 90.8792 235.212 112.189 235.212 147.878C235.212 183.556 249.157 204.876 272.498 204.876C295.829 204.876 309.723 183.556 309.733 147.878Z" fill="black"/>
<path d="M381.086 138.783C386.443 109.111 401.411 95.0815 427.277 95.0815V73.9844C405.255 73.9844 392.352 82.9305 381.075 103.911L380.881 104.176L381.086 102.33V76.2129H359.35V220.444H381.086V138.783Z" fill="black"/>
<path d="M912.889 71.4375C912.981 61.8546 915.986 54.3093 921.804 49.1199C927.723 43.8244 936.199 41.1607 947.067 41.1607C958.477 41.1607 968.588 44.5672 976.348 51.0089C983.453 56.8775 988.657 65.4097 991.029 75.2154L1011.28 72.6366C1002.43 41.1819 980.662 22.0056 947.588 22.0056C931.24 22.0056 916.426 27.3011 905.916 36.9052C895.733 46.2652 890.069 59.1166 890.069 73.0823C890.069 88.4807 896.142 100.568 908.635 110.024C919.647 118.365 934.124 123.692 948.151 128.828C972.524 137.838 995.579 146.317 995.579 169.314C995.579 179.523 992.246 188.098 985.928 194.083C978.955 200.663 968.711 203.995 955.481 203.995C932.283 203.995 915.424 190.496 905.936 164.528L885.274 170.301C889.742 180.85 897.328 196.153 908.37 206.393C920.505 217.695 935.585 223.161 954.428 223.161C976.808 223.161 993.759 217.069 1004.86 205.077C1016.4 192.608 1018.81 176.668 1018.81 165.526C1018.81 149.522 1012.42 137 999.3 127.237C987.809 118.694 972.831 113.377 958.374 108.219C934.86 99.8677 912.643 91.9828 912.889 71.4375Z" fill="black"/>
<path d="M1053.19 93.6278H1032.33V75.7461H1053.19V28.5535H1074.94V75.7567H1098.29V93.6278H1074.94V192.205C1074.94 198.785 1076.42 204.865 1091 204.865C1093.4 204.865 1095.87 204.77 1098.29 204.621V220.497C1098.29 220.497 1090.06 222.747 1083.86 222.747C1074.08 222.747 1066.68 221.113 1061.72 217.664C1057.12 214.395 1053.19 209.163 1053.19 200.26C1053.19 194.158 1053.19 93.6278 1053.19 93.6278Z" fill="black"/>
<path d="M1427.79 192.205C1427.79 198.785 1429.82 204.865 1444.37 204.865C1446.79 204.865 1449.23 204.77 1451.68 204.621V220.497C1451.68 220.497 1443.44 222.747 1437.25 222.747C1427.46 222.747 1420.05 221.113 1415.11 217.664C1410.49 214.395 1406.07 209.163 1406.07 200.26V20H1427.82L1427.79 192.205Z" fill="black"/>
<path d="M743.572 113.388C750.974 105.174 767.403 91.3355 782.483 91.3355C797.584 91.3355 804.301 99.0718 804.301 116.359V220.497H826.037V115.807C826.037 84.5967 804.618 73.4751 784.344 73.4751C770.194 73.4751 755.758 81.2114 743.572 95.5486V76.2555H721.836V220.497H743.572V113.388Z" fill="black"/>
<path fill-rule="evenodd" clip-rule="evenodd" d="M618.677 223.309C607.942 222.98 598.086 219.425 590.96 212.432C583.303 204.823 577.444 194.179 577.444 181.677C577.444 164.082 586.084 151.295 599.814 142.126C612.461 133.678 629.658 129.136 655.555 126.133C660.258 125.624 662.077 124.944 662.762 124.042C663.192 123.48 663.141 121.973 663.141 121.973L663.12 116.784C663.12 99.9632 653.786 91.4203 635.301 91.4203C611.868 91.4203 603.27 107.137 600.826 113.95L583.303 104.452C589.509 92.5665 604.221 73.5493 635.035 73.5493C647.897 73.5493 659.767 77.0089 668.334 83.3338C678.742 90.9428 684.253 102.584 684.253 116.985L684.335 126.175V195.866C684.335 202.064 687.514 204.409 692.35 204.653V219.966C688.342 220.985 678.936 221.717 673.242 218.555C667.2 215.233 664.449 210.617 663.877 202.637C656.587 214.257 641.517 224.031 618.677 223.309ZM663.744 141.977C661.208 143.505 656.25 144.46 653.622 144.704C615.774 149.024 598.587 158.935 600.274 182.367C601.317 196.397 611.377 204.802 621.591 205.396C640.127 206.478 662.732 191.133 663.744 178.515V141.977Z" fill="black"/>
<path fill-rule="evenodd" clip-rule="evenodd" d="M1160.67 223.309C1149.94 222.98 1140.09 219.425 1132.98 212.432C1125.3 204.823 1119.45 194.179 1119.45 181.677C1119.45 164.082 1128.08 151.295 1141.81 142.126C1154.48 133.678 1171.65 129.136 1197.55 126.133C1202.26 125.624 1204.07 124.944 1204.76 124.042C1205.19 123.48 1205.14 121.973 1205.14 121.973L1205.12 116.784C1205.12 99.9632 1195.78 91.4203 1177.3 91.4203C1153.86 91.4203 1145.26 107.137 1142.83 113.95L1125.29 104.452C1131.5 92.5665 1146.22 73.5493 1177.04 73.5493C1189.9 73.5493 1201.74 77.0089 1210.33 83.3338C1220.74 90.9428 1226.24 102.584 1226.24 116.985L1226.33 126.175V195.866C1226.33 202.064 1229.51 204.409 1234.35 204.653V219.966C1230.34 220.985 1220.94 221.717 1215.24 218.555C1209.2 215.233 1206.44 210.617 1205.86 202.637C1198.58 214.257 1183.49 224.031 1160.67 223.309ZM1205.73 178.515V141.977C1203.2 143.505 1198.25 144.46 1195.62 144.704C1157.77 149.024 1140.57 158.935 1142.28 182.367C1143.3 196.397 1153.37 204.802 1163.58 205.396C1182.11 206.478 1204.74 191.133 1205.73 178.515Z" fill="black"/>
<path d="M102.169 181.879L56.131 24.6907H20V220.444H41.7359V41.4156L42.2062 42.0735L93.8468 220.444H110.726L162.367 42.0735L162.847 41.4156V220.444H184.583V24.6907H148.401L102.414 181.879L102.292 182.707L102.169 181.879Z" fill="black"/>
<path d="M1285.55 113.388C1292.94 105.174 1309.38 91.3355 1324.48 91.3355C1339.54 91.3355 1346.28 99.0718 1346.28 116.359V220.497H1368.02V115.807C1368.02 84.5967 1346.6 73.4751 1326.31 73.4751C1312.16 73.4751 1297.72 81.2114 1285.54 95.5486L1285.55 76.2555H1263.82V220.497H1285.55V113.388Z" fill="black"/>
<path fill-rule="evenodd" clip-rule="evenodd" d="M550.607 76.107V225.262C550.607 257.173 532.265 279.257 493.752 279.257C479.592 279.257 463.121 276.349 452.99 271.839V252.313C465.003 258.149 479.776 261.429 496.41 261.429C513.535 261.429 529.454 249.691 529.454 230.462V203.051L528.38 203.602C519.854 214.936 507.421 222.715 493.752 222.715C470.309 222.715 435.65 203.9 435.65 148.037C435.65 90.5078 470.309 73.3584 494.805 73.3584C511.327 73.3584 521.725 80.5535 529.699 91.3249L534.331 76.107H550.607ZM529.444 109.865C519.281 96.7796 508.658 91.24 496.4 91.24C472.446 91.24 458.429 110.406 458.429 146.912C458.429 190.337 474.03 204.823 496.4 204.823C507.851 204.823 523.81 195.134 529.444 178.515V109.865Z" fill="black"/>
</g>
<defs>
<clipPath id="clip0_26_47">
<rect width="1690" height="260" fill="white" transform="translate(20 20)"/>
</clipPath>
</defs>
</svg>
