<svg width="2740" height="300" viewBox="0 0 2740 300" fill="none" xmlns="http://www.w3.org/2000/svg">
<rect width="2740" height="300" fill="white"/>
<path d="M2180.47 25.551H2127.94C2136.46 40.761 2136.81 57.7261 2136.81 75.0551V131.644H2022.15V75.0551C2022.15 57.7261 2022.55 40.761 2031.04 25.551H1978.53C1987.04 40.761 1987.39 57.7261 1987.39 75.0551V224.659C1987.39 241.962 1987.04 258.94 1978.53 274.475H2031.04C2022.55 258.94 2022.15 241.962 2022.15 224.659V149.298H2136.81V224.659C2136.81 241.962 2136.46 258.94 2127.94 274.475H2180.47C2171.94 258.94 2171.59 241.962 2171.59 224.659V75.0551C2171.59 57.7261 2171.94 40.761 2180.47 25.551Z" fill="#072748"/>
<path d="M2288.47 25.551H2235.22C2243.73 38.642 2244.45 57.7261 2244.45 75.0551V224.659C2244.45 241.962 2244.11 261.397 2235.57 274.475H2287.38C2279.59 262.463 2279.24 240.909 2279.24 224.659V75.0551C2279.24 57.3751 2279.59 38.98 2288.47 25.551Z" fill="#072748"/>
<path d="M2589.05 261.565C2543.72 261.565 2545.05 258.939 2545.05 231.366V58.8559C2545.05 52.4859 2545.78 45.7647 2545.78 40.1227C2557.02 37.9777 2568.34 38.6406 2576.78 38.6406C2648.76 38.6406 2681.12 82.6069 2681.12 147.204C2681.12 210.475 2655.09 261.565 2589.05 261.565ZM2594.34 23.1059C2556.72 23.1059 2523.25 25.9789 2501.77 25.9789C2510.22 39.0699 2510.22 58.9725 2510.22 76.3145V226.66C2510.22 243.976 2510.22 261.396 2501.77 274.474C2528.51 274.474 2550.42 275.891 2589.05 275.891C2664.14 275.891 2722.24 222.474 2722.24 139.924C2722.24 66.7338 2675.62 21.7799 2594.34 23.1059Z" fill="#072748"/>
<path d="M1115.65 53.4826C1125.23 46.0726 1137.76 45.6045 1146.64 45.6045H1194.81V223.913C1194.81 241.268 1194.81 261.392 1186.28 274.47H1238.13C1229.58 261.392 1229.58 241.268 1229.58 223.913V45.6045H1272.38C1288.36 45.6045 1306.31 42.1729 1313.03 25.5459H1123.48L1115.65 53.4826Z" fill="#072748"/>
<path d="M2417.33 257.069C2439 257.069 2458.89 255.743 2478.04 237.01L2470.37 274.476H2447.17H2344.08C2353.1 262.373 2353.1 240.833 2353.1 224.713V75.043C2353.1 57.727 2352.78 38.6432 2344.2 25.5522H2396.75C2388.25 38.6432 2387.89 57.727 2387.89 75.043C2387.89 75.043 2387.98 248.346 2388.01 257.095C2392.21 257.043 2417.33 257.069 2417.33 257.069Z" fill="#072748"/>
<path d="M1792.88 143.973C1792.88 86.3697 1819.55 37.2039 1873.46 37.2039C1911.45 37.2039 1929.13 51.7248 1940.9 68.2998V24.8412C1922.81 24.8412 1908.6 20.9539 1874.53 20.9539C1794.69 20.9539 1752.44 85.3168 1752.44 153.177C1752.44 249.39 1818.1 279.03 1866.02 279.03C1909.67 279.03 1939.46 259.257 1951.91 224.599C1930.63 244.736 1905.77 255.006 1880.91 255.006C1835.49 255.006 1792.88 218.593 1792.88 143.973Z" fill="#072748"/>
<path d="M1532.39 25.551H1479.53C1488.02 40.761 1488.74 58.4282 1488.74 75.7312V131.644H1374.11V75.7312C1374.11 58.4282 1374.46 40.761 1382.97 25.551H1330.47C1338.98 40.761 1339.32 58.4282 1339.32 75.7312V223.918C1339.32 241.273 1338.98 258.94 1330.47 274.475H1382.97C1374.46 258.94 1374.11 241.273 1374.11 223.918V149.298H1488.74V223.918C1488.74 241.273 1488.02 258.94 1479.53 274.475H1532.39C1523.87 258.94 1523.52 241.273 1523.52 223.918V75.7312C1523.52 58.4282 1523.87 40.761 1532.39 25.551Z" fill="#072748"/>
<path d="M996.086 262.092C933.954 262.092 916.558 195.987 916.558 145.053C916.558 89.5298 940.362 37.9329 996.086 37.9329C1058.18 37.9329 1075.57 104.74 1075.57 155.635C1075.57 211.145 1051.78 262.092 996.086 262.092ZM999.257 20.9548C918.685 20.9548 876.103 82.484 876.103 155.635C876.103 224.236 911.964 279.031 993.241 279.031C1073.45 279.031 1116.04 218.23 1116.04 145.053C1116.04 76.4388 1080.56 20.9548 999.257 20.9548Z" fill="#072748"/>
<path d="M740.164 139.239C734.514 139.239 728.471 138.901 722.794 138.186V55.6099C722.794 49.6039 723.134 44.157 723.487 38.489C733.079 37.436 742.644 36.4736 751.519 36.4736C776.732 36.4736 796.254 46.25 796.254 82.689C796.254 115.566 777.801 139.239 740.164 139.239ZM843.105 238.403L775.661 144.907C808.535 136.002 834.596 114.629 834.596 75.0185C834.596 45.9245 811.889 19.652 760.758 21.641C735.936 22.603 712.564 24.1107 679.886 25.5277C687.703 37.5657 688.068 55.9346 688.068 72.1976V227.314C688.068 241.458 687.35 259.255 677.772 274.478H731.291C722.795 261.4 722.795 244.63 722.795 227.314V153.383C742.305 155.164 745.124 157.971 763.968 184.842L811.171 253.236C820.737 266.691 827.131 274.478 843.81 274.478H877.231C866.673 266.249 854.106 253.613 843.105 238.403Z" fill="#072748"/>
<path d="M1658.03 126.959C1624.91 108.083 1613.91 97.7865 1613.81 76.9085C1613.66 54.0935 1631.19 37.3108 1657.8 37.1678C1678.73 37.0118 1702.04 48.1394 1714.54 61.1524L1714.49 24.2459C1697.24 24.1283 1681.68 20.7354 1656.61 20.8784C1621.49 21.1259 1577.23 37.3109 1577.57 85.3979C1577.79 121.109 1604.55 139.322 1635.18 156.794C1675.08 179.492 1688.78 191.595 1688.92 216.321C1689.14 248.002 1663.59 262.679 1637.65 262.874C1597.53 263.12 1582.73 244.141 1568.77 225.135L1568.83 265.786C1587.34 273.768 1611.17 279.28 1634.57 279.124C1680.71 278.812 1725.64 256.621 1725.3 204.985C1725.02 165.231 1695.1 147.915 1658.03 126.959Z" fill="#072748"/>
<path d="M271.653 266.254C271.653 270.375 268.299 273.703 264.175 273.703H29.2458C25.1089 273.703 21.7681 270.375 21.7681 266.254V32.2275C21.7681 28.1065 25.1089 24.7786 29.2458 24.7786H264.175C268.299 24.7786 271.653 28.1065 271.653 32.2275V266.254Z" fill="#072748"/>
<path d="M181.512 54.6011L186.889 67.1586L199.626 63.4408L185.44 93.2107L177.649 94.2771L155.268 140.557L155.278 123.67L171.069 91.1045L167.063 84.423L181.512 54.6011Z" fill="white"/>
<path d="M136.496 49.2253L146.806 58.0263L156.711 49.1472L156.854 82.1417L150.381 86.3921L150.629 137.703L143.242 122.558L143.098 86.4181L136.651 82.2325L136.496 49.2253Z" fill="white"/>
<path d="M106.692 67.3904L111.664 54.949L126.385 84.6414L122.522 91.3103L145.256 137.278L131.918 126.996L115.984 94.5729L108.31 93.5726L93.5898 63.9195L106.692 67.3904Z" fill="white"/>
<path d="M197.318 202.199L205.031 198.325L157.345 161.652L184.072 215.485L189.266 208.647L191.602 239.08L168.869 218.722L177.443 218.628L150.729 164.925L151.042 224.881L158.781 221.007L147.61 249.321L136.009 221.124L143.773 224.933L143.473 164.925L117.294 218.901H125.985L103.409 239.519L105.327 209.06L110.717 215.846L136.869 161.727L89.497 198.855L97.3402 202.691L68.0295 211.257L83.233 184.79L85.0078 193.148L141.032 149.092L95.1609 113.653L87.6961 116.006L61.4521 95.9865L74.8025 93.217L73.8629 79.9314L100.133 100.159L99.4804 107.777L209.559 192.616L211.281 184.192L226.694 210.503L197.318 202.199Z" fill="white"/>
<path d="M206.129 115.458L198.652 113.144L158.013 145.007L165.53 129.901L194.071 107.372L193.458 99.7405L219.545 79.2395L218.959 92.8508L231.983 95.1778L206.129 115.458Z" fill="white"/>
<path d="M562.883 265.782C562.883 269.903 559.53 273.231 555.406 273.231H320.463C316.34 273.231 312.985 269.903 312.985 265.782V31.7559C312.985 27.6349 316.34 24.3069 320.463 24.3069H555.406C559.53 24.3069 562.883 27.6349 562.883 31.7559V265.782Z" fill="#072748"/>
<path d="M451.684 118.961C451.684 104.219 440.46 99.2143 429.211 99.2143C425.335 99.2143 418.158 99.4744 413.708 99.9424C413.459 102.581 413.316 104.505 413.316 106.949V140.489C416.017 140.827 421.838 140.827 424.552 140.827C441.726 140.827 451.684 132.299 451.684 118.961ZM472.76 197.884C465.373 197.884 462.528 194.92 458.261 189.382L436.376 160.21C427.841 148.757 423.443 148.38 413.316 148.38V178.241C413.316 184.156 413.316 191.592 417.57 197.884H395.241C399.509 191.592 399.509 184.156 399.509 178.241V111.824C399.509 104.804 397.956 98.9154 394.472 93.7414C409.479 93.1954 422.634 92.4023 433.479 92.0123C457.491 91.1543 467.2 102.828 467.2 116.062C467.2 131.987 455.572 141.646 440.539 145.962L472.368 182.752C477.393 189.018 481.634 193.308 487.389 197.884H472.76Z" fill="white"/>
</svg>
