<svg width="1400" height="300" viewBox="0 0 1400 300" fill="none" xmlns="http://www.w3.org/2000/svg">
<rect width="1400" height="300" fill="white"/>
<g clip-path="url(#clip0_26_126)">
<path d="M20 20H283.873V152.746H20V20Z" fill="#E60028"/>
<path d="M20 149.084H283.873V279.084H20V149.084Z" fill="black"/>
<path d="M65.6879 141.76H237.252V157.324H65.6879V141.76Z" fill="white"/>
<path d="M460.099 49.2958C446.113 43.8029 430.262 39.2254 417.208 39.2254C397.627 39.2254 387.371 43.8027 387.371 51.1267C387.371 72.183 475.95 55.7041 475.95 101.479C475.95 120.704 458.234 135.352 421.87 135.352C400.425 135.352 383.641 130.775 364.06 120.704L372.452 103.31C389.236 112.465 405.087 117.042 421.87 117.042C443.316 117.042 454.505 110.634 454.505 101.479C454.505 77.6759 365.925 95.9859 365.925 52.9578C365.925 34.6479 383.641 21.8311 416.276 21.8311C435.856 21.8311 451.708 26.4084 467.559 33.7323L460.099 49.2958Z" fill="black"/>
<path d="M558.935 135.352C523.503 135.352 494.598 112.465 494.598 77.6759C494.598 43.8027 523.503 20 558.935 20C594.367 20 623.271 43.8027 623.271 77.6759C622.339 112.465 594.367 135.352 558.935 135.352ZM558.935 38.3099C532.827 38.3099 516.044 55.7041 516.044 77.6759C516.044 99.6478 532.827 117.042 558.935 117.042C585.043 117.042 601.826 100.563 601.826 77.6759C601.826 55.7041 585.043 38.3099 558.935 38.3099Z" fill="black"/>
<path d="M707.188 135.352C669.892 135.352 641.919 112.465 641.919 77.6759C641.919 43.8027 669.892 20 707.188 20C728.634 20 744.485 26.4083 758.471 36.4788L747.283 52.0423C737.026 44.7183 723.972 38.3099 707.188 38.3099C680.148 38.3099 663.365 54.7888 663.365 76.7607C663.365 98.7325 680.148 115.211 707.188 115.211C723.972 115.211 737.958 109.718 747.283 102.394L758.471 117.958C745.417 128.944 728.634 135.352 707.188 135.352Z" fill="black"/>
<path d="M781.781 23.6619H802.295V132.605H781.781V23.6619Z" fill="black"/>
<path d="M832.132 131.69V23.6619H932.833V41.0562H852.646V67.6057H915.117V85.9155H852.646V114.296H936.563V131.69H832.132Z" fill="black"/>
<path d="M947.752 41.0562V23.6619H1058.71V41.0562H1013.02V131.69H992.508V41.0562H947.752Z" fill="black"/>
<path d="M1074.56 131.69V23.6619H1175.26V41.0562H1095.07V67.6057H1157.55V85.9155H1095.07V114.296H1178.99V131.69H1074.56Z" fill="black"/>
<path d="M427.465 260.774C438.654 260.774 449.843 258.028 459.167 254.366V223.239H478.747V265.352C464.761 274.507 445.18 280 426.532 280C389.236 280 361.263 257.113 361.263 222.324C361.263 188.451 389.236 164.648 426.532 164.648C447.978 164.648 463.829 170.141 477.815 181.127L466.626 196.69C456.369 189.366 443.316 183.873 426.532 183.873C399.492 182.958 382.709 200.352 382.709 222.324C382.709 244.296 399.492 260.774 427.465 260.774Z" fill="black"/>
<path d="M505.787 276.338V168.31H606.488V185.704H526.3V212.253H588.772V230.563H526.3V258.944H610.218V276.338H505.787Z" fill="black"/>
<path d="M650.312 276.338H629.798V167.395H650.312L722.108 248.873H723.04C722.107 228.733 722.108 211.338 722.108 195.775V167.395H741.688V276.338H721.175L649.379 194.859C650.312 211.338 650.312 238.803 650.312 247.958V276.338Z" fill="black"/>
<path d="M770.593 276.338V168.31H871.293V185.704H791.105V212.253H853.577V230.563H791.105V258.944H875.023V276.338H770.593Z" fill="black"/>
<path d="M950.549 236.972H917.915V277.253H897.401V168.31H968.265C991.575 168.31 1006.49 182.958 1006.49 203.098C1006.49 222.324 992.508 234.225 974.792 236.972L1007.43 277.253H981.319L950.549 236.972ZM965.468 218.662C978.521 218.662 985.981 212.253 985.981 203.098C985.981 193.028 979.454 186.62 968.265 186.62H917.915V219.577H965.468V218.662Z" fill="black"/>
<path d="M1049.38 250.704L1036.33 277.253H1013.95L1068.03 168.31H1089.48L1143.56 277.253H1121.18L1108.13 250.704H1049.38ZM1057.78 232.394H1100.67L1079.22 188.45L1057.78 232.394Z" fill="black"/>
<path d="M1159.41 276.338V168.31H1179.92V258.944H1253.58V276.338H1159.41Z" fill="black"/>
<path d="M1267.57 276.338V168.31H1368.27V185.704H1288.08V212.253H1350.55V230.563H1288.08V258.944H1372V276.338H1267.57Z" fill="black"/>
</g>
<defs>
<clipPath id="clip0_26_126">
<rect width="1352" height="260" fill="white" transform="translate(20 20)"/>
</clipPath>
</defs>
</svg>
