<svg width="609" height="635" viewBox="0 0 609 635" fill="none" xmlns="http://www.w3.org/2000/svg">
<g opacity="0.05">
<path d="M365.606 135.956C383.894 144.807 392.915 146.129 394.935 145.33C397.601 134.232 391.861 130.668 386.819 127.975C381.777 125.282 370.989 121.191 364.302 116.176C357.615 111.162 351.76 95.8042 351.76 95.8042C342.568 75.3228 318.238 66.98 318.238 66.98C331.617 52.3826 347.814 58.5562 352.652 61.1495C359.831 67.9185 367.727 61.5189 367.727 61.5189C364.139 46.1407 345.088 44.9611 335.903 44.3492C292.746 41.5786 279.977 85.4798 279.977 85.4798C271.803 104.946 252.253 121.048 252.253 121.048C252.253 121.048 250.846 138.034 260.877 129.776C269.454 122.201 287.116 104.079 289.049 102.268C290.981 100.456 314.647 90.5581 315.744 105.501C315.319 118.929 312.115 175.732 321.686 194.945C321.686 194.945 336.227 202.702 335.49 182.101C332.995 161.238 330.805 127.138 338.858 115.127C338.895 115.217 358.544 132.587 365.606 135.956Z" fill="#363636"/>
<path d="M204.71 147.545C213.242 145.555 218.552 137.056 216.571 128.563C214.59 120.07 206.068 114.798 197.535 116.789C189.003 118.779 183.693 127.277 185.674 135.771C187.655 144.264 196.178 149.535 204.71 147.545Z" fill="white"/>
<path d="M270.214 85.2082C278.746 83.218 284.057 74.7196 282.075 66.2264C280.094 57.7333 271.572 52.4616 263.04 54.4518C254.507 56.4421 249.197 64.9405 251.178 73.4337C253.159 81.9268 261.682 87.1985 270.214 85.2082Z" fill="#363636"/>
<path d="M343.209 134.137C343.209 134.137 339.793 151.477 342.122 160.05C342.122 160.05 454.192 179.487 515.377 261.455L538.92 219.893C538.92 219.893 454.001 139.412 403.207 132.356C403.207 132.356 409.236 157.281 391.272 152.929C379.622 149.941 343.209 134.137 343.209 134.137Z" fill="white"/>
<path d="M217.67 116.812C217.67 116.812 224.533 125.049 222.979 130.887C222.979 130.887 241.014 124.319 253.267 111.886C241.191 111.019 229.061 112.698 217.67 116.812Z" fill="white"/>
<path d="M178.429 128.008C178.429 128.008 174.118 149.278 189.663 151.948C189.663 151.948 165.033 178.187 163.736 178.489C162.44 178.792 18.7395 244.266 -6.21686 384.48C-10.4986 401.005 -62.6058 602.264 111.168 559.023L72.3255 392.506L148.46 374.747L186.457 537.641L235.175 517.718L180.99 285.428L256.921 267.716L305.524 476.076L345.951 449.562L287.381 198.473L362.016 181.063L411.522 393.295C411.522 393.295 511.907 300.084 549.968 234.478C549.968 234.478 478.874 398.963 294.675 519.595C294.675 519.595 191.643 586.847 71.8521 611.412C44.0814 614.513 -20.0041 633.511 -46.4648 540.41C-57.3678 493.669 -82.9696 349.034 33.7889 218.475C60.1145 194.774 79.8605 164.051 178.429 128.008Z" fill="white"/>
<path d="M238.515 155.342C238.515 155.342 273.136 137.97 293.714 109.544L306.898 106.469C306.898 106.469 308.737 152.127 309.266 155.103C309.189 155.055 256.575 158.556 238.515 155.342Z" fill="white"/>
<path d="M206.322 216.535C206.322 216.535 213.173 264.123 191.405 292.957C191.405 292.957 172.72 289.889 185.388 262.783C189.481 250.581 190.298 237.532 187.758 224.931C186.665 218.759 191.337 185.764 190.731 179.495C190.731 179.495 177.048 182.687 172.184 217.759C172.184 217.759 156.063 220.667 162.434 199.261C166.075 187.263 174.164 161.57 248.737 126.451C248.737 126.451 258.865 132.024 251.196 137.699C244.205 142.609 213.653 154.9 217.741 190.573L218.728 194.803C218.728 194.803 220.304 198.665 236.102 195.144C240.629 194.924 248.935 194.167 256.294 211.879C263.035 224.816 269.35 232.967 264.839 241.447C261.413 243.426 254.69 249.552 237.793 211.292L206.322 216.535Z" fill="white"/>
</g>
</svg>
