<svg width="1155" height="332" viewBox="0 0 " fill="none" xmlns="http://www.w3.org/2000/svg">
<g opacity="0.2">
<mask id="mask0_1_892" style="mask-type:alpha" maskUnits="userSpaceOnUse" x="0" y="0" width="1155" height="332">
<rect width="1155" height="332" rx="10" fill="url(#paint0_linear_1_892)"/>
</mask>
<g mask="url(#mask0_1_892)">
<g opacity="0.12">
<path d="M192.838 76.9004L190.408 81.1875L196.124 84.4743V78.7581L192.838 76.9004Z" fill="#0567AC"/>
<path d="M190.265 100.764L196.124 104.194V98.4774L192.694 96.4767L190.265 100.764Z" fill="#0567AC"/>
<path d="M190.265 120.486L196.124 123.916V118.2L192.694 116.199L190.265 120.486Z" fill="#0567AC"/>
<path d="M190.265 140.207L196.124 143.637V137.778L192.694 135.92L190.265 140.207Z" fill="#0567AC"/>
<path d="M189.694 165.928L196.124 162.212V156.496L179.69 165.928H189.694Z" fill="#0567AC"/>
<path d="M81.2292 73.041H76.2275V156.211H81.2292V73.041Z" fill="#0567AC"/>
<path d="M98.3776 63.1797H93.376V166.07H98.3776V63.1797Z" fill="#0567AC"/>
<path d="M115.384 53.6055H110.383V166.071H115.384V53.6055Z" fill="#0567AC"/>
<path d="M132.388 43.4609H127.387V166.072H132.388V43.4609Z" fill="#0567AC"/>
<path d="M149.537 53.6055H144.535V166.071H149.537V53.6055Z" fill="#0567AC"/>
<path d="M166.544 63.1797H161.542V166.07H166.544V63.1797Z" fill="#0567AC"/>
<path d="M183.692 73.041H178.69V156.211H183.692V73.041Z" fill="#0567AC"/>
<path d="M50.9336 161.07L59.5078 165.929H69.3682L53.5058 156.783L50.9336 161.07Z" fill="#0567AC"/>
<path d="M131.246 0.445995L196.124 -36.9948V-42.7109L128.674 -3.84112L131.246 0.445995Z" fill="#0567AC"/>
<path d="M131.246 20.1667L196.124 -17.2741V-22.9902L128.674 15.8796L131.246 20.1667Z" fill="#0567AC"/>
<path d="M131.246 39.8872L196.124 2.44637V-3.26978L128.674 35.6L131.246 39.8872Z" fill="#0567AC"/>
<path d="M147.965 49.891L196.124 22.1676V16.3086L145.536 45.6039L147.965 49.891Z" fill="#0567AC"/>
<path d="M164.828 59.7494L196.124 41.7435V36.0273L162.398 55.4623L164.828 59.7494Z" fill="#0567AC"/>
<path d="M182.12 69.6117L196.124 61.4662V55.75L179.69 65.3246L182.12 69.6117Z" fill="#0567AC"/>
<path d="M36.2705 -52.4777L33.7697 -48.1463L122.873 3.29905L125.374 -1.03236L36.2705 -52.4777Z" fill="#0567AC"/>
<path d="M19.3231 -42.6009L16.8223 -38.2695L122.88 22.9647L125.381 18.6333L19.3231 -42.6009Z" fill="#0567AC"/>
<path d="M2.30453 -32.642L-0.196289 -28.3105L122.816 42.7126L125.317 38.3812L2.30453 -32.642Z" fill="#0567AC"/>
<path d="M2.18734 -13.0033L-0.313477 -8.67188L105.992 52.7053L108.493 48.3739L2.18734 -13.0033Z" fill="#0567AC"/>
<path d="M2.24691 6.73499L-0.253906 11.0664L88.9732 62.5832L91.474 58.2518L2.24691 6.73499Z" fill="#0567AC"/>
<path d="M2.18148 26.3756L-0.319336 30.707L71.7059 72.292L74.2067 67.9606L2.18148 26.3756Z" fill="#0567AC"/>
<path d="M9.8356 44.5356L-61.8184 85.9062L-59.3175 90.2377L12.3364 48.867L9.8356 44.5356Z" fill="#0567AC"/>
<path d="M26.9428 54.3382L-61.9131 105.641L-59.4123 109.972L29.4436 58.6696L26.9428 54.3382Z" fill="#0567AC"/>
<path d="M44.1612 64.0646L-61.8965 125.299L-59.3957 129.63L46.6621 68.396L44.1612 64.0646Z" fill="#0567AC"/>
<path d="M61.1773 74.0199L-61.8348 145.043L-59.334 149.375L63.6781 78.3513L61.1773 74.0199Z" fill="#0567AC"/>
<path d="M61.2046 93.7381L-45.1006 155.115L-42.5998 159.447L63.7055 98.0695L61.2046 93.7381Z" fill="#0567AC"/>
<path d="M61.3659 113.34L-28.0918 164.928L-27.5202 165.928H-19.9463L63.7953 117.627L61.3659 113.34Z" fill="#0567AC"/>
<path d="M61.3662 133.061L4.34766 165.928H14.208L63.7956 137.348L61.3662 133.061Z" fill="#0567AC"/>
<path d="M573.962 76.9004L571.39 81.1875L577.106 84.4743V78.7581L573.962 76.9004Z" fill="#0567AC"/>
<path d="M571.39 100.764L577.106 104.194V98.4774L573.819 96.4767L571.39 100.764Z" fill="#0567AC"/>
<path d="M571.39 120.486L577.106 123.916V118.2L573.819 116.199L571.39 120.486Z" fill="#0567AC"/>
<path d="M571.39 140.207L577.106 143.637V137.778L573.819 135.92L571.39 140.207Z" fill="#0567AC"/>
<path d="M570.676 165.928L577.106 162.212V156.496L560.815 165.928H570.676Z" fill="#0567AC"/>
<path d="M462.354 73.041H457.353V156.211H462.354V73.041Z" fill="#0567AC"/>
<path d="M479.361 63.1797H474.359V166.07H479.361V63.1797Z" fill="#0567AC"/>
<path d="M496.509 53.6055H491.508V166.071H496.509V53.6055Z" fill="#0567AC"/>
<path d="M513.513 43.4609H508.512V166.072H513.513V43.4609Z" fill="#0567AC"/>
<path d="M530.662 53.6055H525.66V166.071H530.662V53.6055Z" fill="#0567AC"/>
<path d="M547.669 63.1797H542.667V166.07H547.669V63.1797Z" fill="#0567AC"/>
<path d="M564.674 73.041H559.673V156.211H564.674V73.041Z" fill="#0567AC"/>
<path d="M432.059 161.07L440.49 165.929H450.493L434.488 156.783L432.059 161.07Z" fill="#0567AC"/>
<path d="M305.875 163.07H300.873V166.071H305.875V163.07Z" fill="#0567AC"/>
<path d="M323.023 152.924H318.022V166.071H323.023V152.924Z" fill="#0567AC"/>
<path d="M340.029 163.07H335.027V166.071H340.029V163.07Z" fill="#0567AC"/>
<path d="M244.027 47.36L241.526 51.6914L313.428 93.2049L315.929 88.8735L244.027 47.36Z" fill="#0567AC"/>
<path d="M226.762 57.0455L224.261 61.377L313.364 112.822L315.865 108.491L226.762 57.0455Z" fill="#0567AC"/>
<path d="M209.814 66.9205L207.313 71.252L313.371 132.486L315.872 128.155L209.814 66.9205Z" fill="#0567AC"/>
<path d="M315.878 147.923L196.125 78.7578V84.474L313.449 152.21L315.878 147.923Z" fill="#0567AC"/>
<path d="M299.159 157.925L196.125 98.4766V104.193L296.586 162.212L299.159 157.925Z" fill="#0567AC"/>
<path d="M196.125 123.915L269.006 165.929H279.009L196.125 118.199V123.915Z" fill="#0567AC"/>
<path d="M196.125 143.636L234.852 165.929H244.855L196.125 137.777V143.636Z" fill="#0567AC"/>
<path d="M200.412 154.068L196.125 156.498V162.214L202.841 158.355L200.412 154.068Z" fill="#0567AC"/>
<path d="M213.846 165.929H218.847L217.561 163.785L213.846 165.929Z" fill="#0567AC"/>
<path d="M512.228 0.445995L577.106 -36.9948V-42.7109L509.799 -3.84112L512.228 0.445995Z" fill="#0567AC"/>
<path d="M512.228 20.1667L577.106 -17.2741V-22.9902L509.799 15.8796L512.228 20.1667Z" fill="#0567AC"/>
<path d="M512.228 39.8872L577.106 2.44637V-3.26978L509.799 35.6L512.228 39.8872Z" fill="#0567AC"/>
<path d="M529.091 49.891L577.106 22.1676V16.3086L526.519 45.6039L529.091 49.891Z" fill="#0567AC"/>
<path d="M545.953 59.7494L577.106 41.7435V36.0273L543.523 55.4623L545.953 59.7494Z" fill="#0567AC"/>
<path d="M563.244 69.6117L577.106 61.4662V55.75L560.672 65.3246L563.244 69.6117Z" fill="#0567AC"/>
<path d="M417.372 -52.5111L414.871 -48.1797L503.974 3.26566L506.475 -1.06575L417.372 -52.5111Z" fill="#0567AC"/>
<path d="M400.351 -42.5091L397.851 -38.1777L503.908 23.0565L506.409 18.7251L400.351 -42.5091Z" fill="#0567AC"/>
<path d="M383.404 -32.6749L380.903 -28.3435L503.916 42.6797L506.416 38.3482L383.404 -32.6749Z" fill="#0567AC"/>
<path d="M383.29 -13.0345L380.789 -8.70312L487.094 52.674L489.595 48.3426L383.29 -13.0345Z" fill="#0567AC"/>
<path d="M383.349 6.70374L380.849 11.0352L470.076 62.552L472.577 58.2206L383.349 6.70374Z" fill="#0567AC"/>
<path d="M383.283 26.3427L380.782 30.6741L452.807 72.2591L455.308 67.9277L383.283 26.3427Z" fill="#0567AC"/>
<path d="M390.821 44.5825L319.167 85.9531L321.668 90.2845L393.322 48.9139L390.821 44.5825Z" fill="#0567AC"/>
<path d="M408.051 54.3147L319.195 105.617L321.696 109.949L410.552 58.6461L408.051 54.3147Z" fill="#0567AC"/>
<path d="M425.277 64.0587L319.219 125.293L321.72 129.624L427.777 68.3901L425.277 64.0587Z" fill="#0567AC"/>
<path d="M442.286 73.9962L319.273 145.019L321.774 149.351L444.786 78.3276L442.286 73.9962Z" fill="#0567AC"/>
<path d="M442.315 93.7185L336.01 155.096L338.511 159.427L444.816 98.05L442.315 93.7185Z" fill="#0567AC"/>
<path d="M442.348 113.34L352.891 164.928L353.462 165.928H361.179L444.921 117.627L442.348 113.34Z" fill="#0567AC"/>
<path d="M442.349 133.061L385.33 165.928H395.333L444.921 137.348L442.349 133.061Z" fill="#0567AC"/>
<path d="M271.864 -36.4237H266.862V46.7463H271.864V-36.4237Z" fill="#0567AC"/>
<path d="M288.87 -46.2832H283.868V56.7504H288.87V-46.2832Z" fill="#0567AC"/>
<path d="M305.875 -53H300.873V66.3246H305.875V-53Z" fill="#0567AC"/>
<path d="M323.023 -53H318.022V76.185H323.023V-53Z" fill="#0567AC"/>
<path d="M340.029 -53H335.027V66.3246H340.029V-53Z" fill="#0567AC"/>
<path d="M357.177 -46.2832H352.176V56.7504H357.177V-46.2832Z" fill="#0567AC"/>
<path d="M374.183 -36.4237H369.181V46.7463H374.183V-36.4237Z" fill="#0567AC"/>
<path d="M251.715 -35.4219L196.125 -3.26853V2.44762L254.287 -31.1348L251.715 -35.4219Z" fill="#0567AC"/>
<path d="M251.857 -15.8438L196.125 16.3096V22.1686L254.287 -11.5566L251.857 -15.8438Z" fill="#0567AC"/>
<path d="M251.857 3.875L196.125 36.0283V41.7445L254.287 8.16211L251.857 3.875Z" fill="#0567AC"/>
<path d="M251.857 23.5959L196.125 55.7492V61.4654L254.287 27.883L251.857 23.5959Z" fill="#0567AC"/>
<path d="M954.943 76.9004L952.514 81.1875L958.23 84.4743V78.7581L954.943 76.9004Z" fill="#0567AC"/>
<path d="M952.37 100.764L958.229 104.194V98.4774L954.942 96.4767L952.37 100.764Z" fill="#0567AC"/>
<path d="M952.37 120.486L958.229 123.916V118.2L954.942 116.199L952.37 120.486Z" fill="#0567AC"/>
<path d="M952.37 140.207L958.229 143.637V137.778L954.942 135.92L952.37 140.207Z" fill="#0567AC"/>
<path d="M951.799 165.928L958.23 162.212V156.496L941.938 165.928H951.799Z" fill="#0567AC"/>
<path d="M843.478 73.041H838.477V156.211H843.478V73.041Z" fill="#0567AC"/>
<path d="M860.483 63.1797H855.481V166.07H860.483V63.1797Z" fill="#0567AC"/>
<path d="M877.49 53.6055H872.488V166.071H877.49V53.6055Z" fill="#0567AC"/>
<path d="M894.638 43.4609H889.637V166.072H894.638V43.4609Z" fill="#0567AC"/>
<path d="M911.642 53.6055H906.641V166.071H911.642V53.6055Z" fill="#0567AC"/>
<path d="M928.791 63.1797H923.789V166.07H928.791V63.1797Z" fill="#0567AC"/>
<path d="M945.798 73.041H940.796V156.211H945.798V73.041Z" fill="#0567AC"/>
<path d="M813.183 161.07L821.614 165.929H831.617L815.612 156.783L813.183 161.07Z" fill="#0567AC"/>
<path d="M686.999 163.07H681.997V166.071H686.999V163.07Z" fill="#0567AC"/>
<path d="M704.004 152.924H699.002V166.071H704.004V152.924Z" fill="#0567AC"/>
<path d="M721.152 163.07H716.15V166.071H721.152V163.07Z" fill="#0567AC"/>
<path d="M625.126 47.3287L622.625 51.6602L694.526 93.1737L697.027 88.8423L625.126 47.3287Z" fill="#0567AC"/>
<path d="M607.862 57.0123L605.361 61.3438L694.465 112.789L696.965 108.458L607.862 57.0123Z" fill="#0567AC"/>
<path d="M590.913 66.8893L588.412 71.2207L694.47 132.455L696.971 128.124L590.913 66.8893Z" fill="#0567AC"/>
<path d="M697.002 147.923L577.105 78.7578V84.474L694.43 152.21L697.002 147.923Z" fill="#0567AC"/>
<path d="M680.139 157.925L577.105 98.4766V104.193L677.71 162.212L680.139 157.925Z" fill="#0567AC"/>
<path d="M577.105 123.915L650.129 165.929H659.99L577.105 118.199V123.915Z" fill="#0567AC"/>
<path d="M577.105 143.636L615.975 165.929H625.836L577.105 137.777V143.636Z" fill="#0567AC"/>
<path d="M581.536 154.068L577.105 156.498V162.214L583.965 158.355L581.536 154.068Z" fill="#0567AC"/>
<path d="M594.969 165.929H599.97L598.684 163.785L594.969 165.929Z" fill="#0567AC"/>
<path d="M893.352 0.445995L958.23 -36.9948V-42.7109L890.779 -3.84112L893.352 0.445995Z" fill="#0567AC"/>
<path d="M893.351 20.1667L958.23 -17.2741V-22.9902L890.779 15.8796L893.351 20.1667Z" fill="#0567AC"/>
<path d="M893.351 39.8872L958.23 2.44637V-3.26978L890.779 35.6L893.351 39.8872Z" fill="#0567AC"/>
<path d="M910.071 49.891L958.23 22.1676V16.3086L907.642 45.6039L910.071 49.891Z" fill="#0567AC"/>
<path d="M927.076 59.7494L958.229 41.7435V36.0273L924.504 55.4623L927.076 59.7494Z" fill="#0567AC"/>
<path d="M944.225 69.6117L958.23 61.4662V55.75L941.796 65.3246L944.225 69.6117Z" fill="#0567AC"/>
<path d="M798.4 -52.4174L795.899 -48.0859L885.003 3.35941L887.504 -0.972L798.4 -52.4174Z" fill="#0567AC"/>
<path d="M781.449 -42.5424L778.948 -38.2109L885.006 23.0233L887.507 18.6919L781.449 -42.5424Z" fill="#0567AC"/>
<path d="M764.432 -32.5814L761.932 -28.25L884.944 42.7732L887.445 38.4418L764.432 -32.5814Z" fill="#0567AC"/>
<path d="M764.319 -12.9408L761.818 -8.60938L868.124 52.7678L870.624 48.4364L764.319 -12.9408Z" fill="#0567AC"/>
<path d="M764.378 6.79749L761.877 11.1289L851.104 62.6457L853.605 58.3143L764.378 6.79749Z" fill="#0567AC"/>
<path d="M764.31 26.4342L761.81 30.7656L833.835 72.3506L836.336 68.0192L764.31 26.4342Z" fill="#0567AC"/>
<path d="M771.928 44.559L700.274 85.9297L702.775 90.2611L774.429 48.8904L771.928 44.559Z" fill="#0567AC"/>
<path d="M789.159 54.2913L700.303 105.594L702.804 109.925L791.659 58.6227L789.159 54.2913Z" fill="#0567AC"/>
<path d="M806.26 64.0958L700.202 125.33L702.703 129.661L808.761 68.4272L806.26 64.0958Z" fill="#0567AC"/>
<path d="M823.27 74.0452L700.258 145.068L702.759 149.4L825.771 78.3766L823.27 74.0452Z" fill="#0567AC"/>
<path d="M823.424 93.699L717.119 155.076L719.62 159.408L825.925 98.0304L823.424 93.699Z" fill="#0567AC"/>
<path d="M823.471 113.34L734.014 164.928L734.585 165.928H742.302L825.901 117.627L823.471 113.34Z" fill="#0567AC"/>
<path d="M823.472 133.061L766.453 165.928H776.456L825.901 137.348L823.472 133.061Z" fill="#0567AC"/>
<path d="M652.844 -36.4237H647.843V46.7463H652.844V-36.4237Z" fill="#0567AC"/>
<path d="M669.993 -46.2832H664.991V56.7504H669.993V-46.2832Z" fill="#0567AC"/>
<path d="M686.999 -53H681.997V66.3246H686.999V-53Z" fill="#0567AC"/>
<path d="M704.004 -53H699.002V76.185H704.004V-53Z" fill="#0567AC"/>
<path d="M721.152 -53H716.151V66.3246H721.152V-53Z" fill="#0567AC"/>
<path d="M738.158 -46.2832H733.156V56.7504H738.158V-46.2832Z" fill="#0567AC"/>
<path d="M755.306 -36.4238H750.305V46.7462H755.306V-36.4238Z" fill="#0567AC"/>
<path d="M632.838 -35.4219L577.105 -3.26853V2.44762L635.267 -31.1348L632.838 -35.4219Z" fill="#0567AC"/>
<path d="M632.981 -15.8438L577.105 16.3096V22.1686L635.41 -11.5566L632.981 -15.8438Z" fill="#0567AC"/>
<path d="M632.981 3.875L577.105 36.0283V41.7445L635.41 8.16211L632.981 3.875Z" fill="#0567AC"/>
<path d="M632.981 23.5959L577.105 55.7492V61.4654L635.41 27.883L632.981 23.5959Z" fill="#0567AC"/>
<path d="M192.838 295.828L190.408 300.115L196.124 303.402V297.686L192.838 295.828Z" fill="#0567AC"/>
<path d="M190.265 319.838L196.124 323.125V317.409L192.694 315.551L190.265 319.838Z" fill="#0567AC"/>
<path d="M81.2292 292.113H76.2275V375.283H81.2292V292.113Z" fill="#0567AC"/>
<path d="M98.3776 282.109H93.376V385H98.3776V282.109Z" fill="#0567AC"/>
<path d="M115.384 272.537H110.383V385.002H115.384V272.537Z" fill="#0567AC"/>
<path d="M132.388 262.389H127.387V385H132.388V262.389Z" fill="#0567AC"/>
<path d="M149.537 272.537H144.535V385.002H149.537V272.537Z" fill="#0567AC"/>
<path d="M166.544 282.109H161.542V385H166.544V282.109Z" fill="#0567AC"/>
<path d="M183.692 292.113H178.69V375.283H183.692V292.113Z" fill="#0567AC"/>
<path d="M131.246 199.798L189.694 165.93H179.69L128.674 195.368L131.246 199.798Z" fill="#0567AC"/>
<path d="M131.246 219.519L196.124 181.935V176.219L128.674 215.089L131.246 219.519Z" fill="#0567AC"/>
<path d="M131.246 239.094L196.124 201.654V195.938L128.674 234.807L131.246 239.094Z" fill="#0567AC"/>
<path d="M131.246 258.817L196.124 221.376V215.66L128.674 254.53L131.246 258.817Z" fill="#0567AC"/>
<path d="M147.965 268.82L196.124 241.097V235.381L145.536 264.533L147.965 268.82Z" fill="#0567AC"/>
<path d="M164.828 278.824L196.124 260.818V255.102L162.398 274.536L164.828 278.824Z" fill="#0567AC"/>
<path d="M182.12 288.541L196.124 280.539V274.68L179.69 284.254L182.12 288.541Z" fill="#0567AC"/>
<path d="M98.3776 165.93H93.376V166.215H98.3776V165.93Z" fill="#0567AC"/>
<path d="M115.384 165.93H110.383V175.79H115.384V165.93Z" fill="#0567AC"/>
<path d="M132.388 165.93H127.387V185.507H132.388V165.93Z" fill="#0567AC"/>
<path d="M149.537 165.93H144.535V175.79H149.537V165.93Z" fill="#0567AC"/>
<path d="M166.544 165.93H161.542V166.215H166.544V165.93Z" fill="#0567AC"/>
<path d="M125.386 198.226L69.3681 165.93H59.5078L122.814 202.656L125.386 198.226Z" fill="#0567AC"/>
<path d="M36.2235 166.475L33.7227 170.807L122.826 222.252L125.327 217.921L36.2235 166.475Z" fill="#0567AC"/>
<path d="M19.2752 176.352L16.7744 180.684L122.832 241.918L125.333 237.586L19.2752 176.352Z" fill="#0567AC"/>
<path d="M2.25668 186.313L-0.244141 190.645L122.768 261.668L125.269 257.336L2.25668 186.313Z" fill="#0567AC"/>
<path d="M2.26351 206.024L-0.237305 210.355L106.068 271.733L108.569 267.401L2.26351 206.024Z" fill="#0567AC"/>
<path d="M2.20003 225.688L-0.300781 230.02L88.9263 281.536L91.4271 277.205L2.20003 225.688Z" fill="#0567AC"/>
<path d="M2.25863 245.399L-0.242188 249.73L71.783 291.315L74.2838 286.984L2.25863 245.399Z" fill="#0567AC"/>
<path d="M9.80923 263.469L-61.8447 304.84L-59.3439 309.171L12.31 267.801L9.80923 263.469Z" fill="#0567AC"/>
<path d="M26.9857 273.397L-61.8701 324.699L-59.3693 329.031L29.4865 277.728L26.9857 273.397Z" fill="#0567AC"/>
<path d="M44.2101 283.113L-61.8477 344.348L-59.3468 348.679L46.7109 287.445L44.2101 283.113Z" fill="#0567AC"/>
<path d="M61.1518 292.949L-61.8604 363.973L-59.3595 368.304L63.6526 297.281L61.1518 292.949Z" fill="#0567AC"/>
<path d="M61.1783 312.672L-45.127 374.049L-42.6261 378.38L63.6791 317.003L61.1783 312.672Z" fill="#0567AC"/>
<path d="M-8.37125 179.077L14.2075 165.93H4.34718L-10.9435 174.79L-8.37125 179.077Z" fill="#0567AC"/>
<path d="M573.962 295.828L571.39 300.115L577.106 303.402V297.686L573.962 295.828Z" fill="#0567AC"/>
<path d="M571.39 319.838L577.106 323.125V317.409L573.819 315.551L571.39 319.838Z" fill="#0567AC"/>
<path d="M462.354 292.113H457.353V375.283H462.354V292.113Z" fill="#0567AC"/>
<path d="M479.361 282.109H474.359V385H479.361V282.109Z" fill="#0567AC"/>
<path d="M496.509 272.537H491.508V385.002H496.509V272.537Z" fill="#0567AC"/>
<path d="M513.513 262.389H508.512V385H513.513V262.389Z" fill="#0567AC"/>
<path d="M530.662 272.537H525.66V385.002H530.662V272.537Z" fill="#0567AC"/>
<path d="M547.669 282.109H542.667V385H547.669V282.109Z" fill="#0567AC"/>
<path d="M564.674 292.113H559.673V375.283H564.674V292.113Z" fill="#0567AC"/>
<path d="M243.979 266.317L241.479 270.648L313.38 312.162L315.881 307.831L243.979 266.317Z" fill="#0567AC"/>
<path d="M226.716 275.997L224.215 280.328L313.318 331.773L315.819 327.442L226.716 275.997Z" fill="#0567AC"/>
<path d="M209.89 285.946L207.39 290.277L313.447 351.512L315.948 347.18L209.89 285.946Z" fill="#0567AC"/>
<path d="M315.878 366.853L196.125 297.688V303.404L313.449 371.14L315.878 366.853Z" fill="#0567AC"/>
<path d="M299.159 376.856L196.125 317.408V323.124L296.586 381.143L299.159 376.856Z" fill="#0567AC"/>
<path d="M512.228 199.798L570.676 165.93H560.815L509.799 195.368L512.228 199.798Z" fill="#0567AC"/>
<path d="M512.228 219.519L577.106 181.935V176.219L509.799 215.089L512.228 219.519Z" fill="#0567AC"/>
<path d="M512.228 239.094L577.106 201.654V195.938L509.799 234.807L512.228 239.094Z" fill="#0567AC"/>
<path d="M512.228 258.817L577.106 221.376V215.66L509.799 254.53L512.228 258.817Z" fill="#0567AC"/>
<path d="M529.091 268.82L577.106 241.097V235.381L526.519 264.533L529.091 268.82Z" fill="#0567AC"/>
<path d="M545.953 278.824L577.106 260.818V255.102L543.523 274.536L545.953 278.824Z" fill="#0567AC"/>
<path d="M563.244 288.541L577.106 280.539V274.68L560.672 284.254L563.244 288.541Z" fill="#0567AC"/>
<path d="M479.361 165.93H474.359V166.215H479.361V165.93Z" fill="#0567AC"/>
<path d="M496.509 165.93H491.508V175.79H496.509V165.93Z" fill="#0567AC"/>
<path d="M513.513 165.93H508.512V185.507H513.513V165.93Z" fill="#0567AC"/>
<path d="M530.662 165.93H525.66V175.79H530.662V165.93Z" fill="#0567AC"/>
<path d="M547.669 165.93H542.667V166.215H547.669V165.93Z" fill="#0567AC"/>
<path d="M506.369 198.226L450.494 165.93H440.49L503.94 202.656L506.369 198.226Z" fill="#0567AC"/>
<path d="M417.324 166.444L414.823 170.775L503.927 222.221L506.427 217.889L417.324 166.444Z" fill="#0567AC"/>
<path d="M400.304 176.444L397.803 180.775L503.861 242.01L506.362 237.678L400.304 176.444Z" fill="#0567AC"/>
<path d="M383.358 186.278L380.857 190.609L503.87 261.633L506.37 257.301L383.358 186.278Z" fill="#0567AC"/>
<path d="M383.365 205.993L380.864 210.324L487.169 271.701L489.67 267.37L383.365 205.993Z" fill="#0567AC"/>
<path d="M383.301 225.657L380.8 229.988L470.027 281.505L472.528 277.174L383.301 225.657Z" fill="#0567AC"/>
<path d="M383.358 245.366L380.857 249.697L452.883 291.282L455.383 286.951L383.358 245.366Z" fill="#0567AC"/>
<path d="M390.798 263.524L319.144 304.895L321.644 309.226L393.298 267.855L390.798 263.524Z" fill="#0567AC"/>
<path d="M408.099 273.377L319.243 324.68L321.744 329.011L410.6 277.709L408.099 273.377Z" fill="#0567AC"/>
<path d="M425.318 283.106L319.26 344.34L321.761 348.671L427.818 287.437L425.318 283.106Z" fill="#0567AC"/>
<path d="M442.262 292.926L319.25 363.949L321.751 368.281L444.763 297.257L442.262 292.926Z" fill="#0567AC"/>
<path d="M442.289 312.65L335.983 374.027L338.484 378.359L444.789 316.982L442.289 312.65Z" fill="#0567AC"/>
<path d="M271.864 182.648H266.862V265.818H271.864V182.648Z" fill="#0567AC"/>
<path d="M288.87 172.646H283.868V275.68H288.87V172.646Z" fill="#0567AC"/>
<path d="M305.875 165.93H300.873V285.254H305.875V165.93Z" fill="#0567AC"/>
<path d="M323.023 165.93H318.022V295.115H323.023V165.93Z" fill="#0567AC"/>
<path d="M340.029 165.93H335.027V285.254H340.029V165.93Z" fill="#0567AC"/>
<path d="M357.177 172.646H352.176V275.68H357.177V172.646Z" fill="#0567AC"/>
<path d="M374.182 182.648H369.181V265.818H374.182V182.648Z" fill="#0567AC"/>
<path d="M282.01 167.787L279.009 165.93H269.006L279.438 172.075L282.01 167.787Z" fill="#0567AC"/>
<path d="M264.718 177.505L244.855 165.93H234.851L262.289 181.792L264.718 177.505Z" fill="#0567AC"/>
<path d="M218.847 165.93H213.845L196.125 176.219V181.935L220.133 168.073L218.847 165.93Z" fill="#0567AC"/>
<path d="M234.709 173.648L196.125 195.941V201.658L237.281 177.936L234.709 173.648Z" fill="#0567AC"/>
<path d="M251.715 183.508L196.125 215.661V221.377L254.287 187.795L251.715 183.508Z" fill="#0567AC"/>
<path d="M251.857 203.082L196.125 235.378V241.094L254.287 207.512L251.857 203.082Z" fill="#0567AC"/>
<path d="M251.857 222.805L196.125 255.101V260.817L254.287 227.092L251.857 222.805Z" fill="#0567AC"/>
<path d="M251.857 242.527L196.125 274.681V280.54L254.287 246.814L251.857 242.527Z" fill="#0567AC"/>
<path d="M361.179 165.93H353.462L355.463 169.359L361.179 165.93Z" fill="#0567AC"/>
<path d="M372.611 179.077L395.333 165.93H385.329L370.182 174.79L372.611 179.077Z" fill="#0567AC"/>
<path d="M954.943 295.828L952.514 300.115L958.23 303.402V297.686L954.943 295.828Z" fill="#0567AC"/>
<path d="M952.37 319.838L958.229 323.125V317.409L954.942 315.551L952.37 319.838Z" fill="#0567AC"/>
<path d="M843.478 292.113H838.477V375.283H843.478V292.113Z" fill="#0567AC"/>
<path d="M860.483 282.109H855.481V385H860.483V282.109Z" fill="#0567AC"/>
<path d="M877.49 272.537H872.488V385.002H877.49V272.537Z" fill="#0567AC"/>
<path d="M894.638 262.389H889.637V385H894.638V262.389Z" fill="#0567AC"/>
<path d="M911.642 272.537H906.641V385.002H911.642V272.537Z" fill="#0567AC"/>
<path d="M928.791 282.109H923.789V385H928.791V282.109Z" fill="#0567AC"/>
<path d="M945.798 292.113H940.796V375.283H945.798V292.113Z" fill="#0567AC"/>
<path d="M625.079 266.282L622.578 270.613L694.48 312.127L696.98 307.795L625.079 266.282Z" fill="#0567AC"/>
<path d="M607.814 275.967L605.314 280.299L694.417 331.744L696.918 327.413L607.814 275.967Z" fill="#0567AC"/>
<path d="M590.99 285.915L588.489 290.246L694.547 351.48L697.048 347.149L590.99 285.915Z" fill="#0567AC"/>
<path d="M697.002 366.853L577.105 297.688V303.404L694.43 371.14L697.002 366.853Z" fill="#0567AC"/>
<path d="M680.139 376.856L577.105 317.408V323.124L677.71 381.143L680.139 376.856Z" fill="#0567AC"/>
<path d="M893.351 199.798L951.799 165.93H941.939L890.779 195.368L893.351 199.798Z" fill="#0567AC"/>
<path d="M893.352 219.519L958.23 181.935V176.219L890.779 215.089L893.352 219.519Z" fill="#0567AC"/>
<path d="M893.352 239.094L958.23 201.654V195.938L890.779 234.807L893.352 239.094Z" fill="#0567AC"/>
<path d="M893.351 258.817L958.23 221.376V215.66L890.779 254.53L893.351 258.817Z" fill="#0567AC"/>
<path d="M910.071 268.82L958.23 241.097V235.381L907.642 264.533L910.071 268.82Z" fill="#0567AC"/>
<path d="M927.076 278.824L958.229 260.818V255.102L924.504 274.536L927.076 278.824Z" fill="#0567AC"/>
<path d="M944.225 288.541L958.23 280.539V274.68L941.796 284.254L944.225 288.541Z" fill="#0567AC"/>
<path d="M860.483 165.93H855.481V166.215H860.483V165.93Z" fill="#0567AC"/>
<path d="M877.49 165.93H872.488V175.79H877.49V165.93Z" fill="#0567AC"/>
<path d="M894.638 165.93H889.637V185.507H894.638V165.93Z" fill="#0567AC"/>
<path d="M911.642 165.93H906.641V175.79H911.642V165.93Z" fill="#0567AC"/>
<path d="M928.791 165.93H923.789V166.215H928.791V165.93Z" fill="#0567AC"/>
<path d="M887.492 198.226L831.616 165.93H821.613L885.062 202.656L887.492 198.226Z" fill="#0567AC"/>
<path d="M798.352 166.536L795.852 170.867L884.955 222.313L887.456 217.981L798.352 166.536Z" fill="#0567AC"/>
<path d="M781.403 176.411L778.902 180.742L884.96 241.976L887.461 237.645L781.403 176.411Z" fill="#0567AC"/>
<path d="M764.387 186.372L761.886 190.703L884.898 261.726L887.399 257.395L764.387 186.372Z" fill="#0567AC"/>
<path d="M764.394 206.083L761.894 210.414L868.199 271.791L870.7 267.46L764.394 206.083Z" fill="#0567AC"/>
<path d="M764.33 225.751L761.829 230.082L851.056 281.599L853.557 277.267L764.33 225.751Z" fill="#0567AC"/>
<path d="M764.387 245.458L761.886 249.789L833.911 291.374L836.412 287.043L764.387 245.458Z" fill="#0567AC"/>
<path d="M771.907 263.504L700.253 304.875L702.754 309.206L774.408 267.836L771.907 263.504Z" fill="#0567AC"/>
<path d="M789.207 273.358L700.352 324.66L702.852 328.992L791.708 277.689L789.207 273.358Z" fill="#0567AC"/>
<path d="M806.302 283.137L700.244 344.371L702.745 348.702L808.803 287.468L806.302 283.137Z" fill="#0567AC"/>
<path d="M823.245 292.975L700.233 363.998L702.734 368.329L825.746 297.306L823.245 292.975Z" fill="#0567AC"/>
<path d="M823.398 312.629L717.093 374.006L719.594 378.337L825.899 316.96L823.398 312.629Z" fill="#0567AC"/>
<path d="M652.844 182.648H647.843V265.818H652.844V182.648Z" fill="#0567AC"/>
<path d="M669.993 172.646H664.991V275.68H669.993V172.646Z" fill="#0567AC"/>
<path d="M686.999 165.93H681.997V285.254H686.999V165.93Z" fill="#0567AC"/>
<path d="M704.004 165.93H699.002V295.115H704.004V165.93Z" fill="#0567AC"/>
<path d="M721.152 165.93H716.151V285.254H721.152V165.93Z" fill="#0567AC"/>
<path d="M738.158 172.646H733.156V275.68H738.158V172.646Z" fill="#0567AC"/>
<path d="M755.306 182.648H750.305V265.818H755.306V182.648Z" fill="#0567AC"/>
<path d="M662.99 167.787L659.989 165.93H650.129L660.561 172.075L662.99 167.787Z" fill="#0567AC"/>
<path d="M645.843 177.505L625.836 165.93H615.976L643.413 181.792L645.843 177.505Z" fill="#0567AC"/>
<path d="M599.97 165.93H594.968L577.105 176.219V181.935L601.113 168.073L599.97 165.93Z" fill="#0567AC"/>
<path d="M615.832 173.648L577.105 195.941V201.658L618.262 177.936L615.832 173.648Z" fill="#0567AC"/>
<path d="M632.838 183.508L577.105 215.661V221.377L635.267 187.795L632.838 183.508Z" fill="#0567AC"/>
<path d="M632.981 203.082L577.105 235.378V241.094L635.41 207.512L632.981 203.082Z" fill="#0567AC"/>
<path d="M632.981 222.805L577.105 255.101V260.817L635.41 227.092L632.981 222.805Z" fill="#0567AC"/>
<path d="M632.981 242.527L577.105 274.681V280.54L635.41 246.814L632.981 242.527Z" fill="#0567AC"/>
<path d="M742.303 165.93H734.586L736.444 169.359L742.303 165.93Z" fill="#0567AC"/>
<path d="M753.735 179.077L776.457 165.93H766.453L751.306 174.79L753.735 179.077Z" fill="#0567AC"/>
<path d="M1068.12 162.926H1063.12V165.927H1068.12V162.926Z" fill="#0567AC"/>
<path d="M1085.13 152.781H1080.13V165.929H1085.13V152.781Z" fill="#0567AC"/>
<path d="M1102.28 162.926H1097.28V165.927H1102.28V162.926Z" fill="#0567AC"/>
<path d="M1006.14 47.1725L1003.63 51.5039L1075.54 93.0175L1078.04 88.686L1006.14 47.1725Z" fill="#0567AC"/>
<path d="M988.991 56.9284L986.49 61.2598L1075.59 112.705L1078.09 108.374L988.991 56.9284Z" fill="#0567AC"/>
<path d="M971.973 66.9303L969.473 71.2617L1075.53 132.496L1078.03 128.165L971.973 66.9303Z" fill="#0567AC"/>
<path d="M1077.98 147.922L958.23 78.6133V84.4723L1075.55 152.209L1077.98 147.922Z" fill="#0567AC"/>
<path d="M1061.26 157.927L958.23 98.3359V104.195L1058.83 162.214L1061.26 157.927Z" fill="#0567AC"/>
<path d="M958.23 123.771L1031.11 165.927H1041.11L958.23 118.055V123.771Z" fill="#0567AC"/>
<path d="M958.23 143.493L996.957 165.929H1006.96L958.23 137.777V143.493Z" fill="#0567AC"/>
<path d="M962.518 153.926L958.23 156.498V162.214L965.09 158.356L962.518 153.926Z" fill="#0567AC"/>
<path d="M975.951 165.929H980.953L979.809 163.785L975.951 165.929Z" fill="#0567AC"/>
<path d="M1145.56 -32.6654L1143.06 -28.334L1266.07 42.6892L1268.57 38.3578L1145.56 -32.6654Z" fill="#0567AC"/>
<path d="M1145.45 -13.0248L1142.95 -8.69336L1249.25 52.6838L1251.75 48.3524L1145.45 -13.0248Z" fill="#0567AC"/>
<path d="M1145.38 6.64124L1142.88 10.9727L1232.11 62.4894L1234.61 58.158L1145.38 6.64124Z" fill="#0567AC"/>
<path d="M1145.44 26.3502L1142.94 30.6816L1214.97 72.2666L1217.47 67.9352L1145.44 26.3502Z" fill="#0567AC"/>
<path d="M1153.08 44.5239L1081.43 85.8945L1083.93 90.2259L1155.59 48.8553L1153.08 44.5239Z" fill="#0567AC"/>
<path d="M1170.19 54.3265L1081.33 105.629L1083.83 109.96L1172.69 58.6579L1170.19 54.3265Z" fill="#0567AC"/>
<path d="M1187.41 64.0489L1081.35 125.283L1083.85 129.615L1189.91 68.3804L1187.41 64.0489Z" fill="#0567AC"/>
<path d="M1204.43 74.0022L1081.42 145.025L1083.92 149.357L1206.93 78.3336L1204.43 74.0022Z" fill="#0567AC"/>
<path d="M1204.45 93.7244L1098.15 155.102L1100.65 159.433L1206.95 98.0558L1204.45 93.7244Z" fill="#0567AC"/>
<path d="M1204.6 113.34L1115.14 164.928L1115.71 165.928H1123.28L1207.03 117.627L1204.6 113.34Z" fill="#0567AC"/>
<path d="M1204.6 133.061L1147.58 165.928H1157.44L1207.03 137.348L1204.6 133.061Z" fill="#0567AC"/>
<path d="M1033.97 -36.4237H1028.97V46.7462H1033.97V-36.4237Z" fill="#0567AC"/>
<path d="M1050.98 -46.4258H1045.97V56.6078H1050.98V-46.4258Z" fill="#0567AC"/>
<path d="M1068.12 -53H1063.12V66.3246H1068.12V-53Z" fill="#0567AC"/>
<path d="M1085.13 -53H1080.13V76.185H1085.13V-53Z" fill="#0567AC"/>
<path d="M1102.28 -53H1097.28V66.3246H1102.28V-53Z" fill="#0567AC"/>
<path d="M1119.28 -46.4258H1114.28V56.6078H1119.28V-46.4258Z" fill="#0567AC"/>
<path d="M1136.29 -36.4237H1131.29V46.7462H1136.29V-36.4237Z" fill="#0567AC"/>
<path d="M1013.96 -35.5664L958.23 -3.41306V2.30309L1016.39 -31.2793L1013.96 -35.5664Z" fill="#0567AC"/>
<path d="M1013.96 -15.8438L958.23 16.3096V22.0257L1016.54 -11.5566L1013.96 -15.8438Z" fill="#0567AC"/>
<path d="M1013.96 3.875L958.23 36.0283V41.7445L1016.54 8.16211L1013.96 3.875Z" fill="#0567AC"/>
<path d="M1013.96 23.5959L958.23 55.7492V61.4654L1016.54 27.883L1013.96 23.5959Z" fill="#0567AC"/>
<path d="M1006.21 266.2L1003.71 270.531L1075.61 312.045L1078.11 307.713L1006.21 266.2Z" fill="#0567AC"/>
<path d="M988.943 275.883L986.442 280.215L1075.55 331.66L1078.05 327.329L988.943 275.883Z" fill="#0567AC"/>
<path d="M971.927 285.881L969.426 290.213L1075.48 351.447L1077.98 347.116L971.927 285.881Z" fill="#0567AC"/>
<path d="M1077.98 366.853L958.23 297.688V303.404L1075.55 371.14L1077.98 366.853Z" fill="#0567AC"/>
<path d="M1061.26 376.854L958.23 317.406V323.122L1058.83 381.141L1061.26 376.854Z" fill="#0567AC"/>
<path d="M1145.52 186.286L1143.02 190.617L1266.03 261.64L1268.53 257.309L1145.52 186.286Z" fill="#0567AC"/>
<path d="M1145.4 205.926L1142.9 210.258L1249.2 271.635L1251.7 267.304L1145.4 205.926Z" fill="#0567AC"/>
<path d="M1145.46 225.667L1142.96 229.998L1232.18 281.515L1234.68 277.183L1145.46 225.667Z" fill="#0567AC"/>
<path d="M1145.39 245.305L1142.89 249.637L1214.92 291.222L1217.42 286.89L1145.39 245.305Z" fill="#0567AC"/>
<path d="M1153.07 263.448L1081.41 304.818L1083.91 309.15L1155.57 267.779L1153.07 263.448Z" fill="#0567AC"/>
<path d="M1170.16 273.26L1081.31 324.563L1083.81 328.894L1172.66 277.592L1170.16 273.26Z" fill="#0567AC"/>
<path d="M1187.46 283.106L1081.4 344.34L1083.9 348.671L1189.96 287.437L1187.46 283.106Z" fill="#0567AC"/>
<path d="M1204.41 292.934L1081.39 363.957L1083.9 368.288L1206.91 297.265L1204.41 292.934Z" fill="#0567AC"/>
<path d="M1204.44 312.646L1098.13 374.023L1100.63 378.355L1206.94 316.978L1204.44 312.646Z" fill="#0567AC"/>
<path d="M1033.97 182.506H1028.97V265.676H1033.97V182.506Z" fill="#0567AC"/>
<path d="M1050.98 172.646H1045.97V275.68H1050.98V172.646Z" fill="#0567AC"/>
<path d="M1068.12 165.93H1063.12V285.254H1068.12V165.93Z" fill="#0567AC"/>
<path d="M1085.13 165.93H1080.13V295.115H1085.13V165.93Z" fill="#0567AC"/>
<path d="M1102.28 165.93H1097.28V285.254H1102.28V165.93Z" fill="#0567AC"/>
<path d="M1119.28 172.646H1114.28V275.68H1119.28V172.646Z" fill="#0567AC"/>
<path d="M1136.29 182.506H1131.29V265.676H1136.29V182.506Z" fill="#0567AC"/>
<path d="M1044.12 167.645L1041.11 165.93H1031.11L1041.69 171.932L1044.12 167.645Z" fill="#0567AC"/>
<path d="M1026.97 177.505L1006.96 165.93H996.957L1024.39 181.792L1026.97 177.505Z" fill="#0567AC"/>
<path d="M980.952 165.93H975.951L958.23 176.219V181.935L982.238 168.073L980.952 165.93Z" fill="#0567AC"/>
<path d="M996.957 173.504L958.23 195.94V201.656L999.387 177.934L996.957 173.504Z" fill="#0567AC"/>
<path d="M1013.96 183.508L958.23 215.661V221.377L1016.39 187.795L1013.96 183.508Z" fill="#0567AC"/>
<path d="M1013.96 203.082L958.23 235.235V241.094L1016.54 207.369L1013.96 203.082Z" fill="#0567AC"/>
<path d="M1013.96 222.805L958.23 254.958V260.674L1016.54 227.092L1013.96 222.805Z" fill="#0567AC"/>
<path d="M1013.96 242.527L958.23 274.681V280.397L1016.54 246.814L1013.96 242.527Z" fill="#0567AC"/>
<path d="M1123.28 165.93H1115.71L1117.57 169.216L1123.28 165.93Z" fill="#0567AC"/>
<path d="M1134.86 179.077L1157.44 165.93H1147.58L1132.29 174.647L1134.86 179.077Z" fill="#0567AC"/>
</g>
</g>
</g>
<defs>
<linearGradient id="paint0_linear_1_892" x1="-88.2292" y1="71.7357" x2="89.2062" y2="819.16" gradientUnits="userSpaceOnUse">
<stop stop-color="#58585A"/>
<stop offset="1" stop-color="#363636"/>
</linearGradient>
</defs>
</svg>
