<svg width="256" height="256" viewBox="0 0 256 256" fill="none" xmlns="http://www.w3.org/2000/svg">
<path d="M151.092 42.2398C153.898 44.509 155.406 45.1018 155.788 45.0451C156.697 43.2326 155.847 42.3845 155.084 41.7151C154.32 41.0457 152.619 39.9026 151.664 38.7652C150.71 37.6278 150.317 34.7346 150.317 34.7346C149.553 30.8203 145.681 28.3951 145.681 28.3951C148.584 26.4096 151.137 28.1313 151.87 28.7752C152.838 30.236 154.463 29.4474 154.463 29.4474C154.463 26.6422 151.214 25.6693 149.65 25.1927C142.295 22.9718 138.315 30.0516 138.315 30.0516C136.115 33.0894 132.083 35.0863 132.083 35.0863C132.083 35.0863 131.154 37.9681 133.223 36.9442C135.012 35.9798 138.799 33.5574 139.207 33.322C139.614 33.0866 144.108 32.3293 143.695 34.9587C143.079 37.2647 140.232 46.9625 141.113 50.6726C141.113 50.6726 143.316 52.6014 144.019 49.0076C144.43 45.2975 145.427 39.3098 147.305 37.5568C147.308 37.5739 150.006 41.3719 151.092 42.2398Z" fill="white"/>
<path d="M15 199.474V162.941H41.4116V169.595H21.9327V179.577H40.3602V185.953H21.9327V199.488L15 199.474Z" fill="white"/>
<path d="M46.7678 199.475V162.885H53.6464V199.475H46.7678Z" fill="white"/>
<path d="M84.3197 162.84H91.2524V199.475H86.9326V199.529L67.6105 174.807V199.484H60.6692V162.894H66.2855L84.294 185.585L84.3197 162.84Z" fill="white"/>
<path d="M161.644 162.84H168.574V199.475H164.271V199.529L144.949 174.807V199.484H138.016V162.894H143.635L161.644 185.585V162.84Z" fill="white"/>
<path d="M207.323 194.877C203.542 198.587 198.658 200.312 193.361 200.312C179.712 200.312 173.936 190.951 173.882 181.444C173.831 171.879 180.079 162.156 193.361 162.156C195.869 162.154 198.353 162.648 200.668 163.608C202.983 164.569 205.083 165.977 206.847 167.752L202.225 172.194C199.812 169.842 196.555 168.745 193.352 168.745C184.479 168.745 180.647 175.328 180.701 181.444C180.752 187.508 184.271 193.83 193.352 193.83C196.555 193.83 200.191 192.526 202.593 190.12L207.323 194.877Z" fill="white"/>
<path d="M219.075 184.778H239.126V177.934H219.015L211.729 184.954V199.692H239.767V192.845H219.075V184.778Z" fill="white"/>
<path d="M117.852 162.889H110.293L93.8057 199.474H101.314L114.074 170.573L126.78 199.474H134.339L117.852 162.889Z" fill="white"/>
<path d="M111.244 213.358C111.244 215.289 110.309 217.153 107.969 218.18C110.919 219.073 111.999 222.187 111.999 223.764C111.999 229.349 107.79 231.139 102.575 231.139H90.6362V206.091H102.575C107.539 206.091 111.244 208.309 111.244 213.358ZM95.3093 216.149H102.575C105.562 216.149 106.531 214.898 106.531 213.465C106.531 212.331 105.596 210.385 102.575 210.385H95.3093V216.149ZM95.3093 226.746H102.575C104.519 226.746 107.288 226.102 107.288 223.739C107.288 221.484 104.519 220.301 102.575 220.301H95.3093V226.746Z" fill="white"/>
<path d="M137.679 231.146H132.032L124.694 222.767H120.135V231.146H115.379V206.055C119.369 206.055 123.358 206.092 127.347 206.092C133.283 206.126 136.411 210.063 136.411 214.397C136.411 217.832 134.83 221.307 130.046 222.274L137.671 230.829L137.679 231.146ZM120.127 210.488V218.507H127.347C130.37 218.507 131.664 216.504 131.664 214.499C131.664 212.494 130.333 210.488 127.347 210.488H120.127Z" fill="white"/>
<path d="M164.364 218.765C164.293 225.243 160.301 231.713 151.454 231.713C142.606 231.713 138.506 225.377 138.506 218.788C138.506 212.198 142.748 205.578 151.454 205.578C160.159 205.578 164.436 212.213 164.364 218.765ZM143.182 218.873C143.287 222.988 145.518 227.382 151.445 227.382C157.372 227.382 159.609 222.94 159.68 218.824C159.751 214.601 157.378 209.873 151.445 209.873C145.512 209.873 143.073 214.646 143.182 218.873Z" fill="white"/>
<path d="M213.45 162.676H212.019H211.729V177.15L212.381 176.481L219.305 169.753H239.998V162.676H213.45Z" fill="white"/>
<path d="M107.643 199.475L114.522 183.35L120.896 199.475H107.643Z" fill="white"/>
<path d="M82.3526 217.792H15V220.098H82.3526V217.792Z" fill="white"/>
<path d="M240 217.792H172.73V220.098H240V217.792Z" fill="white"/>
<path d="M161.64 103.098C161.64 103.098 121.933 134.722 83.9014 138.695C83.9014 138.695 112.501 167.437 154.129 146.249C158.352 143.447 189.807 128.181 184.801 83.7818L177.446 90.3255C177.446 90.3255 178.854 117.782 159.019 133.204C153.853 137.175 138.477 148.626 118.759 145.588C117.117 145.004 111.014 141.265 118.175 136.228C121.811 134.489 147.125 119.612 161.64 103.098Z" fill="white"/>
<path d="M62.4217 85.886C62.4217 85.886 47.7499 130.986 105.38 115.445C117 111.939 127.68 108.433 141.061 100.488C151.741 94.1798 172.516 81.2002 185.074 64.0368L179.207 61.5833L198.583 53.6412L195.885 72.9291L192.115 67.8916C192.115 67.8916 176.192 95.3087 135.661 116.341C135.661 116.341 110.193 130.634 88.7137 132.509C81.9063 132.858 69.1123 135.547 61.0141 125.965C58.3128 121.986 51.5055 112.055 62.4217 85.886Z" fill="white"/>
<path d="M122.789 37.7503C124.345 37.7503 125.607 36.4944 125.607 34.9451C125.607 33.3958 124.345 32.1398 122.789 32.1398C121.232 32.1398 119.971 33.3958 119.971 34.9451C119.971 36.4944 121.232 37.7503 122.789 37.7503Z" fill="white"/>
<path d="M136.637 29.6105C138.194 29.6105 139.456 28.3545 139.456 26.8052C139.456 25.256 138.194 24 136.637 24C135.081 24 133.819 25.256 133.819 26.8052C133.819 28.3545 135.081 29.6105 136.637 29.6105Z" fill="white"/>
<path d="M147.291 41.0213C147.291 41.0213 146.001 43.8833 146.057 45.4603C146.057 45.4603 164.662 53.3457 171.939 69.9956L177.689 63.7554C177.689 63.7554 166.246 46.4049 157.743 43.1345C157.743 43.1345 157.78 47.6898 154.848 46.212C152.953 45.2249 147.291 41.0213 147.291 41.0213Z" fill="white"/>
<path d="M126.27 32.9569C126.27 32.9569 127.124 34.6588 126.62 35.6062C126.62 35.6062 130.005 35.1977 132.627 33.5412C130.572 32.9039 128.406 32.7048 126.27 32.9569Z" fill="white"/>
<path d="M119.032 33.3107C119.032 33.3107 117.428 36.8166 120.009 37.9058C120.009 37.9058 114.69 41.4513 114.453 41.4513C114.217 41.4513 86.7136 46.9796 76.7376 70.23C75.33 72.9161 58.1933 105.632 90.0018 105.164V74.7882H103.89V104.503L113.122 103.022V60.6484H126.974V98.6569L135.038 95.7013V49.8983H148.652V88.613C148.652 88.613 169.781 76.5383 179.013 66.7241C179.013 66.7241 160.076 92.3118 123.34 105.748C123.34 105.748 102.802 113.225 81.0859 112.641C76.1563 112.056 64.3026 112.757 63.4819 95.5822C63.4819 87.0558 64.8896 61.0002 90.358 43.1249C95.8689 40.087 100.525 35.5685 119.032 33.3107Z" fill="white"/>
<path d="M128.323 40.4656C128.323 40.4656 135.013 38.8573 139.72 34.77H142.125C142.125 34.77 140.601 42.7432 140.572 43.2793C140.561 43.268 131.317 41.7505 128.323 40.4656Z" fill="white"/>
<path d="M120.284 49.7524C120.284 49.7524 119.548 58.2618 114.619 62.3718C114.619 62.3718 111.51 61.0869 114.796 56.9088C115.996 54.963 116.664 52.7383 116.733 50.4559C116.793 49.344 118.933 43.8242 119.081 42.7152C119.081 42.7152 116.585 42.7152 114.328 48.5866C114.328 48.5866 111.422 48.4391 113.388 44.9929C114.502 43.0641 116.938 38.9455 131.257 35.8793C131.257 35.8793 132.784 37.2522 131.228 37.9244C129.821 38.4917 124.039 39.3852 123.307 45.7218V46.4933C123.307 46.4933 123.424 47.2251 126.299 47.2535C127.091 47.3982 128.558 47.6024 129.117 50.9636C129.761 53.4738 130.525 55.1388 129.402 56.4238C128.729 56.628 127.319 57.4165 125.94 50.1155L120.284 49.7524Z" fill="white"/>
</svg>
