<svg width="24" height="23" viewBox="0 0 24 23" fill="none" xmlns="http://www.w3.org/2000/svg">
<path d="M12.227 4.54888C14.3551 4.54888 15.7907 5.46814 16.6092 6.23629L19.8077 3.11332C17.8433 1.2874 15.287 0.166656 12.227 0.166656C7.79439 0.166656 3.96624 2.71036 2.10254 6.41258L5.76698 9.25851C6.68624 6.52592 9.22995 4.54888 12.227 4.54888V4.54888Z" fill="#EA4335"/>
<path d="M23.1066 11.7519C23.1066 10.82 23.031 10.14 22.8673 9.43481H12.2266V13.6407H18.4725C18.3466 14.6859 17.6666 16.26 16.1555 17.3178L19.7317 20.0881C21.8725 18.1111 23.1066 15.2022 23.1066 11.7519V11.7519Z" fill="#4285F4"/>
<path d="M5.77948 13.7415C5.54022 13.0363 5.4017 12.2807 5.4017 11.5C5.4017 10.7192 5.54022 9.96368 5.76689 9.25849L2.10244 6.41257C1.3343 7.94886 0.893555 9.67405 0.893555 11.5C0.893555 13.3259 1.3343 15.0511 2.10244 16.5874L5.77948 13.7415V13.7415Z" fill="#FBBC05"/>
<path d="M12.2271 22.8333C15.2871 22.8333 17.856 21.8259 19.7323 20.0881L16.156 17.3178C15.1989 17.9852 13.9145 18.4511 12.2271 18.4511C9.23005 18.4511 6.68635 16.474 5.77968 13.7415L2.11523 16.5874C3.97894 20.2896 7.79449 22.8333 12.2271 22.8333V22.8333Z" fill="#34A853"/>
</svg>
