<svg width="97" height="86" viewBox="0 0 97 86" fill="none" xmlns="http://www.w3.org/2000/svg">
<g opacity="0.1">
<path d="M85.4621 40.6086C91.7108 45.6605 95.0666 46.9803 95.9167 46.854C97.9404 42.8188 96.0499 40.9307 94.3498 39.4404C92.6496 37.9501 88.8624 35.4052 86.7372 32.8729C84.612 30.3407 83.7366 23.8995 83.7366 23.8995C82.0365 15.1851 73.4152 9.7859 73.4152 9.7859C79.8796 5.36551 85.5636 9.19861 87.194 10.6321C89.3509 13.8842 92.9668 12.1287 92.9668 12.1287C92.9668 5.88332 85.7349 3.71733 82.2522 2.65644C65.8788 -2.28808 57.0165 13.4738 57.0165 13.4738C52.1191 20.2369 43.1427 24.6826 43.1427 24.6826C43.1427 24.6826 41.0746 31.0985 45.6802 28.8188C49.6641 26.6718 58.095 21.2789 59.0022 20.7548C59.9093 20.2306 69.9135 18.5446 68.9936 24.3984C67.6234 29.5324 61.2859 51.1228 63.2462 59.3826C63.2462 59.3826 68.1499 63.6767 69.7168 55.6758C70.6303 47.416 72.8506 34.0854 77.0312 30.1828C77.0375 30.2207 83.0451 38.6763 85.4621 40.6086Z" fill="#363636"/>
<path d="M22.4485 30.6159C25.9136 30.6159 28.7225 27.8197 28.7225 24.3705C28.7225 20.9213 25.9136 18.1251 22.4485 18.1251C18.9835 18.1251 16.1745 20.9213 16.1745 24.3705C16.1745 27.8197 18.9835 30.6159 22.4485 30.6159Z" fill="#363636"/>
<path d="M53.2798 12.4907C56.7448 12.4907 59.5538 9.6946 59.5538 6.24537C59.5538 2.79615 56.7448 0 53.2798 0C49.8147 0 47.0057 2.79615 47.0057 6.24537C47.0057 9.6946 49.8147 12.4907 53.2798 12.4907Z" fill="#363636"/>
<path d="M16.8716 57.3341C16.8716 57.3341 15.235 76.2786 4.26021 85.4288C4.26021 85.4288 -2.66087 82.5682 4.65352 73.2664C7.32613 68.9344 8.81332 63.9816 8.96729 58.9002C9.10051 56.4248 13.8647 44.1361 14.1946 41.667C14.1946 41.667 8.63741 41.667 3.61313 54.7387C3.61313 54.7387 -2.85753 54.4103 1.51968 46.7378C4.00011 42.4437 9.42403 33.2746 41.3016 26.4482C41.3016 26.4482 44.7019 29.5046 41.2382 31.0012C38.1043 32.2642 25.2328 34.2534 23.6024 48.3607V50.0784C23.6024 50.0784 23.8625 51.7076 30.2634 51.7707C32.027 52.0928 35.294 52.5475 36.5374 60.0305C37.9711 65.6192 39.6712 69.326 37.1718 72.1866C35.6746 72.6413 32.5345 74.3968 29.4641 58.1424L16.8716 57.3341Z" fill="#363636"/>
</g>
</svg>
