<svg width="260" height="30" viewBox="0 0 260 30" fill="none" xmlns="http://www.w3.org/2000/svg">
<g clip-path="url(#clip0_106_1149)">
<path d="M235.914 29.6301C243.497 22.2329 254.15 15.0411 260 12.4521C259.097 11.7945 257.689 10.8493 256.1 9.82193C248.553 12.6575 239.742 18.9452 231.87 26.0548C233.206 27.2055 234.614 28.3973 235.914 29.6301Z" fill="#E31837"/>
<path d="M232.447 9.53424C231.328 8.9178 230.1 8.34245 229.161 7.8493C226.308 9.45204 222.589 11.8767 217.895 15.6986C218.906 16.3151 219.989 17.0548 221.145 17.7945C224.756 14.7534 228.403 11.8767 232.447 9.53424Z" fill="#012169"/>
<path d="M239.2 6.00001C237.828 5.137 233.061 3.1233 229.775 2.26028C228.8 2.67124 227.428 3.28768 226.489 3.73974C227.68 4.1096 232.122 5.46576 235.914 7.64385C236.889 7.1096 238.261 6.45207 239.2 6.00001Z" fill="#E31837"/>
<path d="M223.058 5.46576C218.833 7.68494 214.392 10.726 211.972 12.4932C212.839 12.9452 213.705 13.3151 214.897 13.9726C220.242 9.86302 224.43 7.35617 226.092 6.53425C224.9 6.0411 223.781 5.71233 223.058 5.46576Z" fill="#012169"/>
<path d="M242.378 4.72603C243.353 4.35616 244.472 4.0274 245.447 3.69863C242.631 2.34247 239.092 0.90411 235.914 0C235.409 0.164384 233.892 0.616438 232.845 0.986301C233.928 1.35616 237.503 2.30137 242.378 4.72603ZM224.575 20.1781C225.731 20.9589 226.959 22.0274 228.15 22.9315C236.059 15.9452 243.859 10.5616 252.417 7.52055C251.225 6.82192 250.178 6.20548 248.842 5.46575C243.714 6.94521 234.939 10.9315 224.575 20.1781Z" fill="#E31837"/>
<path d="M0 27.4931H5.77778C8.70278 27.4931 10.075 25.7671 10.075 23.3425C10.075 21.3699 9.17222 20.0548 7.29444 19.6438C8.95556 19.1918 9.71389 18.0411 9.71389 16.3562C9.71389 14.2192 8.34167 12.4931 5.41667 12.4931H0.0361111V27.4931H0ZM5.01944 21.1233C6.10278 21.1233 6.86111 21.7397 6.86111 22.9726C6.86111 24.2877 6.13889 24.8219 5.01944 24.8219H3.14167V21.0822H5.01944V21.1233ZM4.65833 15.1233C5.74167 15.1233 6.5 15.6575 6.5 16.8904C6.5 18.1233 5.77778 18.6575 4.65833 18.6575H3.14167V15.1233H4.65833ZM21.7389 12.452H18.4889L13.5417 27.4931H16.8278L17.7306 24.3699H22.4972L23.4 27.4931H26.7222L21.7389 12.452ZM20.1139 16.0685L21.6667 21.6164H18.4889L20.1139 16.0685ZM43.1889 12.452H40.1917V22.5205L34.5583 12.452H31.2V27.4931H34.1972V17.4657L39.8306 27.4931H43.1889V12.452ZM57.0194 27.4931L52.6861 19.8493V27.4931H49.4722V12.452H52.6861V19.6849L56.8028 12.452H60.3778L56.0444 19.6849L60.775 27.4931H57.0194ZM72.15 19.9726C72.15 22.9726 73.7389 24.8219 75.7972 24.8219C77.8556 24.8219 79.4444 22.9726 79.4444 19.9726C79.4444 16.9726 77.8556 15.1233 75.7972 15.1233C73.7389 15.1233 72.15 16.9726 72.15 19.9726ZM68.7556 19.9726C68.7917 15.5753 71.5 12.1233 75.7972 12.1233C80.0944 12.1233 82.8028 15.5753 82.8389 19.9726C82.8028 24.3699 80.0944 27.8219 75.7972 27.8219C71.5 27.8219 68.7917 24.3699 68.7556 19.9726ZM87.2444 27.4931H90.4583V21.5753H94.6472V18.6986H90.4583V15.3288H95.5139L96.0917 12.452H87.2444V27.4931ZM111.078 12.452H107.828L102.881 27.4931H106.167L107.069 24.3699H111.836L112.739 27.4931H116.061L111.078 12.452ZM109.453 16.0685L111.006 21.6164H107.828L109.453 16.0685ZM135.128 12.452H131.372L127.942 20.589L124.511 12.452H120.756V27.4931H123.644V17.4247L127.906 27.4931L132.167 17.4247V27.4931H135.164L135.128 12.452ZM141.375 27.4931H150.403V24.6164H144.589V21.2466H149.175V18.452H144.589V15.3288H149.897L150.475 12.452H141.375V27.4931ZM162.644 27.4931H166.147L162.861 21.1233C164.667 20.5479 165.533 19.1096 165.533 17.0137C165.533 14.3014 164.089 12.4931 160.839 12.4931H155.747V27.5342H158.889V21.6164H159.756L162.644 27.4931ZM160.225 15.2466C161.561 15.2466 162.247 15.9041 162.247 17.1781C162.247 18.452 161.561 19.1096 160.225 19.1096H158.853V15.2466H160.225ZM170.95 27.4931H174.164V12.4931H170.95V27.4931ZM189.981 23.4657C188.753 24.452 187.669 24.7808 186.55 24.7808C184.094 24.7808 182.361 22.8493 182.361 19.9726C182.361 17.0959 184.058 15.1644 186.442 15.1644C187.525 15.1644 188.608 15.4931 189.8 16.4794V13.0685C188.717 12.3699 187.453 12.0822 186.044 12.0822C181.675 12.0822 178.931 15.5342 178.894 19.9315C178.931 24.3699 181.603 27.7808 186.044 27.7808C187.525 27.7808 188.789 27.4931 189.944 26.7945V23.4657H189.981ZM201.753 12.452H198.503L193.556 27.4931H196.842L197.744 24.3699H202.511L203.414 27.4931H206.736L201.753 12.452ZM200.128 16.0685L201.681 21.6164H198.503L200.128 16.0685Z" fill="#012169"/>
</g>
<defs>
<clipPath id="clip0_106_1149">
<rect width="260" height="30" fill="white"/>
</clipPath>
</defs>
</svg>
