<svg width="260" height="40" viewBox="0 0 260 40" fill="none" xmlns="http://www.w3.org/2000/svg">
<path d="M21.8651 17.3505C26.2195 16.387 31.1182 13.6572 31.1182 9.00041C31.1182 2.09555 23.6794 2.09555 19.8693 2.09555H4.26595C4.99169 2.4167 5.35456 4.18306 5.35456 6.59174C5.35456 9.48214 5.17312 13.4966 4.62882 18.9562L4.44738 21.2043C3.72165 30.6784 3.35878 36.1381 1.54443 37.4227H15.5149C26.2195 37.4227 32.7512 32.6054 32.7512 26.3428C32.9326 20.562 28.2153 17.9928 21.8651 17.3505ZM12.6119 13.8177C12.7934 11.2485 13.1562 8.67925 13.5191 6.27058C14.4263 6.11 15.5149 6.11 16.2406 6.11C20.9579 6.11 23.1351 7.87636 23.1351 10.285C23.1351 14.4601 18.4178 16.0658 13.3377 16.0658H12.4305L12.6119 13.8177ZM15.152 32.9265C12.4305 32.9265 11.3419 32.2842 11.3419 31.9631C11.3419 29.715 11.5233 27.9486 11.7048 25.5399L12.0676 20.4015H14.9706C20.2322 20.4015 24.4052 21.8467 24.4052 26.5034C24.4052 30.6784 20.7765 32.9265 15.152 32.9265ZM249.565 16.8687C245.574 14.6206 241.764 12.6937 241.764 10.1245C241.764 6.91289 244.848 5.62827 248.295 5.62827C252.287 5.62827 255.734 7.71578 257.367 10.285L258.456 1.93497C255.734 1.93497 253.013 1.29266 248.658 1.29266C241.219 1.29266 233.962 3.86191 233.962 11.4091C233.962 16.5476 238.135 19.2774 244.667 22.8101C247.751 24.4159 250.291 26.1823 250.291 28.7515C250.291 31.9631 247.207 33.7294 243.034 33.7294C237.591 33.7294 233.962 30.9996 231.966 27.3063L231.24 36.1381C235.413 37.5833 239.042 38.065 242.489 38.065C251.017 38.065 258.274 33.89 258.274 27.3063C258.274 22.1678 253.92 19.2774 249.565 16.8687ZM221.08 18.3139C223.076 15.4235 232.329 2.4167 234.506 2.09555H223.802C224.164 2.4167 224.346 3.38017 224.346 4.18306C224.346 5.30711 223.802 6.27058 223.257 7.23405C220.717 10.7668 218.903 13.4966 216 17.1899C214.911 14.2995 212.916 10.4456 210.375 5.14653C208.743 1.93497 208.017 1.61381 205.295 1.61381C203.844 1.61381 200.578 1.77439 198.219 1.93497C199.671 2.57728 201.848 5.62827 203.844 8.83983C206.928 13.9783 208.924 18.3139 210.375 22.8101C210.557 25.8611 209.65 35.8169 207.835 37.4227H218.721C217.814 36.6198 217.633 34.5323 217.633 32.9265C217.633 29.0727 217.996 25.54 218.54 22.9707C218.903 21.5255 220.173 19.7591 221.08 18.3139ZM103.692 31.4813L95.5275 21.8467C94.9832 21.2043 94.076 20.0803 93.5317 19.7591C98.7933 18.3139 103.148 15.263 103.148 9.64272C103.148 2.73786 96.4346 2.09555 91.7173 2.09555H76.8397C77.5655 2.4167 77.9283 4.02249 77.9283 6.59174C77.9283 9.48214 77.7469 13.4966 77.2026 18.9562L77.0211 21.2043C76.114 32.1237 75.5697 36.2987 73.9368 37.4227H84.8228C84.0971 37.1016 83.7342 35.3352 83.7342 32.9265C83.7342 30.839 83.9157 27.9486 84.0971 24.2553L84.2785 21.6861H84.46C85.9114 21.6861 86.4557 22.489 87.3629 23.4524L98.6118 37.2621C99.519 38.3862 100.245 38.8679 103.329 38.8679C105.325 38.8679 108.409 38.7074 110.587 38.5468C109.316 37.7439 108.772 37.4227 103.692 31.4813ZM86.8186 17.1899C86.2743 17.1899 85.5486 17.1899 85.0043 17.0293L85.1857 14.6206C85.5486 10.4456 85.73 7.71578 86.0929 6.27058C87 6.11 88.2701 6.11 89.1772 6.11C92.9874 6.11 95.1646 7.71578 95.1646 10.4456C95.1646 14.6206 91.7173 17.1899 86.8186 17.1899ZM64.5022 21.5255L62.8693 16.0658C60.8735 9.64272 58.5148 2.09555 58.5148 2.09555H49.806C50.1689 2.4167 50.3503 3.2196 50.3503 4.02249C50.3503 4.82538 47.6288 10.1245 45.0887 14.9418L42.3672 20.2409C37.4684 29.3938 34.0212 35.0141 31.2997 37.4227H40.9157C40.7343 37.1016 40.7343 36.2987 40.7343 35.8169C40.7343 33.89 42.73 30.5179 43.4558 28.9121L44.363 27.4669H49.0802C53.7975 27.4669 56.7005 26.9852 58.5148 26.3428L59.422 29.3938C62.1435 37.7439 62.5064 37.9045 65.9536 37.9045C67.0423 37.9045 69.7638 37.7439 72.1224 37.5833C69.4009 35.4958 67.5866 30.9996 64.5022 21.5255ZM46.5402 22.489L53.0718 10.1245L57.0634 22.489H46.5402ZM116.937 20.7226C116.937 13.6572 120.384 5.46769 128.911 5.46769C133.266 5.46769 136.532 7.5552 138.346 10.7668L139.435 1.77439C135.987 1.77439 133.992 1.13208 129.637 1.13208C115.848 1.13208 108.591 10.285 108.591 22.0072C108.591 30.5179 114.578 38.065 124.92 38.065C132.903 38.065 137.62 34.5323 139.797 28.5909C134.717 31.8025 131.633 32.6054 128.186 32.6054C121.835 32.6054 116.937 28.4304 116.937 20.7226ZM194.772 21.5255L193.139 16.0658C192.413 13.6572 188.785 2.09555 188.785 2.09555H180.076C180.439 2.4167 180.62 3.2196 180.62 4.02249C180.62 4.98595 178.08 9.96388 175.359 14.9418L172.637 20.2409C170.641 24.2553 168.464 27.9486 166.468 30.9996C163.384 32.766 161.751 32.9265 155.219 32.9265C153.405 32.9265 152.679 32.6054 152.679 30.9996C152.679 27.4669 153.224 23.9342 153.405 20.4015L153.586 18.3139C154.312 8.83983 154.857 3.05902 156.489 2.25613H145.603C146.329 3.05902 146.511 4.34364 146.692 6.75231C146.692 9.64272 146.511 13.6572 145.966 19.1168L145.785 21.3649C145.059 30.839 144.515 35.9775 142.882 37.5833H171.186C171.004 37.2622 171.004 36.4593 171.004 35.9775C171.004 34.0506 172.637 31.3208 173.726 29.0727L174.633 27.6275H179.35C184.067 27.6275 186.97 27.1457 188.785 26.5034L189.692 29.5544C192.413 37.9045 192.776 38.065 196.224 38.065C197.312 38.065 200.215 37.9045 202.392 37.7439C199.489 35.4958 197.675 30.9996 194.772 21.5255ZM176.81 22.489L183.342 10.1245L187.333 22.489H176.81Z" fill="#00AEEF"/>
</svg>
