<svg width="260" height="60" viewBox="0 0 260 60" fill="none" xmlns="http://www.w3.org/2000/svg">
<path d="M1.34912 58.382H54.4503V1.44827H1.34912V58.382Z" fill="#00A870"/>
<path d="M42.796 16.4228C39.506 18.4924 38.5001 18.6544 34.9471 20.9453C37.0129 18.5346 37.7308 17.5125 39.0195 15.4923C35.7347 15.6756 30.9589 16.1 27.54 16.9078C30.5157 15.2189 36.4067 13.3128 39.5099 12.8715C38.7867 11.8043 32.9589 8.42093 31.5099 7.77385C36.1213 8.16012 41.7611 9.99562 44.487 11.7987C45.5876 11.4364 46.6882 11.4152 48.6803 11.2235C48.1727 12.1652 48.1675 12.7123 46.199 14.1009C46.7421 15.6615 45.4482 24.24 44.3778 26.5309C44.3318 22.9289 44.032 18.3881 42.796 16.4228Z" fill="white"/>
<path d="M18.7892 47.2081C16.901 46.4539 15.5387 45.584 14.0489 44.0882C14.4933 42.7701 15.0009 41.7212 15.8451 40.4172C14.3026 40.6512 13.1902 40.8289 11.8621 41.1066C10.7891 39.0779 10.3052 37.1437 9.75692 34.4468C9.45711 37.3072 9.35321 39.3542 9.73454 41.6366C8.5248 41.9877 7.66484 42.3077 6.66943 42.7884C8.05801 43.709 9.18622 44.4196 10.7549 45.1921C11.5899 47.1108 12.4552 48.4261 13.8529 49.9036C13.5268 48.6404 13.4466 47.6324 13.5689 46.3129C15.3151 46.8599 16.8063 47.139 18.7892 47.2081Z" fill="white"/>
<path d="M23.6926 18.6672C23.1009 19.4764 22.4158 20.9975 22.2409 21.7109C27.0877 22.4228 30.9918 25.0915 30.9944 25.0915C26.7261 24.2837 24.5065 24.3838 22.9233 24.5333C21.3388 24.701 21.0219 24.9026 21.0219 24.9026C19.8753 27.5755 19.1968 32.2052 19.1968 32.2052C18.421 30.2132 17.3099 26.2123 17.3099 26.2123C15.1599 27.4416 10.2421 32.4041 10.2421 32.4041H10.2368C12.9456 26.5958 15.6872 23.9298 15.6872 23.9298H15.6912C14.7444 22.9148 12.2671 22.4143 10.4643 22.3255C11.4019 21.9124 13.8161 21.4233 15.6715 21.3359C17.5216 21.271 18.6445 21.3993 18.6511 21.3993C20.3079 19.9909 22.8142 18.8124 23.6926 18.6672Z" fill="white"/>
<path d="M28.8367 43.6075C27.9728 44.8481 27.247 45.8279 26.291 46.9727C24.6565 47.452 23.3534 47.631 21.7637 47.6352C22.7433 48.1695 23.6927 48.5051 24.7065 48.725C23.6927 49.7189 22.8196 50.4238 21.836 51.0977C23.4928 50.6804 25.6875 49.9163 27.3114 48.8928C28.1451 48.9252 28.9432 48.866 29.5231 48.7519C29.3851 48.2147 29.2917 47.8228 29.1549 47.1334C30.6895 45.859 31.8045 44.7114 33.0656 43.3369C31.7164 44.3463 30.5462 45.1075 28.9919 45.8942C28.9183 45.1244 28.8696 44.4731 28.8367 43.6075Z" fill="white"/>
<path d="M74.402 40.7245C78.0115 40.7372 79.358 41.538 79.358 43.6498C79.358 44.2165 79.191 44.7028 78.8754 45.1244C78.1837 46.0055 76.8109 46.465 75.1002 46.3734H75.0121L74.022 49.1746H75.0266C77.0161 49.1098 78.7426 49.7767 79.6249 50.9383C80.0378 51.4754 80.2416 52.0872 80.2416 52.7428C80.2416 54.9646 78.4401 56.091 74.8819 56.091C74.2862 56.091 73.3171 56.0911 72.7017 56.0516C72.5702 53.1333 72.5624 49.1605 72.5624 47.9848C72.5624 46.599 72.6189 43.4961 72.7096 40.85C73.1028 40.7752 73.7852 40.716 74.402 40.7245ZM67.73 38.6986C67.8759 40.7978 67.9785 46.0576 67.9785 47.9848C67.9785 49.7442 67.9561 55.6666 67.7023 58.224L67.6826 58.4341L76.3257 58.4397C80.5401 58.4397 85.0464 57.0074 85.0464 52.9712C85.0464 50.4407 83.3422 48.5727 80.1482 47.5422C82.4862 46.8739 84.0865 45.1272 84.0865 43.1225C84.0865 39.8293 80.5546 38.5873 77.2554 38.5083L67.7168 38.4957L67.73 38.6986Z" fill="black"/>
<path d="M104.969 38.4956H100.78L100.96 43.5088C101.035 46.0125 101.103 48.5614 101.267 51.0398C100.979 50.2743 100.745 49.864 99.4923 47.8776C99.4476 47.8114 95.0964 40.5948 93.5764 38.552L93.5369 38.4956H88.6454L88.6572 38.6887C88.8005 40.7879 88.9005 46.045 88.9005 47.9849C88.9005 49.74 88.8834 55.6667 88.6322 58.224L88.6099 58.4284H92.9505L92.9413 58.2381C92.6822 53.3546 92.6822 48.45 92.6822 43.7075V43.6962C92.8348 44.2602 93.0399 44.786 93.721 45.8687C93.796 45.9886 101.25 57.6629 101.629 58.3566L101.671 58.4284H105.158L105.14 58.224C104.885 55.6625 104.864 49.74 104.864 47.9849C104.864 46.045 104.969 40.7851 105.11 38.6887L105.124 38.4956H104.969Z" fill="black"/>
<path d="M116.359 40.8924C118.774 40.8458 120.484 41.383 121.299 42.4643C121.67 42.9577 121.858 43.5653 121.858 44.2758C121.858 47.1616 118.846 47.7706 116.318 47.7706L115.29 47.7354C115.29 47.7354 115.041 47.6931 114.883 47.6719C114.865 47.0051 114.861 46.1465 114.861 45.1498C114.861 43.8782 114.877 42.4191 114.919 41.0263C115.241 40.967 115.801 40.9079 116.359 40.8924ZM110.018 38.6874C110.159 40.7979 110.26 46.0451 110.26 47.985C110.26 49.7401 110.248 55.6625 109.989 58.2227L109.975 58.4229H115.148L115.121 58.2227C114.945 56.3942 114.883 52.8923 114.861 50.194C115.078 50.2053 115.805 50.2518 115.805 50.2518L116.536 50.2828C123.355 50.2828 126.669 48.3275 126.669 44.2758C126.669 39.6616 122.022 38.5888 118.131 38.4957L110.009 38.4887L110.018 38.6874Z" fill="black"/>
<path d="M142.892 40.8924C145.307 40.8458 147.017 41.383 147.835 42.4643C148.201 42.9577 148.391 43.5653 148.391 44.2758C148.391 47.1616 145.384 47.7706 142.848 47.7706L141.823 47.7354C141.823 47.7354 141.569 47.6931 141.42 47.6719C141.405 47.0051 141.389 46.1269 141.389 45.14C141.389 43.867 141.407 42.4191 141.452 41.0263C141.774 40.967 142.336 40.9079 142.892 40.8924ZM136.55 38.6874C136.694 40.7979 136.8 46.0451 136.8 47.985C136.8 49.7401 136.777 55.6625 136.523 58.2227L136.502 58.4229H141.678L141.658 58.2227C141.482 56.3942 141.416 52.8923 141.391 50.194C141.608 50.2053 142.341 50.2518 142.341 50.2518L143.073 50.2828C149.887 50.2828 153.205 48.3275 153.205 44.2758C153.205 39.6616 148.556 38.5888 144.66 38.4957L136.543 38.4887L136.55 38.6874Z" fill="black"/>
<path d="M161.393 44.3744C161.81 45.3119 162.867 47.9848 164.066 51.1329C163.885 51.1343 163.672 51.1428 163.672 51.1428L161.393 51.1808C161.393 51.1808 159.038 51.1342 158.67 51.1272C159.636 48.5896 160.576 46.3128 161.393 44.3744ZM160.135 38.5083H160.048L160.015 38.6141C159.049 41.4505 152.86 55.9486 151.893 58.1676L151.773 58.4397H156.215L156.24 58.3227C156.633 56.9651 157.126 55.4214 157.71 53.7494C157.87 53.7452 161.376 53.6916 161.376 53.6916L164.398 53.7339C164.398 53.7339 164.93 53.7452 165.059 53.7452C165.864 55.8993 166.454 57.5276 166.715 58.3284L166.75 58.4397H171.886L163.605 38.5083H160.135Z" fill="black"/>
<path d="M173.937 38.6887C174.074 40.7879 174.185 46.0449 174.185 47.9848C174.185 49.74 174.167 55.6625 173.899 58.2226L173.885 58.4284H179.06L179.041 58.224C178.783 55.6568 178.763 49.74 178.763 47.9848C178.763 46.599 178.818 43.4905 178.91 41.0177C179.339 40.967 179.92 40.9078 180.316 40.9007C182.728 40.85 184.44 41.397 185.254 42.4712C185.623 42.9576 185.819 43.5666 185.819 44.2757C185.819 46.5779 183.799 47.7396 181.924 47.8495C181.298 47.8777 180.822 47.7875 180.822 47.7875L180.463 47.724L180.693 48.0835C182.508 50.9637 185.264 55.9712 186.427 58.3565L186.463 58.4397H192.01L191.843 58.1409C191.65 57.8237 188.019 52.114 186.475 49.6737C186.475 49.6737 186.427 49.5891 186.377 49.5215C189.197 48.6023 190.582 46.8894 190.582 44.2757C190.582 39.6615 185.935 38.5887 182.04 38.5012L173.919 38.4957L173.937 38.6887Z" fill="black"/>
<path d="M199.359 38.4844H194.399L194.422 38.6803C194.56 40.7879 194.665 46.045 194.665 47.9735C194.665 49.7301 194.642 55.6512 194.39 58.2127L194.368 58.42H199.538L199.518 58.2127C199.264 55.6512 199.242 49.7301 199.242 47.9735C199.242 46.045 199.351 40.7851 199.491 38.6803L199.504 38.4844H199.359Z" fill="black"/>
<path d="M210.879 40.7245C214.483 40.7372 215.827 41.538 215.827 43.6498C215.827 44.2165 215.663 44.7028 215.343 45.1244C214.662 46.0055 213.278 46.465 211.573 46.3734H211.484L210.494 49.1746H211.508C213.497 49.1098 215.208 49.7767 216.097 50.9383C216.507 51.4754 216.711 52.0872 216.711 52.7428C216.711 54.9646 214.909 56.091 211.354 56.091C210.757 56.091 209.781 56.0911 209.163 56.0516C209.041 53.1333 209.037 49.1605 209.037 47.9848C209.037 46.5919 209.092 43.4905 209.179 40.85C209.576 40.7752 210.255 40.716 210.879 40.7245ZM204.204 38.6986C204.341 40.7978 204.448 46.0576 204.448 47.9848C204.448 49.7442 204.432 55.6666 204.172 58.224L204.148 58.4341L212.795 58.4397C217.016 58.4397 221.521 57.0074 221.521 52.9712C221.521 50.4407 219.813 48.5727 216.61 47.5422C218.958 46.8739 220.557 45.1272 220.557 43.1225C220.557 39.8293 217.029 38.5873 213.723 38.5083L204.191 38.4957L204.204 38.6986Z" fill="black"/>
<path d="M232.113 44.3519C232.526 45.2908 233.576 47.9651 234.782 51.1033C234.6 51.1089 234.392 51.1273 234.392 51.1273L232.11 51.1596C232.11 51.1596 229.763 51.1089 229.39 51.1033C230.342 48.5727 231.29 46.2959 232.113 44.3519ZM234.246 38.4844H230.763L230.728 38.5887C229.707 41.6042 223.152 56.8918 222.609 58.1508L222.486 58.42H226.929L226.96 58.3016C227.344 56.9454 227.842 55.4088 228.427 53.734C228.584 53.7227 232.089 53.6719 232.089 53.6719L235.118 53.717C235.118 53.717 235.646 53.7227 235.78 53.734C236.581 55.8796 237.173 57.505 237.432 58.3114L237.467 58.42H242.602L234.325 38.4844H234.246Z" fill="black"/>
<path d="M244.05 43.6527C244.05 47.1616 247.34 48.577 250.239 49.843C252.494 50.8171 254.822 51.835 254.822 53.5028C254.822 54.0075 254.709 54.4163 254.463 54.7251C253.928 55.4116 252.814 55.6992 251.065 55.6132C249.363 55.5258 247.407 54.9308 245.246 53.8538L244.336 53.4055L244.34 54.1766V57.7617L244.932 57.8998L245.296 57.9773C246.381 58.2579 248.444 58.7838 250.527 58.7838C255.985 58.7838 259.244 56.4661 259.244 52.5977C259.244 49.0013 255.882 47.5648 252.913 46.296C250.719 45.3627 248.459 44.3956 248.459 42.8674C248.459 42.4191 248.459 41.0798 251.264 41.0798C253.364 41.0798 255.415 41.9962 256.529 42.4854L257.588 42.9576L257.581 42.2063V38.5873L256.529 38.3801C255.473 38.1658 253.713 37.7965 251.884 37.7965C247.194 37.7965 244.05 40.1522 244.05 43.6527Z" fill="black"/>
</svg>
