<svg width="260" height="70" viewBox="0 0 260 70" fill="none" xmlns="http://www.w3.org/2000/svg">
<path d="M33.2805 55.3343L33.0952 55.5126C30.1081 58.5384 26.6507 60.1421 23.0883 60.1421C15.6521 60.1421 10.2542 54.5955 10.2542 46.9424C10.2542 39.3031 15.6521 33.7487 23.0883 33.7487C26.6507 33.7487 30.1081 35.359 33.0952 38.3929L33.2805 38.5765L38.0628 32.827L37.935 32.671C33.9578 27.9981 29.1858 25.7232 23.3191 25.7232C17.4321 25.7232 12.0507 27.6931 8.1723 31.2456C3.95831 35.0927 1.7334 40.5181 1.7334 46.9424C1.7334 53.3635 3.95831 58.8024 8.1723 62.6505C12.0507 66.2194 17.4321 68.1784 23.3191 68.1784C29.1858 68.1784 33.9578 65.9049 37.935 61.23L38.0628 61.0849L33.2805 55.3343Z" fill="#003B70"/>
<path d="M42.8955 67.3959H51.344V26.3895H42.8955V67.3959Z" fill="#003B70"/>
<path d="M84.4372 58.4794C82.1832 59.844 80.0855 60.53 78.2018 60.53C75.4723 60.53 74.2388 59.0976 74.2388 55.907V34.1489H82.843V26.4269H74.2388V13.6676L65.958 18.0738V26.4269H58.8145V34.1489H65.958V57.295C65.958 63.6012 69.715 67.9092 75.3233 68.0212C79.1313 68.0954 81.427 66.9675 82.8212 66.1429L82.9029 66.0826L84.9369 58.1759L84.4372 58.4794Z" fill="#003B70"/>
<path d="M91.4346 67.3959H99.8886V26.3895H91.4346V67.3959Z" fill="#003B70"/>
<path d="M234.634 10.7868V49.9027L237.265 45.8297C237.263 45.8477 249.089 28.821 250.605 26.6498H255.875C254.753 28.1485 245.455 40.8718 245.455 40.8718C245.455 40.8718 257.567 65.9663 258.267 67.3959H253.091C252.807 66.8104 242.402 44.9093 242.402 44.9093L234.634 55.7313V67.3959H229.812V13.5247C230.233 13.284 233.499 11.4229 234.634 10.7868ZM195.023 31.5077C197.51 27.8106 201.408 25.7721 205.967 25.7721C215.058 25.7721 219.876 31.5372 219.876 42.4466V67.3959H215.042V43.4796C215.042 34.1982 211.801 29.8897 204.779 29.8897C198.059 29.8897 194.046 34.9722 194.046 43.4796V67.3959H189.226V26.6498H194.046V32.9685L195.023 31.5077ZM165.387 25.7721C174.742 25.7721 179.29 30.0257 179.29 38.7784V67.3959H174.468V61.4513L173.529 62.4801C169.981 66.3731 165.907 68.2766 161.057 68.2766C157.256 68.2766 148.413 67.0259 148.413 55.4263C148.413 45.9449 156.285 42.5796 163.659 42.5796C167.362 42.5796 171.02 43.4273 173.674 44.9063L174.468 45.3436V39.494C174.468 33.0085 171.282 29.724 164.987 29.724C161.105 29.724 157.601 30.6982 154.009 32.7114C153.692 31.9873 152.577 29.5378 152.267 28.839C156.022 26.8715 160.658 25.7721 165.387 25.7721ZM153.142 55.027C153.142 61.118 156.316 64.4748 162.083 64.4748C166.991 64.4748 171.35 62.1692 174.377 57.9763L174.468 57.8325V48.8991L174.2 48.7448C171.122 47.0003 167.97 46.2966 163.336 46.2966C156.958 46.2966 153.142 49.5594 153.142 55.027ZM115.908 10.7868V32.5837L116.841 31.5674C120.393 27.6674 124.324 25.7721 128.843 25.7721C137.887 25.7721 143.078 33.2673 143.078 46.3393C143.078 59.665 137.182 68.2766 128.054 68.2766C123.606 68.2766 120.045 66.5609 116.846 62.883L115.908 61.797V67.3959H111.096V13.5247C111.505 13.284 114.777 11.4229 115.908 10.7868ZM116.022 36.1338L115.908 36.2843V57.4945L115.994 57.6246C118.654 61.7174 122.987 64.1645 127.599 64.1645C134.721 64.1645 138.332 58.1957 138.332 46.4262C138.332 35.9122 134.332 29.8897 127.358 29.8897C123.131 29.8897 119.317 31.9897 116.022 36.1338Z" fill="#003B70"/>
<path fill-rule="evenodd" clip-rule="evenodd" d="M104.949 19.1134C97.2152 8.22169 84.3716 1.72342 71.3043 1.72342C58.2424 1.72342 45.3963 8.22169 37.6754 19.1134L37.2793 19.6738H47.0171L47.1251 19.5576C53.7529 12.756 62.4048 9.15912 71.3043 9.15912C80.2049 9.15912 88.8552 12.756 95.4958 19.5576L95.6035 19.6738H105.338L104.949 19.1134Z" fill="#D9261C"/>
</svg>
