<svg width="260" height="50" viewBox="0 0 260 50" fill="none" xmlns="http://www.w3.org/2000/svg">
<path d="M7.96185 47.8292H1.73242V28.9363H7.96185C14.5524 28.9363 18.0847 32.1506 18.0847 38.3698C18.0847 44.536 15.1505 47.8292 7.96185 47.8292ZM7.51045 31.8104H5.46783V44.954H7.46531C12.6114 45.0588 14.2703 42.5508 14.2703 38.3957C14.2703 33.8226 11.8891 31.8104 7.51045 31.8104Z" fill="#1C62B7"/>
<path d="M23.795 39.8592C23.8966 38.1343 24.743 36.5401 26.6953 36.5401C28.5912 36.5401 29.5279 37.9507 29.4489 39.8592H23.795ZM26.8081 34.3195C21.8314 34.3195 20.1047 37.847 20.1047 41.165C20.1047 45.1117 22.0909 48.0636 26.3342 48.1943C29.7084 48.2213 32.699 47.2017 32.9022 43.5175H29.4489C29.4489 45.0069 28.2414 45.9736 26.8307 45.9736C24.4495 45.9736 23.6934 44.2228 23.6596 42.0799L33.1956 42.054C33.4777 38.1343 31.7736 34.3195 26.8081 34.3195Z" fill="#1C62B7"/>
<path d="M48.5098 47.8292H44.9437L44.9211 45.6863C44.323 47.3842 42.6641 48.2472 40.6327 48.2472C38.2177 48.2472 35.9381 46.7837 35.9155 43.282V34.7893H39.5268V42.7852C39.5042 44.6667 40.2378 45.7122 42.0095 45.7381C43.612 45.7381 44.9211 44.8233 44.9211 42.2895V34.7893H48.5098V47.8292Z" fill="#1C62B7"/>
<path d="M53.1366 34.8422V32.7771L56.6237 30.9485V34.8422H59.9529V37.3761H56.6237V43.6741C56.6237 44.954 57.0639 45.6863 58.373 45.7382C58.8695 45.7382 59.3209 45.79 59.9754 45.6075V47.8552C58.2714 48.0906 56.3078 48.5345 54.6827 47.6715C53.4526 47.0192 53.1366 45.8689 53.1366 44.0403V37.3761H50.3379V34.8422H53.1366Z" fill="#1C62B7"/>
<path d="M73.5064 42.2106C74.082 43.3609 74.0594 44.8763 73.3484 45.9218C72.1183 47.8022 69.4437 48.2731 67.3786 48.2213C64.4444 48.0377 61.8375 47.2805 61.9617 43.7789H65.5278C65.4939 45.2942 66.4419 45.8429 67.7961 45.8948C69.1052 45.8948 70.4143 45.4508 70.4143 44.2487C70.4143 43.282 69.5002 42.864 68.3265 42.6027C66.9836 42.3154 66.0243 42.1847 64.5234 41.583C63.3272 41.0084 62.1422 40.0417 62.1422 38.2132C62.1422 36.6967 63.3272 35.5475 64.8732 34.92C65.9115 34.4761 67.198 34.3454 68.3039 34.3454C70.7867 34.3454 73.4839 35.2073 73.3259 38.3428H69.9742C69.9742 37.8729 69.8726 37.3502 69.4776 37.037C68.7441 36.3835 66.487 36.3046 65.7873 37.3761C64.9974 39.2058 67.435 39.3365 70.1321 40.0677C71.8362 40.4597 72.9873 41.165 73.5064 42.2106Z" fill="#1C62B7"/>
<path d="M82.4331 34.2924C85.2883 34.2924 88.245 35.5993 88.245 39.1799L84.7353 39.1528C84.7353 37.4809 83.8212 36.4612 82.0946 36.5401C81.6432 36.566 81.1692 36.7226 80.7855 36.9322C79.7021 37.5597 79.3636 39.3106 79.3636 41.0614C79.3636 42.9159 79.815 44.7196 80.6275 45.372C81.1692 45.8947 82.1397 46.0525 82.9748 45.8947C84.3629 45.6604 84.7805 44.3005 84.8143 43.1254L88.245 43.0995C88.2902 46.8355 85.2319 48.2472 82.0382 48.1943C77.7723 48.0377 75.8087 45.2683 75.8087 41.165C75.8087 37.011 78.1899 34.2924 82.4331 34.2924Z" fill="#1C62B7"/>
<path d="M91.0098 28.9622H94.621V36.8533C95.569 35.1814 96.9796 34.4502 98.8868 34.4502C101.302 34.4502 103.581 36.2528 103.581 38.8396V47.8292H100.015V39.8322C100.015 38.0555 99.2593 36.8804 97.5552 36.8804C95.964 36.8804 94.5985 37.9248 94.5985 40.3291V47.8292H91.0098V28.9622Z" fill="#1C62B7"/>
<path d="M110.07 39.8592C110.172 38.1343 111.007 36.5401 112.971 36.5401C114.855 36.5401 115.803 37.9507 115.724 39.8592H110.07ZM113.084 34.3195C108.107 34.3195 106.38 37.847 106.38 41.165C106.38 45.1117 108.366 48.0636 112.61 48.1943C115.984 48.2213 118.974 47.2017 119.178 43.5175H115.724C115.724 45.0069 114.517 45.9736 113.106 45.9736C110.725 45.9736 109.969 44.2228 109.935 42.0799L119.471 42.054C119.753 38.1343 118.049 34.3195 113.084 34.3195Z" fill="#1C62B7"/>
<path d="M141.737 47.2806C140.518 47.6715 138.938 47.8292 137.245 47.8292H130.406V28.9881H137.685C140.936 28.9881 144.332 30.0078 144.468 33.6401C144.547 35.9396 142.978 37.402 141.015 38.0555C142.527 38.4475 143.757 38.8915 144.592 40.3032C145.326 41.5571 145.382 43.2302 144.784 44.6149C144.152 45.9218 143.181 46.7837 141.737 47.2806ZM137.685 31.8104H133.995V36.6967H137.742C139.706 36.6967 140.721 35.8867 140.721 34.2924C140.721 32.803 139.548 31.8104 137.685 31.8104ZM138.058 39.519L133.995 39.4931V45.0329H137.922C140.541 45.0329 141.376 43.7519 141.376 42.1588C141.376 40.9307 140.484 39.4931 138.058 39.519Z" fill="#1C62B7"/>
<path d="M153.157 45.9477C151.826 45.8429 151.036 45.1895 151.036 43.9355C151.058 41.1921 154.546 41.4794 156.351 41.4794C156.43 43.6482 156.25 45.8947 153.157 45.9477ZM159.782 38.3698C159.782 35.7041 156.904 34.3713 153.575 34.3972C150.404 34.4502 148.102 35.4687 148.057 38.5264H151.532C151.453 37.1147 152.424 36.3835 153.71 36.3576C155.64 36.3576 156.509 37.2454 156.329 39.4412C154.41 39.5449 151.848 39.4142 149.941 40.3031C148.553 40.9566 147.481 42.1847 147.481 44.1439C147.481 46.653 149.23 48.1683 151.792 48.2472C153.631 48.4297 155.719 47.6197 156.532 45.9218L156.667 47.8292H159.782C159.782 44.6667 159.782 41.5571 159.782 38.3698Z" fill="#1C62B7"/>
<path d="M163.258 34.7893H166.869V36.8804C167.817 35.1814 169.543 34.4502 171.484 34.4502C173.651 34.4502 175.874 35.7041 175.874 38.8396V47.8292H172.263V39.8322C172.286 38.1343 171.451 36.8804 169.803 36.8804C168.178 36.8804 166.846 37.9248 166.846 40.3291V47.8292H163.258V34.7893Z" fill="#1C62B7"/>
<path d="M188.514 47.8292L183.018 40.355L187.995 34.7893H192.238L187.081 40.2243L193.152 47.8292H188.514ZM179.362 28.9622H182.916V47.8292H179.362V28.9622Z" fill="#1C62B7"/>
<path d="M212.303 1.72748H258.268V47.8022H212.303V1.72748ZM240.234 12.6403L222.279 36.6978H230.393L248.416 12.6403H240.234ZM218.702 41.4208H251.869V8.11H218.702V41.4208Z" fill="#1C62B7"/>
</svg>
