<svg width="260" height="40" viewBox="0 0 260 40" fill="none" xmlns="http://www.w3.org/2000/svg">
<g clip-path="url(#clip0_106_1092)">
<mask id="mask0_106_1092" style="mask-type:luminance" maskUnits="userSpaceOnUse" x="-60" y="-228" width="770" height="577">
<path d="M-59.7424 -227.764H709.619V348.236H-59.7424V-227.764Z" fill="white"/>
</mask>
<g mask="url(#mask0_106_1092)">
<path fill-rule="evenodd" clip-rule="evenodd" d="M5.932 9.22928C5.932 3.24567 5.932 2.01616 2.18624 1.63911H1.35573C0.965903 1.22928 1.35573 0.425999 1.35573 0.0489502C3.01675 0.0489502 3.83031 0.425999 5.1015 0.425999H19.9659C24.0845 0.425999 27.7795 0.425999 28.2201 0.0489502C28.61 1.22928 29.0506 5.22928 29.4405 7.99977C29.0506 8.426 28.2201 8.426 27.7795 7.99977C26.949 5.22928 26.5761 3.24567 23.271 2.44239C21.9998 2.01616 19.9659 2.01616 17.4913 2.01616H12.9151C11.271 2.01616 11.271 2.44239 11.271 4.426V16.426C11.271 18.0162 11.271 18.0162 12.9151 18.0162H16.6608C19.1354 18.0162 21.1693 17.6063 21.61 17.6063C22.4405 17.2293 22.8303 16.803 23.271 15.6227L23.6608 13.2293C24.0845 12.803 24.9151 12.803 25.3049 13.2293C25.3049 14.3932 24.9151 16.803 24.9151 19.1965C24.9151 21.1801 25.3049 23.5735 25.3049 24.803C24.9151 25.1801 24.0845 25.1801 23.6608 24.803L23.271 22.3932C22.8303 21.6063 22.4405 20.3768 21.1693 20.3768C20.3557 19.9998 19.1354 19.9998 16.6608 19.9998H12.9151C11.271 19.9998 11.271 19.9998 11.271 21.6063V29.9834C11.271 32.7539 11.271 35.1473 12.1015 35.9506C12.9151 36.7539 14.1862 37.1801 19.5252 37.1801C24.4744 37.1801 26.1354 37.1801 27.3896 36.3768C28.61 35.9506 30.254 33.9834 31.5252 30.7703C32.3557 30.3932 33.1693 30.7703 33.1693 31.1473C32.7286 33.1801 31.0845 37.5571 30.6947 39.1473H0.542174C0.152344 39.1473 0.152344 38.3604 0.152344 37.9834L2.18624 37.5571C5.932 37.5571 5.932 36.3768 5.932 30.3932V9.22928ZM41.8134 20.0162C40.1693 16.0162 39.7795 15.5899 38.5083 15.2129L36.4744 14.7867C36.0337 14.4096 36.0337 13.6063 36.4744 13.6063H48.0337C48.4235 13.6063 48.4235 14.7867 48.0337 14.7867L46.7795 15.2129C45.1184 15.2129 45.1184 16.0162 46.3896 18.7867L49.254 25.5571C50.8981 28.7703 51.7286 31.1637 52.9828 32.7703C54.2032 30.3604 55.0337 27.967 56.2879 25.5571C57.5083 22.7867 59.1523 18.7867 59.9828 17.1965C60.4235 16.0162 59.9829 15.5899 58.3388 15.2129L57.5083 14.7867C56.6778 14.4096 57.1184 13.6063 57.5083 13.6063H66.593C67.4235 13.6063 67.4235 14.7867 67.0337 14.7867L65.3727 15.2129C63.7286 15.5899 63.2879 16.0162 61.254 20.0162L56.6778 29.5571C54.6439 33.5571 52.9828 37.9342 52.1693 39.5408C52.1693 39.967 51.7286 39.967 51.7286 39.967C51.3388 39.967 50.8981 39.967 50.8981 39.5408C50.5083 38.3604 49.6947 36.344 48.8642 34.7375L41.8134 20.0162ZM75.271 19.6391C75.271 15.6391 74.8473 15.6391 72.7964 15.2621L71.9659 14.8358C71.5422 14.8358 71.5422 13.6719 71.9659 13.6719H91.7964C91.7964 14.049 92.1862 16.8686 92.61 19.6391C92.1862 20.0162 91.3557 20.0162 90.9659 19.6391C90.5252 18.049 90.1354 17.2457 89.6947 16.8686C88.8811 15.2621 86.0167 15.2621 84.7456 15.2621H81.8812C79.7964 15.2621 79.7964 15.2621 79.7964 17.2457V23.6391C79.7964 24.8194 79.7964 24.8194 81.0506 24.8194H83.9151C87.2201 24.8194 87.2201 24.4424 88.0506 22.8358V21.6227C88.4913 21.2457 89.3049 21.2457 89.6947 21.6227V30.049C89.3049 30.426 88.4913 30.426 88.0506 30.049V29.2457C87.2201 27.2129 87.2201 26.8358 83.9151 26.8358H81.0506C79.7964 26.8358 79.7964 26.8358 79.7964 28.0162V32.3932C79.7964 33.9998 79.7964 36.0162 80.6269 36.8194C81.0506 37.1965 82.271 37.6227 85.5761 37.6227C89.6947 37.6227 91.7964 37.1965 93.4405 32.3932C93.8303 32.0162 95.1015 32.3932 95.1015 32.8194C94.6608 35.2129 93.8303 38.426 93.4405 39.2129H70.7117C70.3218 39.2129 70.3218 37.9998 70.7117 37.9998L72.3557 37.6227C74.8473 37.6227 75.271 37.1965 75.271 32.8194V19.6391ZM105.39 20.4424C105.39 16.8686 105.39 15.6391 104.169 15.6391L102.525 15.2621C101.695 15.2621 101.695 14.0326 102.525 13.6555H112.44C118.22 13.6555 124.39 14.4588 124.39 20.4424C124.39 24.4424 121.085 26.0326 118.593 26.8358V27.6391C121.898 32.8194 124.39 35.5899 126.474 37.1965C127.678 37.9998 128.949 38.4096 129.779 38.4096C130.169 38.4096 130.169 39.2129 129.779 39.2129C129.339 39.5899 128.508 39.5899 127.288 39.5899C123.559 39.5899 121.508 38.4096 118.593 35.2129C116.949 33.1965 115.305 30.7867 114.085 28.8194C113.644 28.0162 112.813 28.0162 112 28.0162C110.339 28.0162 109.949 28.0162 109.949 28.8194V32.8194C109.949 37.1965 110.339 37.1965 112.813 37.6227L114.474 37.9998C114.915 37.9998 114.915 39.2129 114.085 39.2129H101.695C101.254 39.2129 101.254 37.9998 101.695 37.9998L102.525 37.6227C105.39 37.1965 105.39 37.1965 105.39 32.8194V20.4424ZM109.949 24.8194C109.949 26.4096 110.339 26.4096 113.254 26.4096C116.949 26.4096 119.034 24.8194 119.034 20.8194C119.034 17.6227 116.949 15.2621 112.813 15.2621C110.339 15.2621 109.949 15.2621 109.949 16.8194V24.8194ZM158.678 14.0326C158.678 15.2621 158.678 18.0326 159.068 20.4424C158.678 20.8686 157.847 20.8686 157.407 20.4424C156.576 17.2457 154.542 14.4588 149.152 14.4588C143.813 14.4588 138.424 18.0326 138.424 26.0326C138.424 34.0326 143.813 38.4096 149.593 38.4096C155.373 38.4096 157.847 34.0326 158.237 32.4424C158.678 32.0162 159.491 32.0162 159.881 32.4424C159.491 35.2129 158.678 37.6227 157.847 38.7867C156.203 39.2129 153.712 40.0162 149.593 40.0162C145.847 40.0162 142.152 39.2129 138.847 37.1965C135.559 35.2129 133.068 31.6391 133.068 26.8358C133.068 22.0326 135.118 18.4588 138.424 16.4424C141.339 14.0326 145.457 12.8686 149.983 12.8686C154.101 12.8686 157.847 14.0326 158.678 14.0326ZM196.271 26.4096C196.271 34.4096 190.051 40.0162 181.356 40.0162C171.881 40.0162 166.491 34.0326 166.491 26.8358C166.491 18.8358 172.712 12.8686 181.356 12.8686C191.305 12.8686 196.271 19.2621 196.271 26.4096ZM171.881 25.6227C171.881 31.6391 174.746 38.4096 181.796 38.4096C186.356 38.4096 190.881 35.2129 190.881 27.2129C190.881 20.8686 187.576 14.4588 180.966 14.4588C176.407 14.4588 171.881 17.2457 171.881 25.6227ZM207.83 20.4424C207.83 16.8686 207.83 15.6391 206.169 15.6391L204.525 15.2621C204.085 15.2621 204.085 14.0326 204.525 13.6555H214.813C220.203 13.6555 226.373 14.4588 226.373 20.4424C226.373 24.4424 223.508 26.0326 221.034 26.8358V27.6391C224.339 32.8194 226.813 35.6391 228.864 37.1965C230.118 37.9998 230.949 38.4096 232.152 38.4096V39.2129C231.339 39.5899 230.508 39.5899 229.678 39.5899C225.983 39.5899 223.508 38.4096 221.034 35.2129C219.39 33.2457 217.729 30.8358 216.474 28.8194C216.085 28.0162 215.254 28.0162 214 28.0162C212.339 28.0162 212.339 28.0162 212.339 28.8194V32.8194C212.339 37.1965 212.779 37.1965 215.254 37.6227L216.915 37.9998C217.305 37.9998 216.915 39.2129 216.474 39.2129H204.085C203.695 39.2129 203.695 37.9998 204.085 37.9998L204.915 37.6227C207.39 37.1965 207.83 37.1965 207.83 32.8194V20.4424ZM212.339 24.8194C212.339 26.4096 212.339 26.4096 215.644 26.4096C219.39 26.4096 221.424 24.8194 221.424 20.8686C221.424 17.6555 219.39 15.2621 215.254 15.2621C212.779 15.2621 212.339 15.2621 212.339 16.8686V24.8194ZM239.593 19.6391C239.593 15.6391 239.593 15.6391 237.118 15.2129L236.288 14.8358C235.898 14.8358 235.898 13.6063 236.288 13.6063H256.542C256.542 14.0326 256.932 16.8194 256.932 19.6391C256.932 20.0162 255.712 20.0162 255.712 19.6391C255.271 18.0326 254.898 17.2293 254.457 16.8194C253.627 15.2129 250.762 15.2129 249.118 15.2129H246.627C244.542 15.2129 244.542 15.2129 244.542 17.2293V23.5899C244.542 24.8194 244.542 24.8194 245.373 24.8194H248.288C251.593 24.8194 251.983 24.3932 252.407 22.7867L252.796 21.6063C252.796 21.1965 254.068 21.1965 254.068 21.6063V29.9834C254.068 30.4096 252.796 30.4096 252.796 29.9834L252.407 29.1965C251.983 27.2129 251.593 26.7867 248.288 26.7867H245.373C244.542 26.7867 244.542 26.7867 244.542 28.0162V32.3932C244.542 33.9834 244.542 35.967 244.983 36.7703C245.813 37.1965 246.627 37.5735 250.322 37.5735C254.068 37.5735 256.101 37.1965 258.186 32.3932C258.576 31.967 259.407 32.3932 259.847 32.7703C259.407 35.1637 258.576 38.3604 257.763 39.1637H235.457C235.068 39.1637 234.644 37.9834 235.068 37.9834L236.729 37.5735C239.593 37.5735 239.593 37.1965 239.593 32.7703V19.6391Z" fill="#264E83"/>
</g>
</g>
<defs>
<clipPath id="clip0_106_1092">
<rect width="260" height="40" fill="white"/>
</clipPath>
</defs>
</svg>
