<svg width="261" height="108" viewBox="0 0 261 108" fill="none" xmlns="http://www.w3.org/2000/svg">
<path fill-rule="evenodd" clip-rule="evenodd" d="M242.324 50.0239H232.083V9.66295H241.722V14.1815C242.927 11.4702 245.939 9.05992 249.856 8.75921C256.482 8.4585 261 12.374 261 20.808V50.0239H250.457V19.6037C250.457 15.989 250.457 12.977 248.048 12.374C247.144 12.0735 245.639 12.374 244.432 13.2759C242.927 14.7827 242.324 16.5902 242.324 19.6037C242.324 20.205 242.324 50.0239 242.324 50.0239Z" fill="#64A8F0"/>
<path fill-rule="evenodd" clip-rule="evenodd" d="M68.2248 12.3745C65.8161 10.2664 62.8026 8.75967 59.1878 8.75967C55.5748 8.75967 52.8636 10.2664 50.1525 12.3745C45.9345 15.9894 43.2251 22.616 43.2251 29.8439C43.2251 37.3742 45.9345 43.6984 50.1525 47.315C52.8636 49.4232 55.5748 50.9281 59.1878 50.9281C62.8026 50.9281 65.8161 49.4232 68.2248 47.315C72.7435 43.6984 75.1523 37.3742 75.1523 29.8439C75.1523 22.616 72.7435 15.9894 68.2248 12.3745ZM64.3093 29.8439C64.3093 37.3742 64.3093 43.3995 63.1033 46.4114C62.2013 47.9164 61.296 48.8201 59.1878 48.8201C57.3821 48.8201 56.1778 47.9164 55.5748 46.4114C54.068 43.3995 54.068 37.3742 54.068 29.8439C54.068 22.616 54.068 16.29 55.5748 13.2764C56.1778 11.7714 57.3821 10.8677 59.1878 10.8677C61.296 10.8677 62.2013 11.7714 63.1033 13.2764C64.6118 16.29 64.3093 22.616 64.3093 29.8439Z" fill="#64A8F0"/>
<path fill-rule="evenodd" clip-rule="evenodd" d="M173.346 65.3873V76.2301H171.24C170.035 71.7133 168.227 67.7978 163.409 67.4955C160.396 67.1948 157.685 69.0021 157.382 71.7133C157.081 74.4228 157.985 76.8331 163.409 79.845C170.336 83.7605 175.758 85.5678 175.758 93.7013C175.758 102.436 168.227 106.654 161.902 106.654C159.19 106.654 149.852 106.654 149.852 106.654V91.5915H151.962C153.469 99.4241 155.878 104.243 161.601 104.544C165.215 104.544 167.925 102.436 167.925 98.5205C167.925 94.605 165.515 92.1945 159.793 88.8803C153.469 84.9648 149.551 82.5561 149.551 77.1338C149.551 69.9042 154.674 65.3873 162.806 65.3873C165.516 65.3873 173.346 65.3873 173.346 65.3873Z" fill="#64A8F0"/>
<path fill-rule="evenodd" clip-rule="evenodd" d="M186.601 50.024V20.808C186.601 12.374 182.081 8.45852 175.455 8.75923C170.937 9.05994 168.227 12.0735 167.021 14.4822C165.516 10.266 162.202 8.45852 157.382 8.75923C153.469 9.05994 150.455 11.4703 149.25 14.1815V9.66297H139.914V50.024H150.154C150.154 50.024 150.154 20.5075 150.154 19.6038C150.154 16.5902 150.455 14.7827 152.263 13.276C153.469 12.374 154.674 12.0735 155.576 12.374C157.985 12.977 157.985 15.989 157.985 19.6038V50.024H168.227V19.3031C168.227 16.5902 168.829 14.7827 170.336 13.276C171.541 12.374 172.745 12.0735 173.649 12.374C176.058 12.977 176.359 15.989 176.359 19.6038V50.024H186.601Z" fill="#64A8F0"/>
<path fill-rule="evenodd" clip-rule="evenodd" d="M82.0813 1.22925H92.6233V50.0243H82.0813V1.22925Z" fill="#64A8F0"/>
<path fill-rule="evenodd" clip-rule="evenodd" d="M129.974 50.0243V1.22925H119.43V12.675C118.529 10.567 116.419 9.06023 113.407 9.06023C105.876 9.06023 99.8512 16.8912 99.5505 28.94C99.25 37.0735 101.961 50.6273 112.503 50.6273C116.719 50.6273 119.13 48.2186 120.033 46.1088V50.0243H129.974ZM117.623 12.9773C119.733 15.9893 119.733 23.217 119.733 28.94C119.733 34.9635 120.033 42.7963 117.623 46.1088C116.719 47.3148 115.817 47.9162 114.311 47.9162C112.203 47.9162 110.996 45.5075 110.395 41.592C110.093 37.9771 110.093 33.4585 110.093 28.6393C110.093 20.5078 110.696 11.4706 114.611 11.4706C116.118 11.4706 116.719 12.0738 117.623 12.9773Z" fill="#64A8F0"/>
<path fill-rule="evenodd" clip-rule="evenodd" d="M217.927 10.8677C220.637 12.3745 222.445 14.7832 222.445 20.2054V50.0244H212.505V45.5077C211.3 48.8201 207.987 50.9281 203.468 50.9281C199.854 50.9281 193.528 49.1225 193.528 39.7847C193.528 31.0482 199.252 29.2427 205.578 26.5314C211.3 24.1227 211.902 23.8186 211.902 21.4099C211.902 19.3035 211.902 17.4944 211.902 14.7832C211.902 12.0739 210.398 10.8677 207.384 10.8677C206.179 11.1684 204.071 11.7714 204.071 13.2764C203.768 15.0857 205.877 15.0857 206.179 17.7967C206.48 22.0129 203.167 23.5179 200.156 23.2172C198.046 23.2172 195.637 22.0129 195.336 18.7005C195.035 13.2764 201.058 8.75967 209.493 8.75967C213.409 8.75967 215.818 9.66341 217.927 10.8677ZM211.902 25.9284L208.589 28.0364C205.275 30.1462 204.672 32.8557 204.372 35.8692C204.071 38.2779 204.071 40.3877 204.372 44.0009C204.672 47.315 206.783 47.9164 208.589 47.315C210.699 46.4114 211.902 42.4959 211.902 38.2779C211.902 38.2779 211.902 27.4352 211.902 25.9284Z" fill="#64A8F0"/>
<path fill-rule="evenodd" clip-rule="evenodd" d="M68.828 67.1948C71.5391 69.0021 73.044 71.1103 73.044 76.5308V106.654H63.4057V102.135C62.2013 105.147 58.8888 107.255 54.3685 107.255C50.453 107.255 44.4277 105.748 44.4277 96.4124C44.4277 87.6776 50.1525 85.8703 56.1778 83.1591C62.2013 80.4481 62.8025 80.1474 62.8025 78.0375C62.8025 75.9295 62.8025 74.1221 62.8025 71.411C62.8025 68.3991 61.2959 67.1948 58.2858 67.4955C57.0797 67.4955 54.9716 68.0986 54.9716 69.6035C54.671 71.7133 56.779 71.7133 57.0797 74.4228C57.3821 78.3399 54.068 79.845 51.0561 79.845C48.948 79.5443 46.5375 78.3399 46.2352 75.0258C45.9345 69.9042 51.9598 65.3873 60.3938 65.3873C64.3093 65.3873 66.718 65.9904 68.828 67.1948ZM62.8025 82.2554L59.4903 84.3636C56.1778 86.4716 55.5748 89.1828 55.2723 92.1945C54.9716 94.6051 54.9716 97.0138 55.2723 100.328C55.2723 103.943 57.3821 104.544 59.1878 103.64C61.5983 102.737 62.8025 99.1236 62.8025 94.6051C62.8025 94.6051 62.8025 83.7605 62.8025 82.2554Z" fill="#64A8F0"/>
<path fill-rule="evenodd" clip-rule="evenodd" d="M141.72 77.4363C141.72 69.0021 137.202 64.7843 130.576 65.3873C127.263 65.688 124.552 67.1948 123.045 69.3028V57.5563H112.804V85.2673C112.804 95.5086 105.576 105.147 98.3463 104.845C93.2246 104.845 92.0203 100.929 91.4191 96.713C90.5154 90.6877 90.5154 83.7605 91.1166 76.23C91.7196 71.411 92.9241 67.4955 96.5389 67.4955C99.2501 67.4955 99.5506 69.3028 98.3463 70.5072C97.1401 72.014 95.3346 73.519 96.2381 76.8331C97.1401 80.448 102.863 81.0493 105.576 78.3398C107.684 75.9295 107.383 72.014 105.877 69.6035C104.069 66.5917 101.057 65.3873 96.5389 65.3873C90.8159 65.3873 79.9731 70.5072 79.9731 86.774C79.9731 104.243 91.1166 107.255 97.4426 107.255C104.672 107.255 110.997 100.929 112.804 95.8093V106.654H123.045V76.23C123.045 73.2183 123.648 71.411 125.153 69.9042C126.36 69.0021 127.865 68.6998 128.768 69.0021C131.179 69.6035 131.179 72.6152 131.179 76.23V106.654H141.72V77.4363Z" fill="#64A8F0"/>
<path fill-rule="evenodd" clip-rule="evenodd" d="M36.2963 0.325745V17.4945H34.1881C32.3808 9.06047 28.4653 2.73447 23.0431 2.43376C19.4281 2.13305 17.3219 4.24124 15.5126 7.25478C13.7069 10.8678 12.8016 18.3982 12.8016 27.4353C12.8016 35.8693 13.1039 42.1935 14.0076 46.712C14.6089 48.8202 16.1157 52.1343 20.0311 52.1343C22.1393 52.1343 23.6461 51.5313 24.5499 50.327C26.0566 48.5195 26.3572 44.9047 26.3572 42.496C26.3572 38.5805 26.3572 37.3743 26.3572 34.3625C26.3572 31.3508 25.4534 29.5433 23.9466 28.6395C22.7424 28.0365 20.9349 28.0365 20.0311 27.736V25.6278H36.8994V68.7H34.7896C33.8876 65.3875 33.2844 62.977 31.7794 60.266C30.2726 57.5566 27.5616 54.5448 23.0431 54.5448C18.2238 54.2425 14.6089 57.2558 14.6089 61.7728C14.6089 67.7981 18.2238 69.303 24.8504 72.9162C31.1764 76.531 39.3081 79.5445 39.3081 90.0866C39.3081 100.328 30.5734 106.654 20.6344 106.654C18.5244 106.654 4.66988 106.654 4.66988 106.654V85.8705H6.77789C9.48912 101.533 16.1157 104.244 20.6344 104.244C26.3572 104.244 29.0666 100.629 29.0666 95.5088C28.7659 88.8805 24.2491 86.4718 17.9231 83.1593C8.88788 78.0378 4.66988 75.6272 4.66988 67.195C4.97059 59.9653 10.6952 55.4468 17.0194 53.6411C3.76614 52.1343 -0.149351 40.0873 0.151359 27.1328C0.151359 14.182 7.68164 0.325745 22.4399 0.325745C29.0666 0.325745 36.2963 0.325745 36.2963 0.325745Z" fill="#64A8F0"/>
</svg>
