<svg width="260" height="70" viewBox="0 0 260 70" fill="none" xmlns="http://www.w3.org/2000/svg">
<g clip-path="url(#clip0_106_1171)">
<path d="M105.021 0H35.062V70H105.021V0Z" fill="white"/>
<path d="M140 35.0824L105.021 0V70.0824L140 35.0824Z" fill="#DB0011"/>
<path d="M70.0414 35.0824L105.021 0H35.062L70.0414 35.0824Z" fill="#DB0011"/>
<path d="M0 35.0824L35.0617 70.0824V0L0 35.0824Z" fill="#DB0011"/>
<path d="M70.0414 35.0824L35.062 70.0824H105.021L70.0414 35.0824Z" fill="#DB0011"/>
<path d="M170.7 37.1412H158.025V49.6588H151.688V20.3412H158.025V32.3647H170.7V20.3412H177.037V49.6588H170.7V37.1412Z" fill="black"/>
<path d="M192.346 50.2353C186.008 50.2353 180.823 47.6823 180.741 40.6823H187.078C187.16 43.8118 188.971 45.7059 192.428 45.7059C194.979 45.7059 197.942 44.3882 197.942 41.5059C197.942 39.2 195.967 38.5412 192.675 37.5529L190.535 36.9765C185.926 35.6588 181.317 33.847 181.317 28.5765C181.317 22.0706 187.407 19.847 192.922 19.847C198.601 19.847 203.539 21.8235 203.621 28.3294H197.284C197.037 25.6941 195.473 24.1294 192.51 24.1294C190.123 24.1294 187.819 25.3647 187.819 28C187.819 30.1412 189.794 30.8 193.909 32.1176L196.379 32.8588C201.399 34.4235 204.609 36.1529 204.609 41.0941C204.527 47.6823 198.107 50.2353 192.346 50.2353Z" fill="black"/>
<path d="M208.148 20.4235H218.354C220.247 20.3412 222.223 20.4235 224.116 20.7529C227.655 21.5765 230.371 23.8824 230.371 27.8353C230.371 31.6235 227.984 33.5177 224.527 34.4235C228.478 35.1647 231.441 37.1412 231.441 41.5059C231.441 48.1765 224.856 49.6588 219.753 49.6588H208.231L208.148 20.4235ZM218.354 32.6118C221.153 32.6118 224.033 32.0353 224.033 28.6588C224.033 25.6118 221.399 24.7882 218.766 24.7882H214.321V32.6118H218.354ZM218.93 45.2941C221.893 45.2941 224.774 44.6353 224.774 41.0118C224.774 37.3882 222.305 36.7294 219.26 36.7294H214.239V45.2941H218.93Z" fill="black"/>
<path d="M247.901 50.2353C238.436 50.2353 234.239 44.2235 234.239 35.2471C234.239 26.2706 238.93 19.7647 248.231 19.7647C254.074 19.7647 259.753 22.4 259.918 28.9882H253.333C253.004 26.0235 251.029 24.5412 248.231 24.5412C242.469 24.5412 240.741 30.7177 240.741 35.4118C240.741 40.1059 242.469 45.5412 247.984 45.5412C250.864 45.5412 253.004 43.9765 253.416 41.0118H260C259.342 47.7647 253.992 50.2353 247.901 50.2353Z" fill="black"/>
</g>
<defs>
<clipPath id="clip0_106_1171">
<rect width="260" height="70" fill="white"/>
</clipPath>
</defs>
</svg>
