<svg width="260" height="60" viewBox="0 0 260 60" fill="none" xmlns="http://www.w3.org/2000/svg">
<path d="M26.2971 2.22857H10.9943V3.56285H15.9555V30.7314C15.9555 38.9714 13.8887 41.1971 9.13446 41.1971C6.23997 41.1971 5.61915 38.7486 5.61915 37.6343C5.61915 34.74 5.41221 32.7371 2.92895 32.7371C0.448334 32.7371 0.0371094 35.4086 0.0371094 36.3C0.0371094 40.0857 1.68997 42.98 8.51364 42.98C16.7859 42.98 21.1263 40.0857 21.1263 30.0657V3.55999H26.0902V2.22857H26.2971ZM28.3665 36.7428C27.5387 36.7428 26.711 36.9714 26.2971 37.6343C25.6763 38.3028 25.4694 38.9714 25.4694 39.8628C25.4694 40.7486 25.6763 41.42 26.2971 42.0914C26.9179 42.7571 27.5387 42.9771 28.3665 42.9771C29.1916 42.9771 29.8124 42.7543 30.4332 42.0914C31.054 41.4228 31.261 40.7486 31.261 39.8628C31.261 38.9714 31.054 38.3028 30.4332 37.6343C29.8124 36.9657 29.1916 36.7428 28.3638 36.7428H28.3665ZM62.2779 36.7428C61.4502 36.7428 60.8294 36.9714 60.2085 37.6343C59.5904 38.3028 59.3834 38.9714 59.3834 39.8628C59.3834 40.7486 59.5904 41.42 60.2085 42.0914C60.8294 42.7571 61.4502 42.9771 62.2779 42.9771C63.1057 42.9771 63.9308 42.7543 64.3473 42.0914C64.9655 41.42 65.1724 40.7486 65.1724 39.8628C65.1724 38.9714 64.9655 38.3028 64.3447 37.6343C63.7239 36.9657 63.1057 36.7428 62.2753 36.7428H62.2779ZM51.5224 2.22857H36.6334V3.56285H40.9765V34.7428C40.9765 37.1914 40.7696 37.8571 40.5626 38.5257C40.3557 39.42 39.7349 39.8657 38.7002 40.3114C38.082 40.5343 37.0473 40.7543 35.5987 40.7543V42.0914H51.7294V40.7543C50.2808 40.7543 49.2487 40.5343 48.6253 40.3114C47.5932 39.8657 46.9724 39.1971 46.7681 38.5286C46.4921 37.7465 46.3509 36.9167 46.3516 36.08V25.3857H50.2808C61.8614 25.3857 65.1698 20.4886 65.1698 13.8057C65.1698 6.90285 63.31 2.22857 51.5224 2.22857ZM49.453 23.8286H46.3516V3.78571H49.0418C57.9322 3.78571 59.999 7.79428 59.999 14.0286C59.999 20.4857 56.4863 23.8286 49.453 23.8286ZM112.938 38.3028C112.665 37.4428 112.526 36.5403 112.524 35.6314V3.56285H116.451V2.22857H106.945C106.738 2.67428 95.5738 32.5143 95.5738 32.5143L95.3669 32.74C95.16 32.74 95.16 32.74 95.16 32.5171C95.16 32.5171 83.1681 2.45142 83.1681 2.22857H72.6143V3.56571H77.1643V37.4143C77.1643 38.0857 76.9573 38.7543 76.5434 39.42C76.1296 40.0886 75.5087 40.5343 74.8879 40.7543C74.4741 40.9828 73.6489 40.9828 72.8185 40.9828V42.3143H83.1602V40.9771C82.3324 40.9771 81.9185 40.7543 81.3004 40.7543C80.4726 40.5314 80.0587 40.0857 79.6449 39.4171C79.231 38.9714 79.024 38.3028 79.024 37.4143L78.8171 34.5171V7.79142H79.4379C79.4379 7.79142 92.8783 41.64 93.0853 42.0857H94.12L106.94 8.01714H107.353V35.6314C107.353 36.7457 107.146 37.6343 106.94 38.5257C106.733 39.4171 106.114 39.8628 105.287 40.3086C104.42 40.618 103.512 40.7677 102.599 40.7514V42.0886H117.074V40.7514C116.161 40.7679 115.251 40.6181 114.384 40.3086C113.766 39.8628 113.145 39.1943 112.938 38.3028ZM132.581 12.9171C124.723 12.9171 119.969 18.4828 119.969 28.06C119.969 42.3114 130.308 43.2029 132.374 43.2029C136.718 43.2029 144.99 40.3086 144.99 27.84C144.99 18.04 139.612 12.9171 132.581 12.9171ZM132.374 41.42C126.585 41.42 125.551 38.3057 125.551 28.2828C125.551 20.4886 125.965 14.6971 132.374 14.6971C139.198 14.6971 139.198 20.7086 139.198 27.8343C139.198 37.8571 137.545 41.42 132.374 41.42ZM165.257 13.3629C160.704 13.3629 159.054 16.2571 157.809 19.3743H157.395C157.395 19.3743 156.777 14.92 156.57 13.8057H147.47V15.3657H152.432V34.9628C152.432 36.9657 152.227 38.3057 151.816 39.1914C151.4 40.0857 150.158 40.7514 148.298 40.7514H147.47V42.5343H162.773V40.7514H161.945C159.876 40.7514 159.054 40.3086 158.634 39.4171C158.223 38.5257 158.016 37.1886 158.016 35.1857V24.4971C158.016 21.1543 160.497 17.1486 163.394 17.1486C166.495 17.1486 166.286 22.0457 169.804 20.0429C171.459 18.9286 171.045 13.3629 165.257 13.3629ZM225.428 39.1914C223.772 39.1914 223.361 38.3057 223.154 36.5228V20.9343C223.154 18.26 222.738 16.7029 221.294 15.14C219.846 13.5829 217.156 12.9114 213.229 12.9114C209.507 12.9114 206.819 13.5829 204.957 15.14C203.304 16.48 202.479 17.8143 202.479 19.82C202.479 20.7057 202.686 21.3771 203.097 21.6C203.511 22.0457 204.132 22.2686 204.75 22.2686C206.196 22.2686 207.026 21.3829 207.438 19.3743C207.65 17.8143 208.058 16.9257 208.682 16.0314C209.504 15.1457 210.751 14.6971 212.194 14.6971C214.057 14.6971 215.503 15.14 216.124 16.2543C216.744 17.3686 217.158 18.7057 217.158 20.4829V25.1628C212.399 25.6086 200.821 26.72 201.442 36.0743C201.649 39.6371 204.546 42.9771 208.472 42.9771C212.815 42.9771 215.5 40.3086 217.36 38.3C217.57 40.3057 219.429 42.7571 222.533 42.7571C226.046 42.7571 228.115 40.9743 228.325 36.2971H227.497C227.497 38.08 226.463 39.1943 225.428 39.1943V39.1914ZM217.572 36.0771V36.3L217.365 36.5228C214.885 38.9743 212.818 39.8657 211.369 39.8657C207.647 39.8657 207.026 36.5228 207.026 34.9657C207.026 29.6228 213.85 26.9486 217.572 26.9486V36.0771ZM256.448 38.9714C256.034 38.0828 255.413 36.7428 255.413 34.7428V21.8229C255.413 20.0429 255.206 18.26 254.585 17.1486C253.964 15.8114 252.932 14.92 251.898 14.2514C250.656 13.5829 249.417 13.3629 247.971 13.3629C242.593 13.3629 240.524 16.9257 239.285 18.9286H238.871L237.836 13.8057H229.564V15.3657H233.703V34.9628C233.703 36.5229 233.493 37.6343 233.286 38.3057C233.077 39.1914 232.464 39.8628 231.84 40.0857C231.427 40.3086 230.599 40.5314 229.564 40.5314V42.3114H242.591V40.5314C241.349 40.3086 240.314 40.0857 239.903 39.4171C239.489 38.7486 239.078 37.4114 239.078 35.4086V27.8371C239.078 24.7228 239.078 21.6 240.113 19.82C241.145 17.8143 243.211 16.7029 245.281 16.7029C247.35 16.7029 248.382 17.3714 249.006 18.7057C249.624 19.82 249.828 23.16 249.828 25.3857V34.74C249.828 36.2971 250.04 37.4114 249.828 38.0828C249.624 38.9686 249.417 39.64 248.793 40.0828C248.382 40.5314 247.552 40.5314 246.727 40.7514V42.5343H259.345V40.7514C257.893 40.0857 256.861 39.6371 256.448 38.9714ZM197.308 11.58C196.48 11.8028 196.067 12.6943 195.653 13.8086C195.446 14.9229 195.032 15.5886 194.411 15.8086C193.79 16.0343 193.172 16.0343 192.551 15.5886C191.105 14.2514 188.622 12.6943 184.072 12.6943C176.628 12.6943 173.526 18.26 173.526 23.38C173.526 29.3943 175.595 32.2914 180.347 33.4028C180.557 33.4028 180.557 33.8486 180.347 33.8486C176.421 34.74 172.698 36.0771 172.698 40.0857C172.698 42.5371 173.94 43.8714 175.802 44.7628C177.66 45.6514 180.347 46.1 183.658 46.1C186.55 46.1 188.619 46.3228 189.861 46.3228C191.107 46.4959 192.305 46.9516 193.376 47.66C194.204 48.3286 194.618 49.4428 194.618 50.7743C194.618 52.78 193.583 54.1171 191.723 55.4543C189.866 56.5686 187.585 57.0143 184.486 57.0143C182.005 57.0143 179.732 56.7886 177.869 55.4543C176.423 54.5629 176.214 52.7829 176.423 51.4457C176.633 50.1086 176.214 48.7743 174.768 48.3286C174.328 48.2241 173.868 48.2763 173.458 48.4772C173.048 48.6781 172.71 49.017 172.494 49.4429C172.078 50.1057 171.871 50.9971 171.871 52.1114C171.871 55.4514 174.354 57.0086 176.214 57.6771C179.108 58.5657 180.973 58.7914 183.451 58.7914C186.969 58.7914 189.654 58.1228 191.723 57.2314C193.793 56.1171 195.034 54.7829 195.86 53.2229C196.685 51.6657 197.101 50.1057 197.101 48.5457C197.101 46.5428 196.685 44.76 195.86 43.6486C193.172 39.8629 189.447 40.3057 181.178 39.8628C177.248 39.8628 176.421 38.9714 176.421 37.6343C176.421 35.6314 177.869 34.9628 183.658 33.8486C189.447 32.9571 194.822 30.5086 194.822 23.16C194.822 20.9314 194.411 19.1514 193.788 17.8171C195.032 18.0371 196.067 18.0371 197.099 17.8171C198.343 17.3714 198.958 16.7029 199.375 16.0343C199.789 15.1429 199.993 14.2514 199.582 13.5829C199.789 11.8029 198.754 11.1343 197.308 11.58ZM184.282 32.5143C180.769 32.5143 178.904 31.1743 178.904 23.6057C178.904 18.2628 180.559 14.2514 184.282 14.2514C188.625 14.2514 189.864 17.8143 189.864 23.3829C189.864 31.4 187.59 32.5143 184.282 32.5143Z" fill="#54301A"/>
</svg>
