<svg width="260" height="50" viewBox="0 0 260 50" fill="none" xmlns="http://www.w3.org/2000/svg">
<g clip-path="url(#clip0_106_1083)">
<path d="M0.324905 0.666695C0.519905 1.00003 1.42991 1.33336 2.27491 1.33336C3.05491 1.33336 3.96491 1.80003 4.15991 2.40003C4.87491 4.26669 4.61491 46 3.89991 47.4C3.50991 48.0667 2.59991 48.6667 1.94991 48.6667C1.23491 48.6667 0.649905 48.9334 0.649905 49.3334C0.649905 49.7334 7.14991 50 18.7849 50H36.9849L37.6999 46.3334C38.6749 41.3334 38.2849 39.5334 36.8549 42.8667C35.3599 46.4667 32.8899 47.3334 24.2449 47.3334C16.3149 47.2667 11.8299 46.6 10.9849 45.2667C10.6599 44.7334 10.3999 34.8 10.3999 23.1334C10.3999 3.53336 10.4649 1.93336 11.5699 1.60003C15.4049 0.333363 14.7549 0.0666962 7.60491 0.0666962C2.66491 2.67029e-05 0.0649053 0.266693 0.324905 0.666695Z" fill="black"/>
<path d="M55.3149 25.8C51.2849 36.7334 47.3199 46.3334 46.6049 47.2C45.8899 48 44.5899 48.6667 43.8099 48.6667C42.9649 48.6667 42.1199 49 41.9249 49.3334C41.6649 49.7334 43.9399 50 48.2299 50C54.5999 49.9334 54.8599 49.9334 53.1049 48.9334C50.9599 47.7334 50.9599 47.7334 54.0799 38.4667L56.0949 32.6L62.5949 32.8L69.1599 33L71.9549 40.3334C73.4499 44.3334 74.5549 48.2 74.3599 48.8C74.0349 49.8667 74.6199 50 79.9499 50C83.7199 50 85.7349 49.7334 85.4749 49.3334C85.2799 48.9334 84.4349 48.6667 83.5899 48.6667C80.7299 48.6667 80.4049 48 69.8749 21.8C66.4299 13.1334 63.3099 6.00003 63.1149 6.00003C62.8549 6.00003 59.3449 14.9334 55.3149 25.8ZM62.8549 29.8667C59.9949 30 57.5249 29.9334 57.3949 29.7334C57.0699 29.4 59.8649 20.2667 61.6199 16L62.5299 13.6667L65.2599 21.6667L68.0549 29.6667L62.8549 29.8667Z" fill="black"/>
<path d="M139.685 26.0667C135.655 37.0667 131.755 46.6667 131.105 47.4C130.455 48.0667 129.22 48.6667 128.375 48.6667C127.53 48.6667 126.62 49 126.425 49.3334C126.165 49.7334 128.44 50 132.73 50C139.035 49.9334 139.295 49.8667 137.605 48.9334C135.525 47.8 135.59 47.6 138.645 38.4667L140.595 32.6L147.095 32.8L153.66 33L156.455 40.3334C157.95 44.3334 159.055 48.2 158.86 48.8C158.535 49.8667 159.12 50 164.515 50C170.56 50 171.275 49.6 167.505 48.3334C164.905 47.4667 163.735 45.0667 154.635 22.4667C151.06 13.4 147.875 6.00003 147.615 6.00003C147.355 6.00003 143.78 15 139.685 26.0667ZM147.355 29.8667C144.495 30 142.025 29.9334 141.895 29.7334C141.57 29.4 144.365 20.2667 146.12 16L147.03 13.6667L149.76 21.6667L152.555 29.6667L147.355 29.8667Z" fill="black"/>
<path d="M92.3649 10.8667C91.5199 16 91.5199 16 92.2349 16C92.5599 16 93.1449 15.0667 93.5999 13.9334C95.0949 10.2667 96.5249 9.80003 108.095 9.46669L118.56 9.13336L115.375 13.7334C113.62 16.2667 107.185 25 101.075 33.2C95.0299 41.4 89.9599 48.5334 89.8299 49.0667C89.6349 49.8667 91.9749 50 105.495 50H121.42L121.745 48.4667C122.46 45.4 122.98 40.3334 122.525 40.8C122.265 41 121.615 42.2 121.03 43.4667C120.315 44.9334 119.145 45.9334 117.65 46.4667C115.44 47.2 97.4999 47.7334 97.4999 47C97.4999 46.8 98.9299 44.6 100.685 42.1334C109.85 29.2667 124.085 7.73336 123.76 7.20003C123.565 6.93336 116.61 6.66669 108.225 6.66669H93.0799L92.3649 10.8667Z" fill="black"/>
<path d="M173.55 7.2667C173.55 7.6667 174.2 8.00003 175.045 8.00003C178.035 8.00003 178.1 8.53337 178.1 27.4C178.1 45.1334 177.71 48.6667 175.89 48.6667C175.37 48.6667 174.72 49 174.525 49.3334C174.265 49.7334 176.605 50 181.09 50C185.38 50 187.85 49.7334 187.525 49.4C187.135 49.0667 186.16 48.6667 185.25 48.5334C183.3 48.2667 182.715 45.8667 182.715 37.4667L182.65 32H187.395H192.14L197.6 39.4667C204.685 49.0667 206.05 50 212.485 49.9334C217.295 49.9334 217.49 49.3334 213.135 48.4C210.535 47.8 208.325 45.7334 202.15 37.8L196.365 30.4L198.64 27.8C204.815 20.8667 204.165 11.8667 197.275 8.33337C195.13 7.2667 192.92 7.00003 184.145 6.80003C176.605 6.60003 173.55 6.73337 173.55 7.2667ZM190.125 9.40003C193.895 10.4667 197.405 14.3334 197.925 18.0667C198.445 21.6 197.405 26.2 195.65 28C194.155 29.5334 189.215 30.3334 185.705 29.6L182.975 29L182.78 19.2C182.65 10.3334 182.715 9.40003 183.755 9.13337C185.835 8.60003 187.46 8.6667 190.125 9.40003Z" fill="black"/>
<path d="M221 7.33335C221 7.66668 221.845 8.00002 222.95 8.00002C224.185 8.00002 225.095 8.46669 225.55 9.26669C225.94 10.0667 226.2 17.4 226.2 28.3334C226.2 39.2667 225.94 46.6 225.55 47.4C225.16 48.1334 224.185 48.6667 223.275 48.6667C222.43 48.6667 221.52 48.9334 221.325 49.3334C220.61 50.4667 241.605 50.2 245.57 49C252.07 47 257.14 41.4 259.025 33.9334C260.325 29.0667 260.26 25.5334 258.765 20.7334C256.555 13.3334 251.94 9.20002 244.14 7.53335C239.395 6.53335 221 6.33335 221 7.33335ZM244.855 11.1334C251.94 14.5334 255.125 20.8667 254.67 30.6C254.28 38.5334 251.745 43.1334 246.155 46.0667C243.36 47.5334 236.6 48.4 233.09 47.7334L230.75 47.2667L230.88 28.4667L231.075 9.66668L233.35 9.26669C236.925 8.66668 241.215 9.33335 244.855 11.1334Z" fill="black"/>
</g>
<defs>
<clipPath id="clip0_106_1083">
<rect width="260" height="50" fill="white"/>
</clipPath>
</defs>
</svg>
