<svg width="260" height="40" viewBox="0 0 260 40" fill="none" xmlns="http://www.w3.org/2000/svg">
<g clip-path="url(#clip0_106_1042)">
<path d="M251.771 25.68L251.714 26.0457L251.651 25.68L245.923 8.59103H242.646L250.116 30.6465V30.8245C249.669 32.9372 248.395 35.5265 247.236 36.3396C246.218 37.0596 245.109 37.1527 244.255 37.1527C243.845 37.1527 242.973 37.0008 242.612 36.911V39.569C243.072 39.6865 244.166 39.9004 244.845 39.9004C246.438 39.9004 247.763 39.4874 248.891 38.6351C250.242 37.6147 251.755 34.9698 252.472 32.6923L259.921 8.58777H256.65L251.771 25.68Z" fill="black"/>
<path fill-rule="evenodd" clip-rule="evenodd" d="M240.395 20.3461H225.808C225.813 22.7249 226.376 24.7412 227.444 26.1812C228.544 27.6718 230.134 28.4571 232.035 28.4571C235.359 28.4571 236.822 26.1845 237.47 24.6857L240.156 26.0245C239.173 28.4865 236.825 31.2114 232.035 31.2114C230.19 31.2114 227.515 30.7624 225.432 28.6482C223.454 26.6465 222.379 23.6326 222.379 19.6898C222.379 16.1469 223.218 13.2228 224.732 11.2506C225.495 10.2482 226.513 9.48081 227.617 8.96325C228.743 8.43917 230.035 8.17142 231.461 8.17142C234.201 8.17142 236.282 8.85387 237.756 10.2628C239.483 11.9167 240.395 14.6024 240.395 18.2482V20.3461ZM231.545 10.9257C227.982 10.9257 226.189 13.0465 225.898 17.5967H237.135C237.122 13.0433 235.37 10.9257 231.545 10.9257Z" fill="black"/>
<path fill-rule="evenodd" clip-rule="evenodd" d="M48.0867 19.6718C48.0867 22.8784 47.2341 25.7698 45.688 27.8237C44.0286 30.0278 41.6645 31.1902 38.8459 31.1902C36.0288 31.1902 33.6632 30.0294 31.9991 27.8237C30.4529 25.7731 29.6051 22.8784 29.6051 19.6718C29.6051 16.4637 30.4529 13.5674 31.9991 11.5167C33.6632 9.31919 36.0288 8.15347 38.8459 8.15347C41.6645 8.15347 44.0286 9.31919 45.6864 11.5184C47.2326 13.5674 48.0867 16.4637 48.0867 19.6718ZM44.5744 19.6735C44.5744 14.1829 42.4368 10.9045 38.8459 10.9045C35.2534 10.9045 33.1095 14.1829 33.1095 19.6735C33.1095 25.1625 35.255 28.4425 38.8459 28.4425C42.4352 28.4425 44.5728 25.1625 44.5744 19.6735Z" fill="black"/>
<path d="M55.5516 18.2743C56.3758 13.7094 58.6785 11.551 62.658 11.551V8.3053C59.2699 8.3053 57.285 9.68162 55.55 12.9094L55.5202 12.9502L55.5516 12.6661V8.64816H52.2076V30.8375H55.5516V18.2743Z" fill="black"/>
<path d="M137.367 7.91346C137.382 6.43918 137.844 5.27836 138.739 4.47999C139.65 3.6653 140.954 3.2555 142.626 3.2555C144.381 3.2555 145.937 3.77958 147.13 4.7706C148.224 5.67346 149.024 6.98611 149.389 8.49469L152.505 8.09795C151.143 3.25877 147.794 0.308563 142.706 0.308563C140.191 0.308563 137.912 1.12326 136.295 2.60081C134.728 4.04081 133.857 6.01795 133.857 8.16652C133.857 10.5355 134.791 12.3951 136.713 13.8498C138.407 15.1331 140.634 15.9526 142.792 16.7428C146.542 18.129 150.089 19.4335 150.089 22.9714C150.089 24.542 149.576 25.8612 148.604 26.782C147.531 27.7943 145.955 28.3069 143.92 28.3069C140.351 28.3069 137.757 26.2302 136.298 22.2351L133.119 23.1233C133.806 24.7461 134.973 27.1004 136.672 28.6759C138.539 30.4147 140.859 31.2555 143.758 31.2555C147.201 31.2555 149.809 30.3184 151.517 28.4735C153.293 26.5551 153.663 24.1028 153.663 22.3886C153.663 19.9265 152.68 18 150.662 16.498C148.894 15.1837 146.589 14.3657 144.365 13.5722C140.748 12.2873 137.33 11.0743 137.367 7.91346Z" fill="black"/>
<path d="M158.952 11.3273H155.744V8.57633H158.952V1.31592H162.298V8.57796H165.89V11.3273H162.298V26.4931C162.298 27.5053 162.526 28.4408 164.769 28.4408C165.139 28.4408 165.519 28.4261 165.89 28.4033V30.8457C165.89 30.8457 164.624 31.1918 163.671 31.1918C162.166 31.1918 161.027 30.9404 160.264 30.4098C159.556 29.9069 158.952 29.102 158.952 27.7322C158.952 26.7935 158.952 11.3273 158.952 11.3273Z" fill="black"/>
<path d="M216.583 26.4931C216.583 27.5053 216.895 28.4408 219.135 28.4408C219.506 28.4408 219.882 28.4261 220.259 28.4033V30.8457C220.259 30.8457 218.991 31.1918 218.038 31.1918C216.533 31.1918 215.393 30.9404 214.633 30.4098C213.922 29.9069 213.241 29.102 213.241 27.7322V0H216.588L216.583 26.4931Z" fill="black"/>
<path d="M111.319 14.3673C112.457 13.1037 114.985 10.9747 117.305 10.9747C119.628 10.9747 120.662 12.1649 120.662 14.8245V30.8457H124.006V14.7396C124.006 9.93795 120.71 8.22693 117.591 8.22693C115.415 8.22693 113.194 9.41713 111.319 11.6228V8.65468H107.975V30.8457H111.319V14.3673Z" fill="black"/>
<path fill-rule="evenodd" clip-rule="evenodd" d="M92.1041 31.2784C90.4526 31.2278 88.9363 30.6808 87.84 29.6049C86.6619 28.4343 85.7606 26.7967 85.7606 24.8735C85.7606 22.1665 87.0897 20.1992 89.2021 18.7886C91.1478 17.489 93.7934 16.7902 97.7776 16.3282C98.5011 16.2498 98.7811 16.1453 98.8865 16.0065C98.9525 15.92 98.9447 15.6882 98.9447 15.6882L98.9415 14.8898C98.9415 12.302 97.5055 10.9878 94.6617 10.9878C91.0566 10.9878 89.7338 13.4057 89.3578 14.4539L86.6619 12.9927C87.6166 11.1641 89.88 8.23837 94.6208 8.23837C96.5995 8.23837 98.4256 8.77062 99.7437 9.74368C101.345 10.9143 102.193 12.7053 102.193 14.9208L102.205 16.3347V27.0563C102.205 28.0098 102.694 28.3706 103.438 28.4082V30.7641C102.822 30.9208 101.375 31.0335 100.499 30.5469C99.5691 30.0359 99.146 29.3257 99.0579 28.098C97.9364 29.8857 95.618 31.3894 92.1041 31.2784ZM99.0375 18.7657C98.6474 19.0008 97.8845 19.1478 97.4803 19.1853C91.6574 19.8498 89.0134 21.3747 89.2729 24.9796C89.4333 27.138 90.9811 28.431 92.5524 28.5225C95.4041 28.689 98.8817 26.3282 99.0375 24.3869V18.7657Z" fill="black"/>
<path fill-rule="evenodd" clip-rule="evenodd" d="M175.488 31.2784C173.837 31.2278 172.322 30.6808 171.227 29.6049C170.046 28.4343 169.146 26.7967 169.146 24.8735C169.146 22.1665 170.474 20.1992 172.586 18.7886C174.535 17.489 177.177 16.7902 181.162 16.3282C181.887 16.2498 182.165 16.1453 182.27 16.0065C182.337 15.92 182.329 15.6882 182.329 15.6882L182.326 14.8898C182.326 12.302 180.889 10.9878 178.046 10.9878C174.441 10.9878 173.116 13.4057 172.743 14.4539L170.044 12.9927C171.001 11.1641 173.264 8.23837 178.006 8.23837C179.985 8.23837 181.806 8.77062 183.128 9.74368C184.729 10.9143 185.575 12.7053 185.575 14.9208L185.589 16.3347V27.0563C185.589 28.0098 186.078 28.3706 186.822 28.4082V30.7641C186.206 30.9208 184.76 31.0335 183.883 30.5469C182.953 30.0359 182.528 29.3257 182.44 28.098C181.32 29.8857 178.999 31.3894 175.488 31.2784ZM182.42 24.3869V18.7657C182.031 19.0008 181.269 19.1478 180.864 19.1853C175.041 19.8498 172.396 21.3747 172.659 24.9796C172.816 27.138 174.365 28.431 175.935 28.5225C178.787 28.689 182.267 26.3282 182.42 24.3869Z" fill="black"/>
<path d="M12.6414 24.9045L5.55862 0.721619H0V30.8375H3.34398V3.29468L3.41633 3.3959L11.361 30.8375H13.9579L21.9026 3.3959L21.9765 3.29468V30.8375H25.3205V0.721619H19.754L12.6791 24.9045L12.6603 25.0318L12.6414 24.9045Z" fill="black"/>
<path d="M194.7 14.3673C195.837 13.1037 198.366 10.9747 200.689 10.9747C203.006 10.9747 204.043 12.1649 204.043 14.8245V30.8457H207.388V14.7396C207.388 9.93795 204.093 8.22693 200.971 8.22693C198.794 8.22693 196.573 9.41713 194.698 11.6228L194.7 8.65468H191.357V30.8457H194.7V14.3673Z" fill="black"/>
<path fill-rule="evenodd" clip-rule="evenodd" d="M81.632 8.63184V31.5788C81.632 36.4882 78.8102 39.8857 72.8851 39.8857C70.7066 39.8857 68.1727 39.4384 66.6139 38.7445V35.7404C68.4621 36.6384 70.7349 37.1429 73.294 37.1429C75.9286 37.1429 78.3776 35.3371 78.3776 32.3788V28.1616L78.2125 28.2465C76.9007 29.9902 74.988 31.1869 72.8851 31.1869C69.2784 31.1869 63.9463 28.2922 63.9463 19.698C63.9463 10.8474 69.2784 8.20898 73.0471 8.20898C75.5889 8.20898 77.1885 9.31592 78.4154 10.9731L79.1279 8.63184H81.632ZM78.3761 13.8253C76.8126 11.8122 75.1784 10.96 73.2924 10.96C69.6072 10.96 67.4507 13.9086 67.4507 19.5249C67.4507 26.2057 69.8509 28.4343 73.2924 28.4343C75.0541 28.4343 77.5094 26.9437 78.3761 24.3869V13.8253Z" fill="black"/>
</g>
<defs>
<clipPath id="clip0_106_1042">
<rect width="260" height="40" fill="white"/>
</clipPath>
</defs>
</svg>
