<svg width="260" height="25" viewBox="0 0 260 25" fill="none" xmlns="http://www.w3.org/2000/svg">
<g clip-path="url(#clip0_106_1100)">
<path d="M207.737 0.533752H202.686C203.506 1.99625 203.54 3.62751 203.54 5.29376V10.735H192.515V5.29376C192.515 3.62751 192.552 1.99625 193.369 0.533752H188.32C189.138 1.99625 189.172 3.62751 189.172 5.29376V19.6788C189.172 21.3425 189.138 22.975 188.32 24.4688H193.369C192.552 22.975 192.515 21.3425 192.515 19.6788V12.4325H203.54V19.6788C203.54 21.3425 203.506 22.975 202.686 24.4688H207.737C206.918 22.975 206.884 21.3425 206.884 19.6788V5.29376C206.884 3.62751 206.918 1.99625 207.737 0.533752Z" fill="#072748"/>
<path d="M218.122 0.533752H213.002C213.82 1.7925 213.889 3.62751 213.889 5.29376V19.6788C213.889 21.3425 213.856 23.2112 213.036 24.4688H218.017C217.268 23.3138 217.234 21.2413 217.234 19.6788V5.29376C217.234 3.59376 217.268 1.825 218.122 0.533752Z" fill="#072748"/>
<path d="M247.024 23.2274C242.666 23.2274 242.794 22.9749 242.794 20.3236V3.73614C242.794 3.12364 242.864 2.47737 242.864 1.93487C243.944 1.72862 245.032 1.79236 245.844 1.79236C252.766 1.79236 255.876 6.01989 255.876 12.2311C255.876 18.3149 253.374 23.2274 247.024 23.2274ZM247.533 0.298643C243.915 0.298643 240.697 0.574888 238.631 0.574888C239.444 1.83364 239.444 3.74735 239.444 5.41485V19.8712C239.444 21.5362 239.444 23.2111 238.631 24.4686C241.202 24.4686 243.309 24.6049 247.024 24.6049C254.244 24.6049 259.83 19.4686 259.83 11.5311C259.83 4.49363 255.348 0.171143 247.533 0.298643Z" fill="#072748"/>
<path d="M105.351 3.21948C106.272 2.50698 107.477 2.46198 108.331 2.46198H112.963V19.607C112.963 21.2757 112.963 23.2108 112.142 24.4683H117.128C116.306 23.2108 116.306 21.2757 116.306 19.607V2.46198H120.422C121.957 2.46198 123.684 2.13201 124.33 0.533264H106.104L105.351 3.21948Z" fill="#072748"/>
<path d="M230.513 22.7951C232.596 22.7951 234.508 22.6676 236.351 20.8664L235.613 24.4689H233.382H223.47C224.337 23.3051 224.337 21.2339 224.337 19.6839V5.2926C224.337 3.6276 224.306 1.79262 223.481 0.533875H228.534C227.716 1.79262 227.682 3.6276 227.682 5.2926C227.682 5.2926 227.69 21.9564 227.694 22.7976C228.098 22.7926 230.513 22.7951 230.513 22.7951Z" fill="#072748"/>
<path d="M170.47 11.9204C170.47 6.38169 173.033 1.65421 178.217 1.65421C181.87 1.65421 183.57 3.05045 184.702 4.6442V0.465485C182.963 0.465485 181.596 0.0917053 178.32 0.0917053C170.643 0.0917053 166.581 6.28045 166.581 12.8055C166.581 22.0567 172.894 24.9067 177.502 24.9067C181.699 24.9067 184.564 23.0054 185.761 19.6729C183.714 21.6092 181.324 22.5967 178.934 22.5967C174.567 22.5967 170.47 19.0954 170.47 11.9204Z" fill="#072748"/>
<path d="M145.422 0.533752H140.339C141.156 1.99625 141.225 3.69501 141.225 5.35876V10.735H130.202V5.35876C130.202 3.69501 130.236 1.99625 131.055 0.533752H126.006C126.824 1.99625 126.857 3.69501 126.857 5.35876V19.6075C126.857 21.2762 126.824 22.975 126.006 24.4688H131.055C130.236 22.975 130.202 21.2762 130.202 19.6075V12.4325H141.225V19.6075C141.225 21.2762 141.156 22.975 140.339 24.4688H145.422C144.603 22.975 144.569 21.2762 144.569 19.6075V5.35876C144.569 3.69501 144.603 1.99625 145.422 0.533752Z" fill="#072748"/>
<path d="M93.8543 23.2781C87.8801 23.2781 86.2073 16.9218 86.2073 12.0243C86.2073 6.68554 88.4962 1.7243 93.8543 1.7243C99.8247 1.7243 101.497 8.14806 101.497 13.0418C101.497 18.3793 99.2099 23.2781 93.8543 23.2781ZM94.1592 0.0917969C86.4119 0.0917969 82.3174 6.00806 82.3174 13.0418C82.3174 19.6381 85.7656 24.9068 93.5807 24.9068C101.293 24.9068 105.389 19.0605 105.389 12.0243C105.389 5.42679 101.977 0.0917969 94.1592 0.0917969Z" fill="#072748"/>
<path d="M69.2466 11.4653C68.7032 11.4653 68.1223 11.4328 67.5764 11.364V3.42402C67.5764 2.84652 67.609 2.32278 67.643 1.77778C68.5653 1.67653 69.4851 1.584 70.3383 1.584C72.7627 1.584 74.6399 2.52403 74.6399 6.02778C74.6399 9.18903 72.8655 11.4653 69.2466 11.4653ZM79.1447 21.0003L72.6598 12.0103C75.8207 11.154 78.3266 9.09898 78.3266 5.29023C78.3266 2.49273 76.1431 -0.0334629 71.2267 0.157787C68.8401 0.250287 66.5927 0.395255 63.4506 0.531505C64.2022 1.68901 64.2374 3.45524 64.2374 5.01899V19.934C64.2374 21.294 64.1683 23.0053 63.2473 24.469H68.3934C67.5765 23.2115 67.5765 21.599 67.5765 19.934V12.8253C69.4524 12.9965 69.7234 13.2665 71.5354 15.8502L76.0741 22.4265C76.9939 23.7203 77.6088 24.469 79.2125 24.469H82.4261C81.4109 23.6778 80.2025 22.4628 79.1447 21.0003Z" fill="#072748"/>
<path d="M157.503 10.2845C154.318 8.46948 153.26 7.47948 153.25 5.47198C153.236 3.27823 154.922 1.6645 157.48 1.65075C159.493 1.63575 161.734 2.70572 162.936 3.95697L162.931 0.40826C161.272 0.39696 159.777 0.0707181 157.366 0.0844681C153.989 0.108268 149.733 1.66451 149.766 6.28826C149.787 9.72201 152.361 11.4733 155.306 13.1533C159.142 15.3358 160.459 16.4995 160.473 18.877C160.494 21.9233 158.037 23.3345 155.543 23.3533C151.686 23.377 150.263 21.552 148.92 19.7245L148.926 23.6332C150.705 24.4007 152.997 24.9308 155.247 24.9158C159.684 24.8858 164.004 22.752 163.971 17.787C163.944 13.9645 161.067 12.2995 157.503 10.2845Z" fill="#072748"/>
<path d="M24.1973 23.6782C24.1973 24.0745 23.8748 24.3945 23.4783 24.3945H0.888935C0.491155 24.3945 0.169922 24.0745 0.169922 23.6782V1.17572C0.169922 0.77947 0.491155 0.459473 0.888935 0.459473H23.4783C23.8748 0.459473 24.1973 0.77947 24.1973 1.17572V23.6782Z" fill="#072748"/>
<path d="M15.5298 3.32703L16.0468 4.53448L17.2715 4.177L15.9075 7.03949L15.1584 7.14203L13.0063 11.592L13.0073 9.96826L14.5257 6.83698L14.1404 6.19452L15.5298 3.32703Z" fill="white"/>
<path d="M11.2016 2.81012L12.1929 3.65637L13.1453 2.80261L13.159 5.97516L12.5367 6.38385L12.5605 11.3176L11.8502 9.86139L11.8364 6.38635L11.2165 5.98389L11.2016 2.81012Z" fill="white"/>
<path d="M8.33578 4.55676L8.81386 3.36047L10.2293 6.21552L9.85788 6.85675L12.0438 11.2767L10.7614 10.288L9.22921 7.17047L8.49138 7.07428L7.07593 4.22302L8.33578 4.55676Z" fill="white"/>
<path d="M17.0497 17.5191L17.7912 17.1466L13.2061 13.6204L15.776 18.7966L16.2754 18.1391L16.5 21.0654L14.3141 19.1078L15.1386 19.0989L12.5699 13.9351L12.6 19.7001L13.3441 19.3276L12.27 22.0501L11.1545 19.3389L11.9011 19.7051L11.8722 13.9351L9.355 19.1251H10.1907L8.01986 21.1076L8.20432 18.1789L8.72256 18.8314L11.2372 13.6276L6.68222 17.1976L7.43637 17.5664L4.61803 18.3901L6.07991 15.8452L6.25056 16.6489L11.6375 12.4127L7.22682 9.00513L6.50905 9.23138L3.9856 7.3064L5.26928 7.0401L5.17894 5.76263L7.7049 7.70764L7.64216 8.44012L18.2266 16.5977L18.3922 15.7877L19.8742 18.3176L17.0497 17.5191Z" fill="white"/>
<path d="M17.8971 9.17865L17.1781 8.95612L13.2705 12.0199L13.9933 10.5674L16.7376 8.40112L16.6787 7.66736L19.1871 5.69611L19.1307 7.00488L20.383 7.22864L17.8971 9.17865Z" fill="white"/>
<path d="M52.2003 23.6329C52.2003 24.0291 51.8778 24.3491 51.4813 24.3491H28.8907C28.4941 24.3491 28.1716 24.0291 28.1716 23.6329V1.13037C28.1716 0.734121 28.4941 0.414124 28.8907 0.414124H51.4813C51.8778 0.414124 52.2003 0.734121 52.2003 1.13037V23.6329Z" fill="#072748"/>
<path d="M41.508 9.51551C41.508 8.09801 40.4288 7.61677 39.3472 7.61677C38.9745 7.61677 38.2843 7.64177 37.8564 7.68677C37.8326 7.94052 37.8188 8.12548 37.8188 8.36048V11.5855C38.0785 11.618 38.6382 11.618 38.8992 11.618C40.5505 11.618 41.508 10.798 41.508 9.51551ZM43.5345 17.1043C42.8243 17.1043 42.5507 16.8192 42.1404 16.2867L40.0361 13.4818C39.2154 12.3805 38.7925 12.3442 37.8188 12.3442V15.2155C37.8188 15.7843 37.8188 16.4993 38.2279 17.1043H36.0809C36.4912 16.4993 36.4912 15.7843 36.4912 15.2155V8.82923C36.4912 8.15423 36.3419 7.58802 36.0068 7.09052C37.4499 7.03802 38.7147 6.96176 39.7575 6.92426C42.0664 6.84176 43 7.96426 43 9.23676C43 10.768 41.8819 11.6968 40.4363 12.1118L43.4969 15.6492C43.98 16.2517 44.3878 16.6643 44.9412 17.1043H43.5345Z" fill="white"/>
</g>
<defs>
<clipPath id="clip0_106_1100">
<rect width="260" height="25" fill="white"/>
</clipPath>
</defs>
</svg>
