<svg width="260" height="50" viewBox="0 0 260 50" fill="none" xmlns="http://www.w3.org/2000/svg">
<g clip-path="url(#clip0_106_1121)">
<path d="M0 0H50.7448V25.5282H0V0Z" fill="#E60028"/>
<path d="M0 24.8239H50.7448V49.8239H0V24.8239Z" fill="black"/>
<path d="M8.78613 23.4155H41.7793V26.4084H8.78613V23.4155Z" fill="white"/>
<path d="M84.6345 5.6338C81.9448 4.57746 78.8966 3.69717 76.3862 3.69717C72.6207 3.69717 70.6483 4.57743 70.6483 5.98588C70.6483 10.0352 87.6828 6.86616 87.6828 15.669C87.6828 19.3662 84.2759 22.1831 77.2828 22.1831C73.1587 22.1831 69.931 21.3028 66.1655 19.3662L67.7794 16.0211C71.007 17.7817 74.0552 18.662 77.2828 18.662C81.4069 18.662 83.5587 17.4295 83.5587 15.669C83.5587 11.0915 66.5242 14.6127 66.5242 6.33802C66.5242 2.81689 69.9311 0.352112 76.2069 0.352112C79.9724 0.352112 83.0208 1.23237 86.069 2.64082L84.6345 5.6338Z" fill="black"/>
<path d="M103.641 22.1831C96.8272 22.1831 91.2686 17.7817 91.2686 11.0915C91.2686 4.57744 96.8272 0 103.641 0C110.455 0 116.013 4.57744 116.013 11.0915C115.834 17.7817 110.455 22.1831 103.641 22.1831ZM103.641 3.52113C98.6203 3.52113 95.3927 6.86617 95.3927 11.0915C95.3927 15.3169 98.6203 18.662 103.641 18.662C108.662 18.662 111.889 15.4929 111.889 11.0915C111.889 6.86617 108.662 3.52113 103.641 3.52113Z" fill="black"/>
<path d="M132.151 22.1831C124.979 22.1831 119.6 17.7817 119.6 11.0915C119.6 4.57744 124.979 0 132.151 0C136.275 0 139.324 1.23237 142.013 3.16899L139.862 6.16197C137.889 4.75352 135.379 3.52113 132.151 3.52113C126.951 3.52113 123.724 6.69016 123.724 10.9155C123.724 15.1409 126.951 18.3098 132.151 18.3098C135.379 18.3098 138.069 17.2535 139.862 15.8451L142.013 18.838C139.503 20.9507 136.275 22.1831 132.151 22.1831Z" fill="black"/>
<path d="M146.496 0.704193H150.441V21.6549H146.496V0.704193Z" fill="black"/>
<path d="M156.179 21.4789V0.704193H175.545V4.04925H160.124V9.15493H172.138V12.6761H160.124V18.1338H176.262V21.4789H156.179Z" fill="black"/>
<path d="M178.414 4.04925V0.704193H199.751V4.04925H190.965V21.4789H187.02V4.04925H178.414Z" fill="black"/>
<path d="M202.8 21.4789V0.704193H222.165V4.04925H206.745V9.15493H218.758V12.6761H206.745V18.1338H222.883V21.4789H202.8Z" fill="black"/>
<path d="M78.3585 46.3028C80.5102 46.3028 82.6619 45.7747 84.455 45.0704V39.0845H88.2205V47.1831C85.5308 48.9437 81.7654 50 78.1792 50C71.0068 50 65.6274 45.5986 65.6274 38.9085C65.6274 32.3944 71.0068 27.8169 78.1792 27.8169C82.3033 27.8169 85.3516 28.8733 88.0412 30.9859L85.8895 33.9789C83.9171 32.5704 81.4068 31.5141 78.1792 31.5141C72.9792 31.338 69.7516 34.6831 69.7516 38.9085C69.7516 43.1338 72.9792 46.3028 78.3585 46.3028Z" fill="black"/>
<path d="M93.4204 49.2957V28.5211H112.786V31.8662H97.3653V36.9718H109.379V40.4929H97.3653V45.9507H113.503V49.2957H93.4204Z" fill="black"/>
<path d="M121.214 49.2958H117.269V28.3451H121.214L135.021 44.0141H135.2C135.021 40.1409 135.021 36.7958 135.021 33.8028V28.3451H138.786V49.2958H134.841L121.035 33.6268C121.214 36.7958 121.214 42.0775 121.214 43.838V49.2958Z" fill="black"/>
<path d="M144.345 49.2957V28.5211H163.71V31.8662H148.289V36.9718H160.303V40.4929H148.289V45.9507H164.427V49.2957H144.345Z" fill="black"/>
<path d="M178.952 41.7253H172.676V49.4718H168.731V28.5211H182.359C186.841 28.5211 189.71 31.338 189.71 35.2112C189.71 38.9084 187.021 41.1972 183.614 41.7253L189.89 49.4718H184.869L178.952 41.7253ZM181.821 38.2042C184.331 38.2042 185.765 36.9718 185.765 35.2112C185.765 33.2746 184.51 32.0422 182.359 32.0422H172.676V38.3802H181.821V38.2042Z" fill="black"/>
<path d="M197.958 44.3662L195.448 49.4718H191.145L201.545 28.5211H205.669L216.069 49.4718H211.765L209.255 44.3662H197.958ZM199.572 40.8451H207.82L203.696 32.3943L199.572 40.8451Z" fill="black"/>
<path d="M219.117 49.2957V28.5211H223.062V45.9507H237.228V49.2957H219.117Z" fill="black"/>
<path d="M239.917 49.2957V28.5211H259.282V31.8662H243.862V36.9718H255.876V40.4929H243.862V45.9507H260V49.2957H239.917Z" fill="black"/>
</g>
<defs>
<clipPath id="clip0_106_1121">
<rect width="260" height="50" fill="white"/>
</clipPath>
</defs>
</svg>
