<svg width="34" height="35" viewBox="0 0 34 35" fill="none" xmlns="http://www.w3.org/2000/svg">
<path opacity="0.4" d="M23.0065 5.77234H10.9931C7.49398 5.77234 4.66064 8.61984 4.66064 12.1048V25.4357C4.66064 28.9207 7.50814 31.7682 10.9931 31.7682H22.9923C26.4915 31.7682 29.3248 28.9207 29.3248 25.4357V12.1048C29.339 8.60567 26.4915 5.77234 23.0065 5.77234Z" fill="white"/>
<path d="M20.329 3.43494H13.6707C12.1973 3.43494 10.9932 4.62494 10.9932 6.09827V7.42994C10.9932 8.90327 12.1832 10.0933 13.6565 10.0933H20.329C21.8023 10.0933 22.9923 8.90327 22.9923 7.42994V6.09827C23.0065 4.62494 21.8023 3.43494 20.329 3.43494Z" fill="white"/>
<path d="M20.5844 22.7299L18.5302 20.6757L20.5135 18.6924C20.9244 18.2816 20.9244 17.6016 20.5135 17.1907C20.1027 16.7799 19.4227 16.7799 19.0119 17.1907L17.0285 19.1741L14.9744 17.1199C14.5635 16.7091 13.8835 16.7091 13.4727 17.1199C13.0619 17.5307 13.0619 18.2107 13.4727 18.6216L15.5269 20.6757L13.416 22.7866C13.0052 23.1974 13.0052 23.8774 13.416 24.2882C13.6285 24.5007 13.8977 24.5999 14.1669 24.5999C14.436 24.5999 14.7052 24.5007 14.9177 24.2882L17.0285 22.1774L19.0827 24.2316C19.2952 24.4441 19.5644 24.5432 19.8335 24.5432C20.1027 24.5432 20.3719 24.4441 20.5844 24.2316C20.9952 23.8207 20.9952 23.1549 20.5844 22.7299Z" fill="white"/>
</svg>
