<svg width="35" height="35" viewBox="0 0 35 35" fill="none" xmlns="http://www.w3.org/2000/svg">
<path opacity="0.4" d="M23.5065 5.77234H11.4931C7.99398 5.77234 5.16064 8.61984 5.16064 12.1048V25.4357C5.16064 28.9207 8.00814 31.7682 11.4931 31.7682H23.4923C26.9915 31.7682 29.8248 28.9207 29.8248 25.4357V12.1048C29.839 8.60567 26.9915 5.77234 23.5065 5.77234Z" fill="white"/>
<path d="M20.829 3.43494H14.1707C12.6973 3.43494 11.4932 4.62494 11.4932 6.09827V7.42994C11.4932 8.90327 12.6832 10.0933 14.1565 10.0933H20.829C22.3023 10.0933 23.4923 8.90327 23.4923 7.42994V6.09827C23.5065 4.62494 22.3023 3.43494 20.829 3.43494Z" fill="white"/>
<path d="M15.8143 24.6141C15.5452 24.6141 15.276 24.5149 15.0635 24.3024L12.9385 22.1774C12.5277 21.7666 12.5277 21.0866 12.9385 20.6757C13.3493 20.2649 14.0293 20.2649 14.4402 20.6757L15.8143 22.0499L20.7302 17.1341C21.141 16.7232 21.821 16.7232 22.2318 17.1341C22.6427 17.5449 22.6427 18.2249 22.2318 18.6357L16.5652 24.3024C16.3668 24.5149 16.0835 24.6141 15.8143 24.6141Z" fill="white"/>
</svg>
