<svg width="40" height="40" viewBox="0 0 40 40" fill="none" xmlns="http://www.w3.org/2000/svg">
<path opacity="0.4" d="M17.6665 6.91672V10H15.1999C12.5166 10 11.1666 11.35 11.1666 14.0333V30H6.91663C4.53329 30 3.33325 28.8 3.33325 26.4166V6.91672C3.33325 4.53338 4.53329 3.33334 6.91663 3.33334H14.0833C16.4666 3.33334 17.6665 4.53338 17.6665 6.91672Z" fill="white"/>
<path opacity="0.4" d="M36.6668 6.91672V26.4166C36.6668 28.8 35.4667 30 33.0834 30H28.9501V14.0333C28.9501 11.35 27.6168 10 24.9335 10H22.3335V6.91672C22.3335 4.53338 23.5334 3.33334 25.9168 3.33334H33.0834C35.4667 3.33334 36.6668 4.53338 36.6668 6.91672Z" fill="white"/>
<path fill-rule="evenodd" clip-rule="evenodd" d="M28.9501 32.6334V14.0333C28.9501 11.35 27.6168 10 24.9334 10H15.2001C12.5167 10 11.1667 11.35 11.1667 14.0333V32.6334C11.1667 35.3167 12.5167 36.6667 15.2001 36.6667H24.9334C27.6168 36.6667 28.9501 35.3167 28.9501 32.6334ZM16.6667 19.5833H23.3334C24.0167 19.5833 24.5834 19.0167 24.5834 18.3333C24.5834 17.65 24.0167 17.0833 23.3334 17.0833H16.6667C15.9834 17.0833 15.4167 17.65 15.4167 18.3333C15.4167 19.0167 15.9834 19.5833 16.6667 19.5833ZM23.3334 24.5833H16.6667C15.9834 24.5833 15.4167 24.0167 15.4167 23.3333C15.4167 22.65 15.9834 22.0833 16.6667 22.0833H23.3334C24.0167 22.0833 24.5834 22.65 24.5834 23.3333C24.5834 24.0167 24.0167 24.5833 23.3334 24.5833ZM21.25 36.6667V31.6667C21.25 30.9833 20.6833 30.4167 20 30.4167C19.3167 30.4167 18.75 30.9833 18.75 31.6667V36.6667H21.25Z" fill="white"/>
</svg>
