<svg width="34" height="34" viewBox="0 0 34 34" fill="none" xmlns="http://www.w3.org/2000/svg">
<path opacity="0.4" d="M31.1667 12.07V5.63831C31.1667 3.64081 30.26 2.83331 28.0075 2.83331H22.2842C20.0317 2.83331 19.125 3.64081 19.125 5.63831V12.0558C19.125 14.0675 20.0317 14.8608 22.2842 14.8608H28.0075C30.26 14.875 31.1667 14.0675 31.1667 12.07Z" fill="white"/>
<path opacity="0.4" d="M31.1667 28.0075V22.2842C31.1667 20.0317 30.26 19.125 28.0075 19.125H22.2842C20.0317 19.125 19.125 20.0317 19.125 22.2842V28.0075C19.125 30.26 20.0317 31.1667 22.2842 31.1667H28.0075C30.26 31.1667 31.1667 30.26 31.1667 28.0075Z" fill="white"/>
<path d="M14.875 12.07V5.63831C14.875 3.64081 13.9684 2.83331 11.7159 2.83331H5.99254C3.74004 2.83331 2.83337 3.64081 2.83337 5.63831V12.0558C2.83337 14.0675 3.74004 14.8608 5.99254 14.8608H11.7159C13.9684 14.875 14.875 14.0675 14.875 12.07Z" fill="white"/>
<path opacity="0.4" d="M14.875 28.0075V22.2842C14.875 20.0317 13.9684 19.125 11.7159 19.125H5.99254C3.74004 19.125 2.83337 20.0317 2.83337 22.2842V28.0075C2.83337 30.26 3.74004 31.1667 5.99254 31.1667H11.7159C13.9684 31.1667 14.875 30.26 14.875 28.0075Z" fill="white"/>
</svg>
