<svg width="34" height="35" viewBox="0 0 34 35" fill="none" xmlns="http://www.w3.org/2000/svg">
<path opacity="0.4" d="M23.0065 5.77234H10.9931C7.49398 5.77234 4.66064 8.61984 4.66064 12.1048V25.4357C4.66064 28.9207 7.50814 31.7682 10.9931 31.7682H22.9923C26.4915 31.7682 29.3248 28.9207 29.3248 25.4357V12.1048C29.339 8.60567 26.4915 5.77234 23.0065 5.77234Z" fill="white"/>
<path d="M20.329 3.43494H13.6707C12.1973 3.43494 10.9932 4.62494 10.9932 6.09827V7.42994C10.9932 8.90327 12.1832 10.0933 13.6565 10.0933H20.329C21.8023 10.0933 22.9923 8.90327 22.9923 7.42994V6.09827C23.0065 4.62494 21.8023 3.43494 20.329 3.43494Z" fill="white"/>
</svg>
