<svg width="25" height="24" viewBox="0 0 25 24" fill="none" xmlns="http://www.w3.org/2000/svg">
<path opacity="0.4" d="M7.13501 3H17.135C20.135 3 22.135 4.5 22.135 8V11.14C22.135 11.87 21.385 12.33 20.715 12.04C19.615 11.56 18.365 11.38 17.055 11.59C14.435 12.02 12.295 14.09 11.765 16.69C11.615 17.45 11.595 18.19 11.695 18.9C11.775 19.49 11.295 20.01 10.705 20.01H7.13501C4.13501 20.01 2.13501 18.51 2.13501 15.01V8.01001C2.13501 4.50001 4.13501 3 7.13501 3Z" fill="currentColor"/>
<path d="M12.135 11.87C11.295 11.87 10.445 11.61 9.79504 11.08L6.66503 8.57996C6.34503 8.31996 6.28504 7.84997 6.54504 7.52997C6.80504 7.20997 7.27502 7.14997 7.59502 7.40997L10.725 9.90997C11.485 10.52 12.775 10.52 13.535 9.90997L16.665 7.40997C16.985 7.14997 17.465 7.19997 17.715 7.52997C17.975 7.84997 17.925 8.32996 17.595 8.57996L14.465 11.08C13.825 11.61 12.975 11.87 12.135 11.87Z" fill="currentColor"/>
<path d="M21.1763 16.5305C20.4041 16.5305 20.0884 15.9844 20.4724 15.3146C20.6942 14.9264 20.562 14.4315 20.1737 14.2097L19.4357 13.7873C19.0987 13.5868 18.6635 13.7063 18.463 14.0433L18.4161 14.1244C18.0321 14.7942 17.4008 14.7942 17.0125 14.1244L16.9656 14.0433C16.7736 13.7063 16.3385 13.5868 16.0015 13.7873L15.2634 14.2097C14.8752 14.4315 14.743 14.9307 14.9648 15.3189C15.353 15.9844 15.0373 16.5305 14.2652 16.5305C13.8215 16.5305 13.4546 16.8931 13.4546 17.341V18.0919C13.4546 18.5355 13.8172 18.9024 14.2652 18.9024C15.0373 18.9024 15.353 19.4485 14.9648 20.1183C14.743 20.5065 14.8752 21.0014 15.2634 21.2232L16.0015 21.6456C16.3385 21.8461 16.7736 21.7266 16.9741 21.3896L17.0211 21.3085C17.405 20.6387 18.0364 20.6387 18.4246 21.3085L18.4716 21.3896C18.6721 21.7266 19.1072 21.8461 19.4442 21.6456L20.1823 21.2232C20.5705 21.0014 20.7027 20.5022 20.4809 20.1183C20.0927 19.4485 20.4084 18.9024 21.1805 18.9024C21.6242 18.9024 21.9911 18.5398 21.9911 18.0919V17.341C21.9868 16.8974 21.6242 16.5305 21.1763 16.5305ZM17.7207 19.1029C16.9571 19.1029 16.3342 18.4801 16.3342 17.7165C16.3342 16.9528 16.9571 16.33 17.7207 16.33C18.4844 16.33 19.1072 16.9528 19.1072 17.7165C19.1072 18.4801 18.4844 19.1029 17.7207 19.1029Z" fill="white"/>
</svg>
