<svg width="39" height="36" viewBox="0 0 39 36" fill="none" xmlns="http://www.w3.org/2000/svg">
<path d="M25.9376 5.32279C26.6909 5.93185 27.0955 6.09097 27.198 6.07574C27.442 5.58926 27.214 5.36162 27.0091 5.18195C26.8041 5.00228 26.3475 4.69546 26.0913 4.39017C25.8351 4.08488 25.7295 3.30833 25.7295 3.30833C25.5246 2.2577 24.4852 1.60676 24.4852 1.60676C25.2645 1.07384 25.9498 1.53596 26.1464 1.70878C26.4064 2.10086 26.8423 1.88922 26.8423 1.88922C26.8423 1.13626 25.9705 0.87513 25.5506 0.747227C23.5766 0.151109 22.5081 2.05138 22.5081 2.05138C21.9177 2.86676 20.8355 3.40273 20.8355 3.40273C20.8355 3.40273 20.5862 4.17624 21.1414 3.9014C21.6217 3.64255 22.6382 2.99238 22.7475 2.92919C22.8569 2.866 24.063 2.66272 23.9521 3.36847C23.7869 3.98743 23.0229 6.5904 23.2592 7.58621C23.2592 7.58621 23.8504 8.10392 24.0393 7.13932C24.1494 6.1435 24.4171 4.53634 24.9211 4.06585C24.9219 4.07041 25.6462 5.08983 25.9376 5.32279Z" fill="#0364A8"/>
<path d="M28.7679 21.6576C28.7679 21.6576 18.1102 30.1456 7.90222 31.2122C7.90222 31.2122 15.5787 38.9267 26.7519 33.2396C27.8853 32.4874 36.3282 28.39 34.9844 16.473L33.0104 18.2293C33.0104 18.2293 33.3882 25.599 28.0643 29.7383C26.6777 30.8042 22.5508 33.8776 17.2582 33.0622C16.8177 32.9054 15.1794 31.902 17.1014 30.5499C18.0773 30.0832 24.872 26.09 28.7679 21.6576Z" fill="#0364A8"/>
<path d="M2.13746 17.0373C2.13746 17.0373 -1.80059 29.1424 13.6678 24.9711C16.7868 24.0301 19.6533 23.0891 23.2449 20.9566C26.1114 19.2634 31.6877 15.7796 35.0582 11.1728L33.4835 10.5143L38.6842 8.38257L37.9599 13.5596L36.9481 12.2075C36.9481 12.2075 32.6743 19.5664 21.7955 25.2117C21.7955 25.2117 14.9596 29.048 9.19442 29.5512C7.36727 29.6449 3.93325 30.3666 1.75964 27.7948C1.03459 26.7267 -0.792557 24.0613 2.13746 17.0373Z" fill="#0364A8"/>
<path d="M18.3406 4.11802C18.7584 4.11802 19.097 3.78092 19.097 3.36507C19.097 2.94923 18.7584 2.61212 18.3406 2.61212C17.9229 2.61212 17.5842 2.94923 17.5842 3.36507C17.5842 3.78092 17.9229 4.11802 18.3406 4.11802Z" fill="#0364A8"/>
<path d="M22.0576 1.93284C22.4753 1.93284 22.814 1.59574 22.814 1.17989C22.814 0.764049 22.4753 0.426941 22.0576 0.426941C21.6398 0.426941 21.3011 0.764049 21.3011 1.17989C21.3011 1.59574 21.6398 1.93284 22.0576 1.93284Z" fill="#0364A8"/>
<path d="M24.9172 4.99548C24.9172 4.99548 24.5707 5.76366 24.586 6.18696C24.586 6.18696 29.5795 8.30344 31.5328 12.7724L33.0762 11.0975C33.0762 11.0975 30.0047 6.44048 27.7225 5.56267C27.7225 5.56267 27.7325 6.78536 26.9455 6.38871C26.4369 6.12377 24.9172 4.99548 24.9172 4.99548Z" fill="#0364A8"/>
<path d="M19.2754 2.8313C19.2754 2.8313 19.5048 3.28809 19.3695 3.54238C19.3695 3.54238 20.2781 3.43275 20.9817 2.98813C20.4303 2.81706 19.8489 2.76362 19.2754 2.8313Z" fill="#0364A8"/>
<path d="M17.3321 2.92615C17.3321 2.92615 16.9015 3.86715 17.5944 4.15949C17.5944 4.15949 16.1665 5.11115 16.103 5.11115C16.0396 5.11115 8.65755 6.59497 5.97993 12.8356C5.60211 13.5565 1.0025 22.3377 9.54015 22.212V14.059H13.2679V22.0347L15.7459 21.6372V10.2638H19.4636V20.4656L21.6281 19.6723V7.37838H25.2824V17.7697C25.2824 17.7697 30.9535 14.5287 33.4315 11.8946C33.4315 11.8946 28.3485 18.7625 18.4885 22.3689C18.4885 22.3689 12.9757 24.3757 7.14703 24.2189C5.8239 24.0621 2.64226 24.2501 2.422 19.6403C2.422 17.3517 2.79982 10.3582 9.63575 5.56033C11.1149 4.74495 12.3646 3.53216 17.3321 2.92615Z" fill="#0364A8"/>
<path d="M19.8261 4.84625C19.8261 4.84625 21.6219 4.41457 22.8854 3.3175H23.5309C23.5309 3.3175 23.1217 5.45759 23.1141 5.60148C23.111 5.59844 20.6299 5.19113 19.8261 4.84625Z" fill="#0364A8"/>
<path d="M17.6682 7.33906C17.6682 7.33906 17.4709 9.62304 16.1478 10.7262C16.1478 10.7262 15.3134 10.3813 16.1952 9.25989C16.5174 8.73761 16.6967 8.14049 16.7153 7.52787C16.7313 7.22943 17.3057 5.74789 17.3455 5.45021C17.3455 5.45021 16.6755 5.45021 16.0698 7.02616C16.0698 7.02616 15.2896 6.98657 15.8174 6.06156C16.1164 5.54386 16.7703 4.43841 20.6135 3.61542C20.6135 3.61542 21.0235 3.9839 20.6059 4.16433C20.2281 4.3166 18.6763 4.55642 18.4797 6.25722V6.4643C18.4797 6.4643 18.5111 6.66072 19.2828 6.66833C19.4954 6.70716 19.8893 6.76198 20.0392 7.66415C20.212 8.33792 20.417 8.78482 20.1156 9.1297C19.9351 9.18451 19.5566 9.39616 19.1864 7.43651L17.6682 7.33906Z" fill="#0364A8"/>
</svg>
