<svg width="39" height="36" viewBox="0 0 39 36" fill="none" xmlns="http://www.w3.org/2000/svg">
<path d="M25.9376 5.51481C26.6909 6.12387 27.0955 6.28299 27.198 6.26776C27.442 5.78127 27.214 5.55364 27.0091 5.37396C26.8041 5.19429 26.3475 4.88748 26.0913 4.58219C25.8351 4.2769 25.7295 3.50034 25.7295 3.50034C25.5246 2.44971 24.4852 1.79878 24.4852 1.79878C25.2645 1.26585 25.9498 1.72798 26.1464 1.9008C26.4064 2.29288 26.8423 2.08123 26.8423 2.08123C26.8423 1.32828 25.9705 1.06715 25.5506 0.939243C23.5766 0.343126 22.5081 2.24339 22.5081 2.24339C21.9177 3.05877 20.8355 3.59475 20.8355 3.59475C20.8355 3.59475 20.5862 4.36825 21.1414 4.09342C21.6217 3.83457 22.6382 3.18439 22.7475 3.1212C22.8569 3.05801 24.063 2.85474 23.9521 3.56049C23.7869 4.17945 23.0229 6.78242 23.2592 7.77823C23.2592 7.77823 23.8504 8.29593 24.0393 7.33133C24.1494 6.33552 24.4171 4.72836 24.9211 4.25786C24.9219 4.26243 25.6462 5.28184 25.9376 5.51481Z" fill="#F8F9FA"/>
<path d="M28.7679 21.8496C28.7679 21.8496 18.1102 30.3376 7.90222 31.4042C7.90222 31.4042 15.5787 39.1188 26.7519 33.4317C27.8853 32.6795 36.3282 28.582 34.9844 16.665L33.0104 18.4214C33.0104 18.4214 33.3882 25.791 28.0643 29.9303C26.6777 30.9962 22.5508 34.0696 17.2582 33.2543C16.8177 33.0974 15.1794 32.094 17.1014 30.7419C18.0773 30.2752 24.872 26.282 28.7679 21.8496Z" fill="#F8F9FA"/>
<path d="M2.13746 17.2293C2.13746 17.2293 -1.80059 29.3344 13.6678 25.1631C16.7868 24.2221 19.6533 23.2811 23.2449 21.1486C26.1114 19.4554 31.6877 15.9716 35.0582 11.3648L33.4835 10.7063L38.6842 8.57458L37.9599 13.7516L36.9481 12.3995C36.9481 12.3995 32.6743 19.7585 21.7955 25.4037C21.7955 25.4037 14.9596 29.24 9.19442 29.7432C7.36727 29.8369 3.93325 30.5586 1.75964 27.9869C1.03459 26.9187 -0.792557 24.2533 2.13746 17.2293Z" fill="#F8F9FA"/>
<path d="M18.3406 4.31004C18.7584 4.31004 19.097 3.97293 19.097 3.55709C19.097 3.14125 18.7584 2.80414 18.3406 2.80414C17.9229 2.80414 17.5842 3.14125 17.5842 3.55709C17.5842 3.97293 17.9229 4.31004 18.3406 4.31004Z" fill="#F8F9FA"/>
<path d="M22.0576 2.12486C22.4753 2.12486 22.814 1.78775 22.814 1.37191C22.814 0.956065 22.4753 0.618958 22.0576 0.618958C21.6398 0.618958 21.3011 0.956065 21.3011 1.37191C21.3011 1.78775 21.6398 2.12486 22.0576 2.12486Z" fill="#F8F9FA"/>
<path d="M24.9172 5.1875C24.9172 5.1875 24.5707 5.95568 24.586 6.37897C24.586 6.37897 29.5795 8.49546 31.5328 12.9644L33.0762 11.2895C33.0762 11.2895 30.0047 6.6325 27.7225 5.75469C27.7225 5.75469 27.7325 6.97738 26.9455 6.58072C26.4369 6.31578 24.9172 5.1875 24.9172 5.1875Z" fill="#F8F9FA"/>
<path d="M19.2754 3.02331C19.2754 3.02331 19.5048 3.48011 19.3695 3.73439C19.3695 3.73439 20.2781 3.62476 20.9817 3.18015C20.4303 3.00907 19.8489 2.95563 19.2754 3.02331Z" fill="#F8F9FA"/>
<path d="M17.3321 3.11816C17.3321 3.11816 16.9015 4.05916 17.5944 4.35151C17.5944 4.35151 16.1665 5.30317 16.103 5.30317C16.0396 5.30317 8.65755 6.78699 5.97993 13.0276C5.60211 13.7486 1.0025 22.5297 9.54015 22.4041V14.251H13.2679V22.2267L15.7459 21.8293V10.4558H19.4636V20.6576L21.6281 19.8643V7.5704H25.2824V17.9617C25.2824 17.9617 30.9535 14.7208 33.4315 12.0866C33.4315 12.0866 28.3485 18.9545 18.4885 22.5609C18.4885 22.5609 12.9757 24.5678 7.14703 24.4109C5.8239 24.2541 2.64226 24.4421 2.422 19.8323C2.422 17.5438 2.79982 10.5502 9.63575 5.75235C11.1149 4.93697 12.3646 3.72418 17.3321 3.11816Z" fill="#F8F9FA"/>
<path d="M19.8261 5.03826C19.8261 5.03826 21.6219 4.60659 22.8854 3.50952H23.5309C23.5309 3.50952 23.1217 5.64961 23.1141 5.7935C23.111 5.79045 20.6299 5.38314 19.8261 5.03826Z" fill="#F8F9FA"/>
<path d="M17.6682 7.53108C17.6682 7.53108 17.4709 9.81505 16.1478 10.9182C16.1478 10.9182 15.3134 10.5733 16.1952 9.4519C16.5174 8.92963 16.6967 8.33251 16.7153 7.71989C16.7313 7.42145 17.3057 5.93991 17.3455 5.64223C17.3455 5.64223 16.6755 5.64223 16.0698 7.21817C16.0698 7.21817 15.2896 7.17858 15.8174 6.25357C16.1164 5.73587 16.7703 4.63043 20.6135 3.80743C20.6135 3.80743 21.0235 4.17592 20.6059 4.35635C20.2281 4.50861 18.6763 4.74843 18.4797 6.44923V6.65631C18.4797 6.65631 18.5111 6.85274 19.2828 6.86035C19.4954 6.89918 19.8893 6.95399 20.0392 7.85616C20.212 8.52994 20.417 8.97684 20.1156 9.32172C19.9351 9.37653 19.5566 9.58818 19.1864 7.62853L17.6682 7.53108Z" fill="#F8F9FA"/>
</svg>
