<svg width="24" height="24" viewBox="0 0 24 24" fill="none" xmlns="http://www.w3.org/2000/svg">
<path d="M20.68 13.91V13.9C19.8 12.97 18.57 12.4 17.2 12.4C14.55 12.4 12.4 14.55 12.4 17.2C12.4 18.43 12.87 19.55 13.63 20.4C14.51 21.38 15.78 22 17.2 22C19.85 22 22 19.85 22 17.2C22 15.93 21.5 14.77 20.68 13.91ZM18.99 18.01H17.95V19.1C17.95 19.51 17.61 19.85 17.2 19.85C16.79 19.85 16.45 19.51 16.45 19.1V18.01H15.41C14.99 18.01 14.66 17.68 14.66 17.26C14.66 16.85 14.98 16.52 15.4 16.51H16.45V15.51C16.45 15.49 16.45 15.47 16.46 15.45C16.48 15.07 16.81 14.76 17.2 14.76C17.6 14.76 17.93 15.08 17.95 15.48V16.51H18.99C19.41 16.51 19.74 16.85 19.74 17.26C19.74 17.68 19.41 18.01 18.99 18.01Z" fill="#A1A5B7"/>
<path d="M22 8.68997C22 9.87997 21.81 10.98 21.48 12C21.27 12.67 21 13.31 20.68 13.9C19.8 12.97 18.57 12.4 17.2 12.4C14.55 12.4 12.4 14.55 12.4 17.2C12.4 18.43 12.87 19.55 13.63 20.4C13.26 20.57 12.92 20.71 12.62 20.81C12.28 20.93 11.72 20.93 11.38 20.81C8.97001 19.99 4.10002 17 2.52002 12C2.19002 10.98 2 9.87997 2 8.68997C2 5.59997 4.49 3.09998 7.56 3.09998C9.37 3.09998 10.99 3.97996 12 5.32996C13.01 3.97996 14.63 3.09998 16.44 3.09998C19.51 3.09998 22 5.59997 22 8.68997Z" fill="currentColor"/>
</svg>
