<svg width="34" height="34" viewBox="0 0 34 34" fill="none" xmlns="http://www.w3.org/2000/svg">
<path opacity="0.4" d="M28.135 11.4608C28.135 11.6733 28.135 11.8858 28.1209 12.0842C25.9534 11.2767 23.4034 11.7725 21.7034 13.3025C20.5559 12.2683 19.0684 11.6875 17.4817 11.6875C13.9967 11.6875 11.1634 14.535 11.1634 18.0483C11.1634 22.0575 13.175 24.99 15.1017 26.8883C14.9459 26.8741 14.8184 26.8458 14.705 26.8033C11.0359 25.5425 2.83337 20.3291 2.83337 11.4608C2.83337 7.55082 5.97836 4.39166 9.86003 4.39166C12.1692 4.39166 14.2092 5.49665 15.4842 7.21082C16.7734 5.49665 18.8134 4.39166 21.1084 4.39166C24.99 4.39166 28.135 7.55082 28.135 11.4608Z" fill="currentColor"/>
<path d="M25.5 13.5858C23.9841 13.5858 22.6099 14.3225 21.7599 15.4558C20.9099 14.3225 19.55 13.5858 18.02 13.5858C15.4416 13.5858 13.345 15.6825 13.345 18.2892C13.345 19.295 13.5008 20.2158 13.7841 21.0658C15.1158 25.2733 19.2099 27.7808 21.2358 28.475C21.5191 28.5742 21.9866 28.5742 22.2841 28.475C24.31 27.7808 28.4041 25.2733 29.7358 21.0658C30.0191 20.2016 30.1749 19.2808 30.1749 18.2892C30.1749 15.6825 28.0783 13.5858 25.5 13.5858Z" fill="currentColor"/>
</svg>
