<svg width="40" height="40" viewBox="0 0 40 40" fill="none" xmlns="http://www.w3.org/2000/svg">
<path d="M35.15 11.6333C33.7333 10.0667 31.3666 9.28335 27.9333 9.28335H27.5333V9.21668C27.5333 6.41668 27.5333 2.95001 21.2666 2.95001H18.7333C12.4666 2.95001 12.4666 6.43335 12.4666 9.21668V9.30001H12.0666C8.61665 9.30001 6.26665 10.0833 4.84998 11.65C3.19998 13.4833 3.24998 15.95 3.41665 17.6333L3.43331 17.75L3.59998 19.5C3.61665 19.5167 3.64998 19.55 3.68331 19.5667C4.23331 19.9333 4.79998 20.3 5.39998 20.6333C5.63331 20.7833 5.88331 20.9167 6.13331 21.05C8.98331 22.6167 12.1166 23.6667 15.3 24.1833C15.45 25.75 16.1333 27.5833 19.7833 27.5833C23.4333 27.5833 24.15 25.7667 24.2666 24.15C27.6666 23.6 30.95 22.4167 33.9166 20.6833C34.0166 20.6333 34.0833 20.5833 34.1666 20.5333C34.9333 20.1 35.65 19.6333 36.35 19.1167C36.3833 19.1 36.4166 19.0667 36.4333 19.0333L36.5 18.4333L36.5833 17.65C36.6 17.55 36.6 17.4667 36.6166 17.35C36.75 15.6667 36.7166 13.3667 35.15 11.6333ZM21.8166 23.05C21.8166 24.8167 21.8166 25.0833 19.7666 25.0833C17.7166 25.0833 17.7166 24.7667 17.7166 23.0667V20.9667H21.8166V23.05ZM14.85 9.28335V9.21668C14.85 6.38335 14.85 5.33335 18.7333 5.33335H21.2666C25.15 5.33335 25.15 6.40001 25.15 9.21668V9.30001H14.85V9.28335Z" fill="white"/>
<path opacity="0.4" d="M34.1666 20.5C34.0833 20.55 34 20.6 33.9166 20.65C30.95 22.3833 27.6666 23.55 24.2666 24.1167C24.1333 25.7167 23.4333 27.55 19.7833 27.55C16.1333 27.55 15.4333 25.7333 15.3 24.15C12.1166 23.65 8.98331 22.6 6.13331 21.0167C5.88331 20.8833 5.63331 20.75 5.39998 20.6C4.79998 20.2667 4.23331 19.9 3.68331 19.5333C3.64998 19.5167 3.61664 19.4833 3.59998 19.4667L4.61664 30.3167C4.96664 33.6333 6.33331 37.05 13.6666 37.05H26.3666C33.7 37.05 35.0666 33.6333 35.4166 30.3L36.4666 19C36.45 19.0333 36.4166 19.0667 36.3833 19.0833C35.6666 19.6 34.9333 20.0833 34.1666 20.5Z" fill="white"/>
</svg>
