<svg width="21" height="21" viewBox="0 0 21 21" fill="none" xmlns="http://www.w3.org/2000/svg">
<path d="M6.77728 20.2102H15.1573C18.7973 20.2102 20.9673 18.0402 20.9673 14.4002V6.0302C20.9673 2.3802 18.7973 0.210205 15.1573 0.210205H6.78728C3.14728 0.210205 0.977285 2.3802 0.977285 6.0202V14.4002C0.967285 18.0402 3.13728 20.2102 6.77728 20.2102Z" fill="#DBDFE6"/>
<path d="M15.2173 4.71021H10.3873C9.97729 4.71021 9.63729 5.05021 9.63729 5.46021C9.63729 5.87021 9.97729 6.21021 10.3873 6.21021H13.4073L5.68728 13.9302C5.39728 14.2202 5.39728 14.7002 5.68728 14.9902C5.83728 15.1402 6.02729 15.2102 6.21729 15.2102C6.40729 15.2102 6.59729 15.1402 6.74729 14.9902L14.4673 7.27021V10.2902C14.4673 10.7002 14.8073 11.0402 15.2173 11.0402C15.6273 11.0402 15.9673 10.7002 15.9673 10.2902V5.46021C15.9673 5.05021 15.6273 4.71021 15.2173 4.71021Z" fill="#A1A5B7"/>
</svg>
