<svg width="127" height="36" viewBox="0 0 127 36" fill="none" xmlns="http://www.w3.org/2000/svg">
<path d="M116.347 5.53027H115.824H115.717V10.8286L115.956 10.5836L118.491 8.12077H126.065V5.53027H116.347Z" fill="#F8F9FA"/>
<path d="M43.7064 19.0006V5.62756H53.3743V8.06336H46.2441V11.7171H52.9894V14.0511H46.2441V19.0058L43.7064 19.0006Z" fill="#F8F9FA"/>
<path d="M55.3343 19.0003V5.60651H57.8522V19.0003H55.3343Z" fill="#F8F9FA"/>
<path d="M69.0805 5.59088H71.6182V19.0013H70.037V19.021L62.9641 9.97137V19.0044H60.4233V5.61061H62.4791L69.0711 13.9168L69.0805 5.59088Z" fill="#F8F9FA"/>
<path d="M97.3846 5.59088H99.9213V19.0013H98.3463V19.021L91.2734 9.97137V19.0044H88.7357V5.61061H90.7926L97.3846 13.9168V5.59088Z" fill="#F8F9FA"/>
<path d="M114.105 17.3178C112.721 18.6758 110.933 19.3071 108.994 19.3071C103.998 19.3071 101.883 15.8808 101.864 12.4005C101.845 8.89942 104.132 5.34021 108.994 5.34021C109.912 5.33956 110.821 5.52028 111.668 5.87192C112.516 6.22356 113.285 6.73913 113.931 7.38873L112.239 9.01467C111.355 8.15394 110.163 7.75213 108.991 7.75213C105.743 7.75213 104.34 10.162 104.36 12.4005C104.378 14.6203 105.667 16.9346 108.991 16.9346C110.163 16.9346 111.494 16.457 112.373 15.5766L114.105 17.3178Z" fill="#F8F9FA"/>
<path d="M118.406 13.6208H125.746V11.1155H118.384L115.717 13.6852V19.0801H125.981V16.5737H118.406V13.6208Z" fill="#F8F9FA"/>
<path d="M81.3558 5.60864H78.5887L72.5536 19.0003H75.3021L79.9728 8.42134L84.6237 19.0003H87.3909L81.3558 5.60864Z" fill="#F8F9FA"/>
<path d="M78.9363 24.0831C78.9363 24.7902 78.5942 25.4723 77.7379 25.8482C78.8174 26.1752 79.2128 27.3153 79.2128 27.8925C79.2128 29.9369 77.6722 30.5921 75.7634 30.5921H71.3931V21.423H75.7634C77.5804 21.423 78.9363 22.235 78.9363 24.0831ZM73.1037 25.1048H75.7634C76.8565 25.1048 77.2112 24.6469 77.2112 24.1226C77.2112 23.7072 76.869 22.995 75.7634 22.995H73.1037V25.1048ZM73.1037 28.9838H75.7634C76.4748 28.9838 77.4886 28.7481 77.4886 27.8832C77.4886 27.0578 76.4748 26.6248 75.7634 26.6248H73.1037V28.9838Z" fill="#F8F9FA"/>
<path d="M88.6123 30.594H86.545L83.8592 27.5269H82.1904V30.594H80.4495V21.4094C81.9098 21.4094 83.37 21.4229 84.8303 21.4229C87.0029 21.4353 88.1482 22.8765 88.1482 24.4629C88.1482 25.7203 87.5693 26.9922 85.818 27.3462L88.6092 30.4777L88.6123 30.594ZM82.1872 23.0322V25.9674H84.8303C85.9369 25.9674 86.4105 25.2344 86.4105 24.5003C86.4105 23.7663 85.9234 23.0322 84.8303 23.0322H82.1872Z" fill="#F8F9FA"/>
<path d="M98.3799 26.062C98.3538 28.4334 96.8925 30.8017 93.6539 30.8017C90.4152 30.8017 88.9143 28.4822 88.9143 26.0703C88.9143 23.6584 90.4674 21.235 93.6539 21.235C96.8403 21.235 98.4059 23.6636 98.3799 26.062ZM90.6259 26.1014C90.6645 27.608 91.4812 29.2163 93.6507 29.2163C95.8203 29.2163 96.639 27.5903 96.6651 26.0838C96.6912 24.5378 95.8223 22.807 93.6507 22.807C91.4791 22.807 90.5863 24.5544 90.6259 26.1014Z" fill="#F8F9FA"/>
<path d="M77.6187 19.0008L80.1365 13.0982L82.4698 19.0008H77.6187Z" fill="#F8F9FA"/>
<path d="M68.3607 25.7059H43.7064V26.55H68.3607V25.7059Z" fill="#F8F9FA"/>
<path d="M126.067 25.7059H101.443V26.55H126.067V25.7059Z" fill="#F8F9FA"/>
<path d="M25.7006 5.51481C26.4539 6.12387 26.8585 6.28299 26.961 6.26776C27.205 5.78127 26.977 5.55364 26.7721 5.37396C26.5671 5.19429 26.1105 4.88748 25.8543 4.58219C25.5981 4.2769 25.4925 3.50034 25.4925 3.50034C25.2876 2.44971 24.2482 1.79878 24.2482 1.79878C25.0275 1.26585 25.7128 1.72798 25.9094 1.9008C26.1694 2.29288 26.6053 2.08123 26.6053 2.08123C26.6053 1.32828 25.7335 1.06715 25.3136 0.939243C23.3396 0.343126 22.2711 2.24339 22.2711 2.24339C21.6807 3.05877 20.5985 3.59475 20.5985 3.59475C20.5985 3.59475 20.3492 4.36825 20.9044 4.09342C21.3847 3.83457 22.4012 3.18439 22.5105 3.1212C22.6199 3.05801 23.826 2.85474 23.7151 3.56049C23.5499 4.17945 22.7859 6.78242 23.0222 7.77823C23.0222 7.77823 23.6134 8.29593 23.8023 7.33133C23.9124 6.33552 24.1801 4.72836 24.6841 4.25786C24.6849 4.26243 25.4092 5.28184 25.7006 5.51481Z" fill="#F8F9FA"/>
<path d="M28.5309 21.8496C28.5309 21.8496 17.8732 30.3376 7.66519 31.4042C7.66519 31.4042 15.3417 39.1188 26.5149 33.4317C27.6483 32.6795 36.0911 28.582 34.7473 16.665L32.7734 18.4214C32.7734 18.4214 33.1512 25.791 27.8273 29.9303C26.4407 30.9962 22.3137 34.0696 17.0212 33.2543C16.5807 33.0974 14.9424 32.094 16.8644 30.7419C17.8403 30.2752 24.6349 26.282 28.5309 21.8496Z" fill="#F8F9FA"/>
<path d="M1.90046 17.2293C1.90046 17.2293 -2.03759 29.3344 13.4308 25.1631C16.5498 24.2221 19.4163 23.2811 23.0079 21.1486C25.8744 19.4554 31.4507 15.9716 34.8212 11.3648L33.2465 10.7063L38.4472 8.57458L37.7229 13.7516L36.7111 12.3995C36.7111 12.3995 32.4373 19.7585 21.5585 25.4037C21.5585 25.4037 14.7226 29.24 8.95742 29.7432C7.13027 29.8369 3.69625 30.5586 1.52264 27.9869C0.797591 26.9187 -1.02956 24.2533 1.90046 17.2293Z" fill="#F8F9FA"/>
<path d="M18.1036 4.31004C18.5214 4.31004 18.86 3.97293 18.86 3.55709C18.86 3.14125 18.5214 2.80414 18.1036 2.80414C17.6859 2.80414 17.3472 3.14125 17.3472 3.55709C17.3472 3.97293 17.6859 4.31004 18.1036 4.31004Z" fill="#F8F9FA"/>
<path d="M21.8206 2.12486C22.2383 2.12486 22.577 1.78775 22.577 1.37191C22.577 0.956065 22.2383 0.618958 21.8206 0.618958C21.4028 0.618958 21.0641 0.956065 21.0641 1.37191C21.0641 1.78775 21.4028 2.12486 21.8206 2.12486Z" fill="#F8F9FA"/>
<path d="M24.6802 5.1875C24.6802 5.1875 24.3337 5.95568 24.349 6.37897C24.349 6.37897 29.3425 8.49546 31.2958 12.9644L32.8392 11.2895C32.8392 11.2895 29.7677 6.6325 27.4855 5.75469C27.4855 5.75469 27.4955 6.97738 26.7085 6.58072C26.1999 6.31578 24.6802 5.1875 24.6802 5.1875Z" fill="#F8F9FA"/>
<path d="M19.0384 3.02331C19.0384 3.02331 19.2678 3.48011 19.1325 3.73439C19.1325 3.73439 20.0411 3.62476 20.7447 3.18015C20.1933 3.00907 19.6119 2.95563 19.0384 3.02331Z" fill="#F8F9FA"/>
<path d="M17.0951 3.11816C17.0951 3.11816 16.6645 4.05916 17.3575 4.35151C17.3575 4.35151 15.9295 5.30317 15.8661 5.30317C15.8026 5.30317 8.42058 6.78699 5.74296 13.0276C5.36514 13.7486 0.765529 22.5297 9.30318 22.4041V14.251H13.0309V22.2267L15.5089 21.8293V10.4558H19.2267V20.6576L21.3911 19.8643V7.5704H25.0454V17.9617C25.0454 17.9617 30.7165 14.7208 33.1945 12.0866C33.1945 12.0866 28.1115 18.9545 18.2515 22.5609C18.2515 22.5609 12.7387 24.5678 6.91006 24.4109C5.58693 24.2541 2.4053 24.4421 2.18503 19.8323C2.18503 17.5438 2.56285 10.5502 9.39878 5.75235C10.8779 4.93697 12.1276 3.72418 17.0951 3.11816Z" fill="#F8F9FA"/>
<path d="M19.5891 5.03826C19.5891 5.03826 21.3849 4.60659 22.6484 3.50952H23.2939C23.2939 3.50952 22.8847 5.64961 22.8771 5.7935C22.874 5.79045 20.3929 5.38314 19.5891 5.03826Z" fill="#F8F9FA"/>
<path d="M17.4312 7.53108C17.4312 7.53108 17.2339 9.81505 15.9108 10.9182C15.9108 10.9182 15.0764 10.5733 15.9582 9.4519C16.2804 8.92963 16.4597 8.33251 16.4783 7.71989C16.4943 7.42145 17.0687 5.93991 17.1085 5.64223C17.1085 5.64223 16.4385 5.64223 15.8328 7.21817C15.8328 7.21817 15.0526 7.17858 15.5804 6.25357C15.8794 5.73587 16.5333 4.63043 20.3765 3.80743C20.3765 3.80743 20.7865 4.17592 20.3689 4.35635C19.9911 4.50861 18.4393 4.74843 18.2427 6.44923V6.65631C18.2427 6.65631 18.2741 6.85274 19.0458 6.86035C19.2584 6.89918 19.6523 6.95399 19.8022 7.85616C19.975 8.52994 20.18 8.97684 19.8786 9.32172C19.6981 9.37653 19.3196 9.58818 18.9494 7.62853L17.4312 7.53108Z" fill="#F8F9FA"/>
</svg>
