<svg width="127" height="36" viewBox="0 0 127 36" fill="none" xmlns="http://www.w3.org/2000/svg">
<path d="M116.832 5.33826H116.309H116.202V10.6366L116.441 10.3916L118.976 7.92876H126.55V5.33826H116.832Z" fill="#0364A8"/>
<path d="M44.1912 18.8086V5.43555H53.8591V7.87135H46.7289V11.525H53.4742V13.8591H46.7289V18.8137L44.1912 18.8086Z" fill="#0364A8"/>
<path d="M55.8191 18.8083V5.41449H58.337V18.8083H55.8191Z" fill="#0364A8"/>
<path d="M69.5653 5.39886H72.103V18.8092H70.5218V18.829L63.4489 9.77935V18.8124H60.9081V5.41859H62.9639L69.5559 13.7248L69.5653 5.39886Z" fill="#0364A8"/>
<path d="M97.8694 5.39886H100.406V18.8092H98.8311V18.829L91.7582 9.77935V18.8124H89.2205V5.41859H91.2774L97.8694 13.7248V5.39886Z" fill="#0364A8"/>
<path d="M114.59 17.1257C113.205 18.4838 111.418 19.1151 109.479 19.1151C104.482 19.1151 102.368 15.6888 102.348 12.2085C102.33 8.70741 104.617 5.1482 109.479 5.1482C110.397 5.14754 111.306 5.32826 112.153 5.67991C113.001 6.03155 113.77 6.54711 114.415 7.19671L112.724 8.82265C111.84 7.96192 110.648 7.56011 109.476 7.56011C106.227 7.56011 104.825 9.96995 104.844 12.2085C104.863 14.4283 106.151 16.7426 109.476 16.7426C110.648 16.7426 111.979 16.265 112.858 15.3846L114.59 17.1257Z" fill="#0364A8"/>
<path d="M118.891 13.4288H126.231V10.9235H118.869L116.202 13.4932V18.8881H126.466V16.3817H118.891V13.4288Z" fill="#0364A8"/>
<path d="M81.8406 5.41663H79.0735L73.0385 18.8083H75.7869L80.4576 8.22932L85.1085 18.8083H87.8757L81.8406 5.41663Z" fill="#0364A8"/>
<path d="M79.4211 23.8911C79.4211 24.5981 79.079 25.2803 78.2227 25.6562C79.3022 25.9832 79.6976 27.1232 79.6976 27.7005C79.6976 29.7449 78.157 30.4 76.2482 30.4H71.8779V21.231H76.2482C78.0652 21.231 79.4211 22.0429 79.4211 23.8911ZM73.5885 24.9127H76.2482C77.3413 24.9127 77.696 24.4549 77.696 23.9305C77.696 23.5152 77.3538 22.803 76.2482 22.803H73.5885V24.9127ZM73.5885 28.7917H76.2482C76.9596 28.7917 77.9734 28.5561 77.9734 27.6912C77.9734 26.8657 76.9596 26.4328 76.2482 26.4328H73.5885V28.7917Z" fill="#0364A8"/>
<path d="M89.0971 30.4019H87.0298L84.344 27.3349H82.6752V30.4019H80.9343V21.2173C82.3946 21.2173 83.8548 21.2308 85.3151 21.2308C87.4877 21.2433 88.633 22.6844 88.633 24.2709C88.633 25.5283 88.0541 26.8002 86.3028 27.1542L89.094 30.2857L89.0971 30.4019ZM82.672 22.8402V25.7754H85.3151C86.4217 25.7754 86.8953 25.0424 86.8953 24.3083C86.8953 23.5742 86.4082 22.8402 85.3151 22.8402H82.672Z" fill="#0364A8"/>
<path d="M98.8647 25.87C98.8386 28.2414 97.3773 30.6097 94.1387 30.6097C90.9 30.6097 89.3991 28.2902 89.3991 25.8783C89.3991 23.4664 90.9522 21.043 94.1387 21.043C97.3251 21.043 98.8907 23.4716 98.8647 25.87ZM91.1107 25.9094C91.1493 27.416 91.966 29.0243 94.1355 29.0243C96.3051 29.0243 97.1238 27.3983 97.1499 25.8918C97.176 24.3458 96.3071 22.615 94.1355 22.615C91.9639 22.615 91.0711 24.3624 91.1107 25.9094Z" fill="#0364A8"/>
<path d="M78.1035 18.8088L80.6213 12.9062L82.9546 18.8088H78.1035Z" fill="#0364A8"/>
<path d="M68.8455 25.5139H44.1912V26.358H68.8455V25.5139Z" fill="#0364A8"/>
<path d="M126.552 25.5139H101.928V26.358H126.552V25.5139Z" fill="#0364A8"/>
<path d="M26.1854 5.32279C26.9387 5.93185 27.3433 6.09097 27.4458 6.07574C27.6898 5.58926 27.4619 5.36162 27.2569 5.18195C27.0519 5.00228 26.5953 4.69546 26.3391 4.39017C26.0829 4.08488 25.9773 3.30833 25.9773 3.30833C25.7724 2.2577 24.733 1.60676 24.733 1.60676C25.5123 1.07384 26.1976 1.53596 26.3942 1.70878C26.6542 2.10086 27.0902 1.88922 27.0902 1.88922C27.0902 1.13626 26.2183 0.87513 25.7984 0.747227C23.8244 0.151109 22.7559 2.05138 22.7559 2.05138C22.1655 2.86676 21.0833 3.40273 21.0833 3.40273C21.0833 3.40273 20.834 4.17624 21.3892 3.9014C21.8695 3.64255 22.886 2.99238 22.9953 2.92919C23.1047 2.866 24.3108 2.66272 24.1999 3.36847C24.0347 3.98743 23.2707 6.5904 23.507 7.58621C23.507 7.58621 24.0982 8.10392 24.2871 7.13932C24.3972 6.1435 24.6649 4.53634 25.1689 4.06585C25.1697 4.07041 25.894 5.08983 26.1854 5.32279Z" fill="#0364A8"/>
<path d="M29.0157 21.6576C29.0157 21.6576 18.358 30.1456 8.14999 31.2122C8.14999 31.2122 15.8265 38.9267 26.9997 33.2396C28.1331 32.4874 36.5759 28.39 35.2321 16.473L33.2582 18.2293C33.2582 18.2293 33.636 25.599 28.3121 29.7383C26.9255 30.8042 22.7985 33.8776 17.506 33.0622C17.0655 32.9054 15.4272 31.902 17.3492 30.5499C18.3251 30.0832 25.1197 26.09 29.0157 21.6576Z" fill="#0364A8"/>
<path d="M2.38526 17.0373C2.38526 17.0373 -1.55278 29.1424 13.9156 24.9711C17.0346 24.0301 19.9011 23.0891 23.4927 20.9566C26.3592 19.2634 31.9355 15.7796 35.306 11.1728L33.7313 10.5143L38.932 8.38257L38.2077 13.5596L37.1959 12.2075C37.1959 12.2075 32.9221 19.5664 22.0433 25.2117C22.0433 25.2117 15.2074 29.048 9.44222 29.5512C7.61507 29.6449 4.18105 30.3666 2.00744 27.7948C1.28239 26.7267 -0.544754 24.0613 2.38526 17.0373Z" fill="#0364A8"/>
<path d="M18.5884 4.11802C19.0062 4.11802 19.3448 3.78092 19.3448 3.36507C19.3448 2.94923 19.0062 2.61212 18.5884 2.61212C18.1707 2.61212 17.832 2.94923 17.832 3.36507C17.832 3.78092 18.1707 4.11802 18.5884 4.11802Z" fill="#0364A8"/>
<path d="M22.3054 1.93284C22.7231 1.93284 23.0618 1.59574 23.0618 1.17989C23.0618 0.764049 22.7231 0.426941 22.3054 0.426941C21.8876 0.426941 21.549 0.764049 21.549 1.17989C21.549 1.59574 21.8876 1.93284 22.3054 1.93284Z" fill="#0364A8"/>
<path d="M25.165 4.99548C25.165 4.99548 24.8185 5.76366 24.8338 6.18696C24.8338 6.18696 29.8273 8.30344 31.7806 12.7724L33.324 11.0975C33.324 11.0975 30.2525 6.44048 27.9703 5.56267C27.9703 5.56267 27.9803 6.78536 27.1933 6.38871C26.6847 6.12377 25.165 4.99548 25.165 4.99548Z" fill="#0364A8"/>
<path d="M19.5232 2.8313C19.5232 2.8313 19.7526 3.28809 19.6173 3.54238C19.6173 3.54238 20.5259 3.43275 21.2295 2.98813C20.6781 2.81706 20.0967 2.76362 19.5232 2.8313Z" fill="#0364A8"/>
<path d="M17.5799 2.92615C17.5799 2.92615 17.1493 3.86715 17.8423 4.15949C17.8423 4.15949 16.4144 5.11115 16.3509 5.11115C16.2874 5.11115 8.90538 6.59497 6.22776 12.8356C5.84994 13.5565 1.25033 22.3377 9.78798 22.212V14.059H13.5157V22.0347L15.9937 21.6372V10.2638H19.7115V20.4656L21.8759 19.6723V7.37838H25.5302V17.7697C25.5302 17.7697 31.2013 14.5287 33.6793 11.8946C33.6793 11.8946 28.5963 18.7625 18.7363 22.3689C18.7363 22.3689 13.2235 24.3757 7.39487 24.2189C6.07173 24.0621 2.8901 24.2501 2.66983 19.6403C2.66983 17.3517 3.04765 10.3582 9.88358 5.56033C11.3627 4.74495 12.6124 3.53216 17.5799 2.92615Z" fill="#0364A8"/>
<path d="M20.0739 4.84625C20.0739 4.84625 21.8697 4.41457 23.1332 3.3175H23.7787C23.7787 3.3175 23.3695 5.45759 23.3619 5.60148C23.3588 5.59844 20.8777 5.19113 20.0739 4.84625Z" fill="#0364A8"/>
<path d="M17.916 7.33906C17.916 7.33906 17.7187 9.62304 16.3956 10.7262C16.3956 10.7262 15.5612 10.3813 16.443 9.25989C16.7652 8.73761 16.9445 8.14049 16.9631 7.52787C16.9791 7.22943 17.5535 5.74789 17.5933 5.45021C17.5933 5.45021 16.9233 5.45021 16.3176 7.02616C16.3176 7.02616 15.5374 6.98657 16.0652 6.06156C16.3642 5.54386 17.0181 4.43841 20.8613 3.61542C20.8613 3.61542 21.2713 3.9839 20.8537 4.16433C20.4759 4.3166 18.9241 4.55642 18.7275 6.25722V6.4643C18.7275 6.4643 18.7589 6.66072 19.5306 6.66833C19.7432 6.70716 20.1371 6.76198 20.287 7.66415C20.4598 8.33792 20.6648 8.78482 20.3634 9.1297C20.1829 9.18451 19.8044 9.39616 19.4342 7.43651L17.916 7.33906Z" fill="#0364A8"/>
</svg>
