<svg width="46" height="46" viewBox="0 0 46 46" fill="none" xmlns="http://www.w3.org/2000/svg">
<path opacity="0.4" d="M35.4008 32.2582L36.1483 38.3148C36.34 39.9056 34.6341 41.0173 33.2733 40.1931L25.2425 35.4206C24.3608 35.4206 23.4983 35.3632 22.655 35.2482C24.0733 33.5807 24.9166 31.4723 24.9166 29.1914C24.9166 23.7481 20.2016 19.3399 14.375 19.3399C12.1516 19.3399 10.1008 19.9723 8.39498 21.084C8.33748 20.6048 8.3183 20.1256 8.3183 19.6273C8.3183 10.9065 15.8891 3.83398 25.2425 3.83398C34.5958 3.83398 42.1666 10.9065 42.1666 19.6273C42.1666 24.8023 39.5025 29.3832 35.4008 32.2582Z" fill="white"/>
<path d="M24.9166 29.1914C24.9166 31.4723 24.0733 33.5807 22.655 35.2482C20.7575 37.5482 17.7483 39.0239 14.375 39.0239L9.37248 41.9947C8.52915 42.5122 7.45581 41.8031 7.57081 40.8256L8.04997 37.0498C5.48164 35.2673 3.83331 32.4114 3.83331 29.1914C3.83331 25.8181 5.63499 22.8473 8.39499 21.084C10.1008 19.9723 12.1516 19.3398 14.375 19.3398C20.2016 19.3398 24.9166 23.7481 24.9166 29.1914Z" fill="white"/>
</svg>
