<svg width="41" height="40" viewBox="0 0 41 40" fill="none" xmlns="http://www.w3.org/2000/svg">
<path d="M31.3 20.4167C31.7667 20.4167 32.1667 20.0167 32.1333 19.55C31.6833 13.5167 26.65 8.75 20.5 8.75C14.35 8.75 9.31672 13.5 8.86672 19.55C8.83339 20.0167 9.23339 20.4167 9.70005 20.4167H31.3Z" fill="white"/>
<path d="M37.1667 21.6667H37.0333C36.1166 21.6667 35.3666 20.9167 35.3666 20C35.3666 19.0834 36.1166 18.3334 37.0333 18.3334C37.95 18.3334 38.7667 19.0834 38.7667 20C38.7667 20.9167 38.0833 21.6667 37.1667 21.6667ZM3.96668 21.6667H3.83332C2.91666 21.6667 2.16666 20.9167 2.16666 20C2.16666 19.0834 2.91666 18.3334 3.83332 18.3334C4.74999 18.3334 5.56662 19.0834 5.56662 20C5.56662 20.9167 4.88335 21.6667 3.96668 21.6667ZM32.1833 9.98336C31.75 9.98336 31.3333 9.81668 31 9.50002C30.35 8.85002 30.35 7.80001 31 7.15001L31.2166 6.93336C31.8666 6.28336 32.9167 6.28336 33.5667 6.93336C34.2167 7.58336 34.2167 8.63337 33.5667 9.28337L33.35 9.50002C33.0334 9.81668 32.6167 9.98336 32.1833 9.98336ZM8.81664 9.98336C8.38331 9.98336 7.96671 9.81668 7.63337 9.50002L7.4167 9.28337C6.7667 8.63337 6.7667 7.58336 7.4167 6.93336C8.0667 6.28336 9.11665 6.28336 9.76665 6.93336L9.98333 7.15001C10.6333 7.80001 10.6333 8.85002 9.98333 9.50002C9.66666 9.81668 9.23331 9.98336 8.81664 9.98336ZM20.5 5.06668C19.5833 5.06668 18.8333 4.38336 18.8333 3.46669V3.33335C18.8333 2.41669 19.5833 1.66669 20.5 1.66669C21.4167 1.66669 22.1667 2.41669 22.1667 3.33335C22.1667 4.25002 21.4167 5.06668 20.5 5.06668Z" fill="white"/>
<path opacity="0.4" d="M33.8333 26.25H7.16666C6.48332 26.25 5.91666 25.6833 5.91666 25C5.91666 24.3167 6.48332 23.75 7.16666 23.75H33.8333C34.5167 23.75 35.0833 24.3167 35.0833 25C35.0833 25.6833 34.5167 26.25 33.8333 26.25Z" fill="white"/>
<path opacity="0.4" d="M30.5 31.25H10.5C9.81667 31.25 9.25 30.6833 9.25 30C9.25 29.3167 9.81667 28.75 10.5 28.75H30.5C31.1833 28.75 31.75 29.3167 31.75 30C31.75 30.6833 31.1833 31.25 30.5 31.25Z" fill="white"/>
<path opacity="0.4" d="M25.5 36.25H15.5C14.8167 36.25 14.25 35.6833 14.25 35C14.25 34.3167 14.8167 33.75 15.5 33.75H25.5C26.1833 33.75 26.75 34.3167 26.75 35C26.75 35.6833 26.1833 36.25 25.5 36.25Z" fill="white"/>
</svg>
