<svg width="183" height="36" viewBox="0 0 183 36" fill="none" xmlns="http://www.w3.org/2000/svg">
<path d="M52.4958 23.2625C51.2118 23.2625 50.0538 22.9865 49.0218 22.4345C47.9898 21.8705 47.1798 21.0965 46.5918 20.1125C46.0038 19.1165 45.7098 18.0065 45.7098 16.7825C45.7098 15.5585 46.0038 14.4545 46.5918 13.4705C47.1798 12.4745 47.9898 11.7005 49.0218 11.1485C50.0538 10.5845 51.2118 10.3025 52.4958 10.3025C53.7798 10.3025 54.9378 10.5845 55.9698 11.1485C57.0018 11.7005 57.8118 12.4685 58.3998 13.4525C58.9878 14.4365 59.2818 15.5465 59.2818 16.7825C59.2818 18.0185 58.9878 19.1285 58.3998 20.1125C57.8118 21.0965 57.0018 21.8705 55.9698 22.4345C54.9378 22.9865 53.7798 23.2625 52.4958 23.2625ZM52.4958 21.2105C53.3358 21.2105 54.0918 21.0245 54.7638 20.6525C55.4358 20.2685 55.9638 19.7405 56.3478 19.0685C56.7318 18.3845 56.9238 17.6225 56.9238 16.7825C56.9238 15.9425 56.7318 15.1865 56.3478 14.5145C55.9638 13.8305 55.4358 13.3025 54.7638 12.9305C54.0918 12.5465 53.3358 12.3545 52.4958 12.3545C51.6558 12.3545 50.8998 12.5465 50.2278 12.9305C49.5558 13.3025 49.0278 13.8305 48.6438 14.5145C48.2598 15.1865 48.0678 15.9425 48.0678 16.7825C48.0678 17.6225 48.2598 18.3845 48.6438 19.0685C49.0278 19.7405 49.5558 20.2685 50.2278 20.6525C50.8998 21.0245 51.6558 21.2105 52.4958 21.2105ZM66.9462 10.4825C68.0382 10.4825 68.9862 10.6625 69.7902 11.0225C70.6062 11.3825 71.2302 11.8985 71.6622 12.5705C72.0942 13.2425 72.3102 14.0405 72.3102 14.9645C72.3102 15.8765 72.0942 16.6745 71.6622 17.3585C71.2302 18.0305 70.6062 18.5465 69.7902 18.9065C68.9862 19.2665 68.0382 19.4465 66.9462 19.4465H64.1022V23.0825H61.7622V10.4825H66.9462ZM66.8382 17.4665C67.8582 17.4665 68.6322 17.2505 69.1602 16.8185C69.6882 16.3865 69.9522 15.7685 69.9522 14.9645C69.9522 14.1605 69.6882 13.5425 69.1602 13.1105C68.6322 12.6785 67.8582 12.4625 66.8382 12.4625H64.1022V17.4665H66.8382ZM79.831 10.4825C80.923 10.4825 81.871 10.6625 82.675 11.0225C83.491 11.3825 84.115 11.8985 84.547 12.5705C84.979 13.2425 85.195 14.0405 85.195 14.9645C85.195 15.8765 84.979 16.6745 84.547 17.3585C84.115 18.0305 83.491 18.5465 82.675 18.9065C81.871 19.2665 80.923 19.4465 79.831 19.4465H76.987V23.0825H74.647V10.4825H79.831ZM79.723 17.4665C80.743 17.4665 81.517 17.2505 82.045 16.8185C82.573 16.3865 82.837 15.7685 82.837 14.9645C82.837 14.1605 82.573 13.5425 82.045 13.1105C81.517 12.6785 80.743 12.4625 79.723 12.4625H76.987V17.4665H79.723ZM93.5935 23.2625C92.3095 23.2625 91.1515 22.9865 90.1195 22.4345C89.0875 21.8705 88.2775 21.0965 87.6895 20.1125C87.1015 19.1165 86.8075 18.0065 86.8075 16.7825C86.8075 15.5585 87.1015 14.4545 87.6895 13.4705C88.2775 12.4745 89.0875 11.7005 90.1195 11.1485C91.1515 10.5845 92.3095 10.3025 93.5935 10.3025C94.8775 10.3025 96.0355 10.5845 97.0675 11.1485C98.0995 11.7005 98.9095 12.4685 99.4975 13.4525C100.086 14.4365 100.38 15.5465 100.38 16.7825C100.38 18.0185 100.086 19.1285 99.4975 20.1125C98.9095 21.0965 98.0995 21.8705 97.0675 22.4345C96.0355 22.9865 94.8775 23.2625 93.5935 23.2625ZM93.5935 21.2105C94.4335 21.2105 95.1895 21.0245 95.8615 20.6525C96.5335 20.2685 97.0615 19.7405 97.4455 19.0685C97.8295 18.3845 98.0215 17.6225 98.0215 16.7825C98.0215 15.9425 97.8295 15.1865 97.4455 14.5145C97.0615 13.8305 96.5335 13.3025 95.8615 12.9305C95.1895 12.5465 94.4335 12.3545 93.5935 12.3545C92.7535 12.3545 91.9975 12.5465 91.3255 12.9305C90.6535 13.3025 90.1255 13.8305 89.7415 14.5145C89.3575 15.1865 89.1655 15.9425 89.1655 16.7825C89.1655 17.6225 89.3575 18.3845 89.7415 19.0685C90.1255 19.7405 90.6535 20.2685 91.3255 20.6525C91.9975 21.0245 92.7535 21.2105 93.5935 21.2105ZM111.104 23.0825L108.53 19.3925C108.422 19.4045 108.26 19.4105 108.044 19.4105H105.2V23.0825H102.86V10.4825H108.044C109.136 10.4825 110.084 10.6625 110.888 11.0225C111.704 11.3825 112.328 11.8985 112.76 12.5705C113.192 13.2425 113.408 14.0405 113.408 14.9645C113.408 15.9125 113.174 16.7285 112.706 17.4125C112.25 18.0965 111.59 18.6065 110.726 18.9425L113.624 23.0825H111.104ZM111.05 14.9645C111.05 14.1605 110.786 13.5425 110.258 13.1105C109.73 12.6785 108.956 12.4625 107.936 12.4625H105.2V17.4845H107.936C108.956 17.4845 109.73 17.2685 110.258 16.8365C110.786 16.3925 111.05 15.7685 111.05 14.9645ZM118.406 12.4625H114.23V10.4825H124.922V12.4625H120.746V23.0825H118.406V12.4625ZM131.868 23.2625C130.128 23.2625 128.772 22.7765 127.8 21.8045C126.828 20.8205 126.342 19.4165 126.342 17.5925V10.4825H128.682V17.5025C128.682 19.9745 129.75 21.2105 131.886 21.2105C134.01 21.2105 135.072 19.9745 135.072 17.5025V10.4825H137.376V17.5925C137.376 19.4165 136.89 20.8205 135.918 21.8045C134.958 22.7765 133.608 23.2625 131.868 23.2625ZM151.849 10.4825V23.0825H149.923L142.975 14.5505V23.0825H140.653V10.4825H142.579L149.527 19.0145V10.4825H151.849ZM155.225 10.4825H157.565V23.0825H155.225V10.4825ZM163.313 12.4445V16.2785H169.397V18.2585H163.313V23.0825H160.973V10.4825H170.171V12.4445H163.313ZM177.87 18.6365V23.0825H175.53V18.6725L170.58 10.4825H173.082L176.772 16.6205L180.498 10.4825H182.802L177.87 18.6365Z" fill="white"/>
<path d="M26.1712 5.02635C26.9245 5.63541 27.3291 5.79452 27.4316 5.7793C27.6755 5.29281 27.4476 5.06517 27.2427 4.8855C27.0377 4.70583 26.5811 4.39901 26.3249 4.09372C26.0687 3.78843 25.9631 3.01188 25.9631 3.01188C25.7582 1.96125 24.7188 1.31032 24.7188 1.31032C25.4981 0.777388 26.1834 1.23951 26.3799 1.41233C26.64 1.80442 27.0759 1.59277 27.0759 1.59277C27.0759 0.839817 26.204 0.578682 25.7842 0.450779C23.8102 -0.145339 22.7417 1.75493 22.7417 1.75493C22.1513 2.57031 21.0691 3.10628 21.0691 3.10628C21.0691 3.10628 20.8197 3.87979 21.375 3.60495C21.8553 3.3461 22.8717 2.69593 22.9811 2.63274C23.0905 2.56955 24.2966 2.36627 24.1857 3.07202C24.0205 3.69098 23.2564 6.29395 23.4928 7.28977C23.4928 7.28977 24.084 7.80747 24.2729 6.84287C24.383 5.84705 24.6507 4.2399 25.1547 3.7694C25.1555 3.77397 25.8798 4.79338 26.1712 5.02635Z" fill="#F8F9FA"/>
<path d="M29.0015 21.3611C29.0015 21.3611 18.3438 29.8492 8.1358 30.9158C8.1358 30.9158 15.8123 38.6303 26.9855 32.9432C28.1189 32.191 36.5617 28.0935 35.218 16.1765L33.244 17.9329C33.244 17.9329 33.6218 25.3025 28.2979 29.4419C26.9113 30.5077 22.7843 33.5812 17.4918 32.7658C17.0513 32.609 15.413 31.6055 17.335 30.2534C18.3109 29.7867 25.1056 25.7936 29.0015 21.3611Z" fill="#F8F9FA"/>
<path d="M2.37104 16.7409C2.37104 16.7409 -1.567 28.8459 13.9014 24.6746C17.0203 23.7336 19.8869 22.7926 23.4784 20.6602C26.345 18.967 31.9213 15.4832 35.2918 10.8764L33.717 10.2178L38.9178 8.08612L38.1935 13.2631L37.1817 11.911C37.1817 11.911 32.9079 19.27 22.0291 24.9152C22.0291 24.9152 15.1932 28.7515 9.428 29.2548C7.60085 29.3484 4.16683 30.0702 1.99322 27.4984C1.26817 26.4303 -0.558975 23.7649 2.37104 16.7409Z" fill="#F8F9FA"/>
<path d="M18.5742 3.82158C18.992 3.82158 19.3306 3.48447 19.3306 3.06862C19.3306 2.65278 18.992 2.31567 18.5742 2.31567C18.1565 2.31567 17.8178 2.65278 17.8178 3.06862C17.8178 3.48447 18.1565 3.82158 18.5742 3.82158Z" fill="#F8F9FA"/>
<path d="M22.2911 1.6364C22.7089 1.6364 23.0475 1.29929 23.0475 0.883444C23.0475 0.467601 22.7089 0.130493 22.2911 0.130493C21.8734 0.130493 21.5347 0.467601 21.5347 0.883444C21.5347 1.29929 21.8734 1.6364 22.2911 1.6364Z" fill="#F8F9FA"/>
<path d="M25.1508 4.69904C25.1508 4.69904 24.8043 5.46721 24.8196 5.89051C24.8196 5.89051 29.8131 8.00699 31.7664 12.476L33.3098 10.8011C33.3098 10.8011 30.2383 6.14403 27.9561 5.26622C27.9561 5.26622 27.966 6.48891 27.179 6.09226C26.6704 5.82732 25.1508 4.69904 25.1508 4.69904Z" fill="#F8F9FA"/>
<path d="M19.509 2.53485C19.509 2.53485 19.7384 2.99165 19.603 3.24593C19.603 3.24593 20.5116 3.1363 21.2153 2.69168C20.6639 2.52061 20.0825 2.46717 19.509 2.53485Z" fill="#F8F9FA"/>
<path d="M17.5657 2.6297C17.5657 2.6297 17.1351 3.5707 17.828 3.86305C17.828 3.86305 16.4001 4.8147 16.3366 4.8147C16.2731 4.8147 8.89113 6.29853 6.21351 12.5391C5.83569 13.2601 1.23608 22.0412 9.77373 21.9156V13.7626H13.5014V21.7382L15.9795 21.3408V9.96735H19.6972V20.1691L21.8617 19.3758V7.08193H25.5159V17.4733C25.5159 17.4733 31.1871 14.2323 33.6651 11.5981C33.6651 11.5981 28.5821 18.466 18.7221 22.0724C18.7221 22.0724 13.2093 24.0793 7.38061 23.9225C6.05748 23.7656 2.87585 23.9537 2.65558 19.3438C2.65558 17.0553 3.0334 10.0618 9.86933 5.26389C11.3485 4.44851 12.5982 3.23571 17.5657 2.6297Z" fill="#F8F9FA"/>
<path d="M20.0597 4.5498C20.0597 4.5498 21.8555 4.11813 23.119 3.02106H23.7645C23.7645 3.02106 23.3553 5.16114 23.3476 5.30503C23.3446 5.30199 20.8635 4.89468 20.0597 4.5498Z" fill="#F8F9FA"/>
<path d="M17.9018 7.04261C17.9018 7.04261 17.7045 9.32659 16.3814 10.4298C16.3814 10.4298 15.5469 10.0849 16.4288 8.96344C16.751 8.44116 16.9303 7.84404 16.9488 7.23142C16.9649 6.93298 17.5393 5.45144 17.5791 5.15376C17.5791 5.15376 16.9091 5.15376 16.3033 6.72971C16.3033 6.72971 15.5232 6.69012 16.051 5.76511C16.35 5.24741 17.0039 4.14196 20.8471 3.31897C20.8471 3.31897 21.2571 3.68745 20.8395 3.86788C20.4616 4.02015 18.9098 4.25997 18.7133 5.96077V6.16785C18.7133 6.16785 18.7446 6.36427 19.5163 6.37188C19.729 6.41071 20.1228 6.46553 20.2727 7.3677C20.4456 8.04147 20.6506 8.48837 20.3492 8.83325C20.1687 8.88807 19.7901 9.09972 19.42 7.14006L17.9018 7.04261Z" fill="#F8F9FA"/>
</svg>
