<svg width="183" height="36" viewBox="0 0 183 36" fill="none" xmlns="http://www.w3.org/2000/svg">
<path d="M52.4958 23.7625C48.5898 23.7625 45.7098 21.0085 45.7098 17.2825C45.7098 13.5565 48.5898 10.8025 52.4958 10.8025C56.4018 10.8025 59.2818 13.5385 59.2818 17.2825C59.2818 21.0265 56.4018 23.7625 52.4958 23.7625ZM52.4958 21.7105C55.0338 21.7105 56.9238 19.8565 56.9238 17.2825C56.9238 14.7085 55.0338 12.8545 52.4958 12.8545C49.9578 12.8545 48.0678 14.7085 48.0678 17.2825C48.0678 19.8565 49.9578 21.7105 52.4958 21.7105ZM66.9462 10.9825C70.2582 10.9825 72.3102 12.6745 72.3102 15.4645C72.3102 18.2365 70.2582 19.9465 66.9462 19.9465H64.1022V23.5825H61.7622V10.9825H66.9462ZM66.8382 17.9665C68.8902 17.9665 69.9522 17.0485 69.9522 15.4645C69.9522 13.8805 68.8902 12.9625 66.8382 12.9625H64.1022V17.9665H66.8382ZM79.831 10.9825C83.143 10.9825 85.195 12.6745 85.195 15.4645C85.195 18.2365 83.143 19.9465 79.831 19.9465H76.987V23.5825H74.647V10.9825H79.831ZM79.723 17.9665C81.775 17.9665 82.837 17.0485 82.837 15.4645C82.837 13.8805 81.775 12.9625 79.723 12.9625H76.987V17.9665H79.723ZM93.5935 23.7625C89.6875 23.7625 86.8075 21.0085 86.8075 17.2825C86.8075 13.5565 89.6875 10.8025 93.5935 10.8025C97.4995 10.8025 100.38 13.5385 100.38 17.2825C100.38 21.0265 97.4995 23.7625 93.5935 23.7625ZM93.5935 21.7105C96.1315 21.7105 98.0215 19.8565 98.0215 17.2825C98.0215 14.7085 96.1315 12.8545 93.5935 12.8545C91.0555 12.8545 89.1655 14.7085 89.1655 17.2825C89.1655 19.8565 91.0555 21.7105 93.5935 21.7105ZM113.624 23.5825H111.104L108.53 19.8925C108.368 19.9105 108.206 19.9105 108.044 19.9105H105.2V23.5825H102.86V10.9825H108.044C111.356 10.9825 113.408 12.6745 113.408 15.4645C113.408 17.3725 112.436 18.7765 110.726 19.4425L113.624 23.5825ZM111.05 15.4645C111.05 13.8805 109.988 12.9625 107.936 12.9625H105.2V17.9845H107.936C109.988 17.9845 111.05 17.0485 111.05 15.4645ZM118.406 23.5825V12.9625H114.23V10.9825H124.922V12.9625H120.746V23.5825H118.406ZM131.868 23.7625C128.412 23.7625 126.342 21.7645 126.342 18.0925V10.9825H128.682V18.0025C128.682 20.5945 129.852 21.7105 131.886 21.7105C133.92 21.7105 135.072 20.5945 135.072 18.0025V10.9825H137.376V18.0925C137.376 21.7645 135.306 23.7625 131.868 23.7625ZM149.527 10.9825H151.849V23.5825H149.923L142.975 15.0505V23.5825H140.653V10.9825H142.579L149.527 19.5145V10.9825ZM155.225 23.5825V10.9825H157.565V23.5825H155.225ZM170.171 12.9445H163.313V16.7785H169.397V18.7585H163.313V23.5825H160.973V10.9825H170.171V12.9445ZM182.802 10.9825L177.87 19.1365V23.5825H175.53V19.1725L170.58 10.9825H173.082L176.772 17.1205L180.498 10.9825H182.802Z" fill="#0364A8"/>
<path d="M26.1712 5.02635C26.9245 5.63541 27.3291 5.79452 27.4316 5.7793C27.6755 5.29281 27.4476 5.06517 27.2427 4.8855C27.0377 4.70583 26.5811 4.39901 26.3249 4.09372C26.0687 3.78843 25.9631 3.01188 25.9631 3.01188C25.7582 1.96125 24.7188 1.31032 24.7188 1.31032C25.4981 0.777388 26.1834 1.23951 26.3799 1.41233C26.64 1.80442 27.0759 1.59277 27.0759 1.59277C27.0759 0.839817 26.204 0.578682 25.7842 0.450779C23.8102 -0.145339 22.7417 1.75493 22.7417 1.75493C22.1513 2.57031 21.0691 3.10628 21.0691 3.10628C21.0691 3.10628 20.8197 3.87979 21.375 3.60495C21.8553 3.3461 22.8717 2.69593 22.9811 2.63274C23.0905 2.56955 24.2966 2.36627 24.1857 3.07202C24.0205 3.69098 23.2564 6.29395 23.4928 7.28977C23.4928 7.28977 24.084 7.80747 24.2729 6.84287C24.383 5.84705 24.6507 4.2399 25.1547 3.7694C25.1555 3.77397 25.8798 4.79338 26.1712 5.02635Z" fill="#0364A8"/>
<path d="M29.0015 21.3611C29.0015 21.3611 18.3438 29.8492 8.1358 30.9158C8.1358 30.9158 15.8123 38.6303 26.9855 32.9432C28.1189 32.191 36.5617 28.0935 35.218 16.1765L33.244 17.9329C33.244 17.9329 33.6218 25.3025 28.2979 29.4419C26.9113 30.5077 22.7843 33.5812 17.4918 32.7658C17.0513 32.609 15.413 31.6055 17.335 30.2534C18.3109 29.7867 25.1056 25.7936 29.0015 21.3611Z" fill="#0364A8"/>
<path d="M2.37104 16.7409C2.37104 16.7409 -1.567 28.8459 13.9014 24.6746C17.0203 23.7336 19.8869 22.7926 23.4784 20.6602C26.345 18.967 31.9213 15.4832 35.2918 10.8764L33.717 10.2178L38.9178 8.08612L38.1935 13.2631L37.1817 11.911C37.1817 11.911 32.9079 19.27 22.0291 24.9152C22.0291 24.9152 15.1932 28.7515 9.428 29.2548C7.60085 29.3484 4.16683 30.0702 1.99322 27.4984C1.26817 26.4303 -0.558975 23.7649 2.37104 16.7409Z" fill="#0364A8"/>
<path d="M18.5742 3.82158C18.992 3.82158 19.3306 3.48447 19.3306 3.06862C19.3306 2.65278 18.992 2.31567 18.5742 2.31567C18.1565 2.31567 17.8178 2.65278 17.8178 3.06862C17.8178 3.48447 18.1565 3.82158 18.5742 3.82158Z" fill="#0364A8"/>
<path d="M22.2911 1.6364C22.7089 1.6364 23.0475 1.29929 23.0475 0.883444C23.0475 0.467601 22.7089 0.130493 22.2911 0.130493C21.8734 0.130493 21.5347 0.467601 21.5347 0.883444C21.5347 1.29929 21.8734 1.6364 22.2911 1.6364Z" fill="#0364A8"/>
<path d="M25.1508 4.69904C25.1508 4.69904 24.8043 5.46721 24.8196 5.89051C24.8196 5.89051 29.8131 8.00699 31.7664 12.476L33.3098 10.8011C33.3098 10.8011 30.2383 6.14403 27.9561 5.26622C27.9561 5.26622 27.966 6.48891 27.179 6.09226C26.6704 5.82732 25.1508 4.69904 25.1508 4.69904Z" fill="#0364A8"/>
<path d="M19.509 2.53485C19.509 2.53485 19.7384 2.99165 19.603 3.24593C19.603 3.24593 20.5116 3.1363 21.2153 2.69168C20.6639 2.52061 20.0825 2.46717 19.509 2.53485Z" fill="#0364A8"/>
<path d="M17.5657 2.6297C17.5657 2.6297 17.1351 3.5707 17.828 3.86305C17.828 3.86305 16.4001 4.8147 16.3366 4.8147C16.2731 4.8147 8.89113 6.29853 6.21351 12.5391C5.83569 13.2601 1.23608 22.0412 9.77373 21.9156V13.7626H13.5014V21.7382L15.9795 21.3408V9.96735H19.6972V20.1691L21.8617 19.3758V7.08193H25.5159V17.4733C25.5159 17.4733 31.1871 14.2323 33.6651 11.5981C33.6651 11.5981 28.5821 18.466 18.7221 22.0724C18.7221 22.0724 13.2093 24.0793 7.38061 23.9225C6.05748 23.7656 2.87585 23.9537 2.65558 19.3438C2.65558 17.0553 3.0334 10.0618 9.86933 5.26389C11.3485 4.44851 12.5982 3.23571 17.5657 2.6297Z" fill="#0364A8"/>
<path d="M20.0597 4.5498C20.0597 4.5498 21.8555 4.11813 23.119 3.02106H23.7645C23.7645 3.02106 23.3553 5.16114 23.3476 5.30503C23.3446 5.30199 20.8635 4.89468 20.0597 4.5498Z" fill="#0364A8"/>
<path d="M17.9018 7.04261C17.9018 7.04261 17.7045 9.32659 16.3814 10.4298C16.3814 10.4298 15.5469 10.0849 16.4288 8.96344C16.751 8.44116 16.9303 7.84404 16.9488 7.23142C16.9649 6.93298 17.5393 5.45144 17.5791 5.15376C17.5791 5.15376 16.9091 5.15376 16.3033 6.72971C16.3033 6.72971 15.5232 6.69012 16.051 5.76511C16.35 5.24741 17.0039 4.14196 20.8471 3.31897C20.8471 3.31897 21.2571 3.68745 20.8395 3.86788C20.4616 4.02015 18.9098 4.25997 18.7133 5.96077V6.16785C18.7133 6.16785 18.7446 6.36427 19.5163 6.37188C19.729 6.41071 20.1228 6.46553 20.2727 7.3677C20.4456 8.04147 20.6506 8.48837 20.3492 8.83325C20.1687 8.88807 19.7901 9.09972 19.42 7.14006L17.9018 7.04261Z" fill="#0364A8"/>
</svg>
