<svg width="40" height="40" viewBox="0 0 40 40" fill="none" xmlns="http://www.w3.org/2000/svg">
<path opacity="0.4" d="M32.0167 10.6C30.2834 7.09999 26.9334 4.51665 23.05 3.66665C18.9834 2.76665 14.8167 3.73332 11.6334 6.29999C8.43337 8.84999 6.6167 12.6667 6.6167 16.75C6.6167 21.0667 9.20003 25.5833 13.1 28.2V29.5833C13.0834 30.05 13.0667 30.7667 13.6334 31.35C14.2167 31.95 15.0834 32.0167 15.7667 32.0167H24.3167C25.2167 32.0167 25.9 31.7667 26.3667 31.3C27 30.65 26.9834 29.8167 26.9667 29.3667V28.2C32.1334 24.7167 35.3834 17.3667 32.0167 10.6Z" fill="currentColor"/>
<path d="M25.4333 36.6667C25.3333 36.6667 25.2166 36.65 25.1166 36.6167C21.7666 35.6667 18.25 35.6667 14.9 36.6167C14.2833 36.7833 13.6333 36.4333 13.4666 35.8167C13.2833 35.2 13.65 34.55 14.2666 34.3833C18.0333 33.3167 22 33.3167 25.7666 34.3833C26.3833 34.5667 26.75 35.2 26.5666 35.8167C26.4 36.3333 25.9333 36.6667 25.4333 36.6667Z" fill="currentColor"/>
<path d="M20 23.0833C19.7833 23.0833 19.5666 23.0333 19.3833 22.9167C18.7833 22.5667 18.5833 21.8 18.9166 21.2167L20.3333 18.75H18.9333C18.1 18.75 17.4166 18.3833 17.05 17.7667C16.6833 17.1333 16.7166 16.3667 17.1333 15.6333L18.9166 12.5333C19.2666 11.9333 20.0333 11.7333 20.6166 12.0667C21.2166 12.4167 21.4166 13.1833 21.0833 13.7667L19.6666 16.25H21.0666C21.9 16.25 22.5833 16.6167 22.95 17.2333C23.3166 17.8667 23.2833 18.6333 22.8666 19.3667L21.0833 22.4667C20.85 22.8667 20.4333 23.0833 20 23.0833Z" fill="white"/>
</svg>
