<svg width="41" height="40" viewBox="0 0 41 40" fill="none" xmlns="http://www.w3.org/2000/svg">
<path d="M34.6667 27.9167H30.9167V24.1667C30.9167 23.4834 30.35 22.9167 29.6667 22.9167C28.9833 22.9167 28.4167 23.4834 28.4167 24.1667V27.9167H24.6667C23.9833 27.9167 23.4167 28.4834 23.4167 29.1667C23.4167 29.85 23.9833 30.4167 24.6667 30.4167H28.4167V34.1667C28.4167 34.85 28.9833 35.4167 29.6667 35.4167C30.35 35.4167 30.9167 34.85 30.9167 34.1667V30.4167H34.6667C35.35 30.4167 35.9167 29.85 35.9167 29.1667C35.9167 28.4834 35.35 27.9167 34.6667 27.9167Z" fill="white"/>
<path opacity="0.4" d="M37.1667 14.2V6.63331C37.1667 4.28331 36.1 3.33331 33.45 3.33331H26.7167C24.0667 3.33331 23 4.28331 23 6.63331V14.1833C23 16.55 24.0667 17.4833 26.7167 17.4833H33.45C36.1 17.5 37.1667 16.55 37.1667 14.2Z" fill="white"/>
<path d="M18 14.2V6.63331C18 4.28331 16.9333 3.33331 14.2833 3.33331H7.55C4.9 3.33331 3.83334 4.28331 3.83334 6.63331V14.1833C3.83334 16.55 4.9 17.4833 7.55 17.4833H14.2833C16.9333 17.5 18 16.55 18 14.2Z" fill="white"/>
<path opacity="0.4" d="M18 32.95V26.2167C18 23.5667 16.9333 22.5 14.2833 22.5H7.55C4.9 22.5 3.83334 23.5667 3.83334 26.2167V32.95C3.83334 35.6 4.9 36.6667 7.55 36.6667H14.2833C16.9333 36.6667 18 35.6 18 32.95Z" fill="white"/>
</svg>
