<svg width="34" height="34" viewBox="0 0 34 34" fill="none" xmlns="http://www.w3.org/2000/svg">
<path opacity="0.3" d="M28.3334 21.25H5.66671C4.10837 21.25 2.83337 19.975 2.83337 18.4167V9.91667C2.83337 9.06667 3.40004 8.5 4.25004 8.5H29.75C30.6 8.5 31.1667 9.06667 31.1667 9.91667V18.4167C31.1667 19.975 29.8917 21.25 28.3334 21.25ZM18.4167 17H15.5834C14.875 17 14.1667 17.5667 14.1667 18.4167V22.6667C14.1667 23.375 14.7334 24.0833 15.5834 24.0833H18.4167C19.2667 24.0833 19.8334 23.5167 19.8334 22.6667V18.4167C19.8334 17.5667 19.2667 17 18.4167 17Z" fill="currentColor"/>
<path d="M19.8333 8.5V7.08333H14.1667V8.5H11.3333V7.08333C11.3333 5.525 12.6083 4.25 14.1667 4.25H19.8333C21.3917 4.25 22.6667 5.525 22.6667 7.08333V8.5H19.8333ZM28.3333 21.25H19.8333V22.6667C19.8333 23.5167 19.125 24.0833 18.4167 24.0833H15.5833C14.875 24.0833 14.1667 23.5167 14.1667 22.6667V21.25H5.66667C5.1 21.25 4.675 21.1083 4.25 20.825V25.5C4.25 27.0583 5.525 28.3333 7.08333 28.3333H26.9167C28.475 28.3333 29.75 27.0583 29.75 25.5V20.825C29.325 21.1083 28.9 21.25 28.3333 21.25Z" fill="currentColor"/>
</svg>
