<svg width="370" height="39" viewBox="0 0 " fill="none" xmlns="http://www.w3.org/2000/svg">
<path d="M1 18C0.447715 18 4.82823e-08 18.4477 0 19C-4.82823e-08 19.5523 0.447715 20 1 20L1 18ZM1 20L370 20L370 18L1 18L1 20Z" fill="#EDEDED"/>
<path fill-rule="evenodd" clip-rule="evenodd" d="M91 1C91 0.447715 91.4477 0 92 0H278C278.552 0 279 0.447715 279 1V5H274C270.686 5 268 7.68629 268 11C268 14.3137 270.686 17 274 17H279V20V22H274C270.686 22 268 24.6863 268 28C268 31.3137 270.686 34 274 34H279V38C279 38.5523 278.552 39 278 39H92C91.4477 39 91 38.5523 91 38V34H97C100.314 34 103 31.3137 103 28C103 24.6863 100.314 22 97 22H91V20V17H97C100.314 17 103 14.3137 103 11C103 7.68629 100.314 5 97 5H91V1Z" fill="#0F75BD"/>
</svg>
