<svg width="40" height="40" viewBox="0 0 40 40" fill="none" xmlns="http://www.w3.org/2000/svg">
<path d="M34.35 18.05C33.0667 16.5167 31.4167 15.5167 29.5 15.0833C29.0667 13.15 28.3167 11.4833 27.2167 10.1C27.1833 10.05 27.15 10 27.1167 9.96666C23.45 5.53333 17.45 5.55 13.4 7.85C9.93334 9.83333 6.98334 14.0167 8.53334 19.9833C4.98334 20.85 3.35001 23.95 3.35001 26.75C3.35001 29.8833 5.40001 33.4 9.96667 33.7333H27.2C27.2167 33.7333 27.25 33.7333 27.2667 33.7333C29.6333 33.7333 31.9 32.85 33.65 31.25C37.8333 27.55 37.2833 21.5167 34.35 18.05Z" fill="white"/>
<path opacity="0.4" d="M36.2667 14.5666C36.2667 16.0666 35.7333 17.5 34.7667 18.6C34.65 18.4166 34.5 18.2333 34.35 18.05C33.0833 16.5333 31.4167 15.5 29.5 15.0833C29.0833 13.15 28.3167 11.5 27.2167 10.1166C27.2 10.0666 27.15 10.0166 27.1167 9.98331C26.95 9.78331 26.7667 9.59998 26.6 9.41664C27.6167 8.71664 28.7833 8.34998 30.05 8.34998C33.4833 8.34998 36.2667 11.1333 36.2667 14.5666Z" fill="white"/>
</svg>
