<svg width="40" height="40" viewBox="0 0 40 40" fill="none" xmlns="http://www.w3.org/2000/svg">
<path d="M20 31.6666C26.4433 31.6666 31.6666 26.4433 31.6666 20C31.6666 13.5567 26.4433 8.33331 20 8.33331C13.5567 8.33331 8.33331 13.5567 8.33331 20C8.33331 26.4433 13.5567 31.6666 20 31.6666Z" fill="white"/>
<path opacity="0.4" d="M20 38.2667C19.0834 38.2667 18.3334 37.5834 18.3334 36.6667V36.5334C18.3334 35.6167 19.0834 34.8667 20 34.8667C20.9167 34.8667 21.6667 35.6167 21.6667 36.5334C21.6667 37.45 20.9167 38.2667 20 38.2667ZM31.9 33.5667C31.4667 33.5667 31.05 33.4 30.7167 33.0834L30.5 32.8667C29.85 32.2167 29.85 31.1667 30.5 30.5167C31.15 29.8667 32.2 29.8667 32.85 30.5167L33.0667 30.7334C33.7167 31.3834 33.7167 32.4334 33.0667 33.0834C32.75 33.4 32.3334 33.5667 31.9 33.5667ZM8.10002 33.5667C7.66669 33.5667 7.25002 33.4 6.91669 33.0834C6.26669 32.4334 6.26669 31.3834 6.91669 30.7334L7.13335 30.5167C7.78335 29.8667 8.83335 29.8667 9.48335 30.5167C10.1334 31.1667 10.1334 32.2167 9.48335 32.8667L9.26669 33.0834C8.95002 33.4 8.51669 33.5667 8.10002 33.5667ZM36.6667 21.6667H36.5334C35.6167 21.6667 34.8667 20.9167 34.8667 20C34.8667 19.0834 35.6167 18.3334 36.5334 18.3334C37.45 18.3334 38.2667 19.0834 38.2667 20C38.2667 20.9167 37.5834 21.6667 36.6667 21.6667ZM3.46669 21.6667H3.33335C2.41669 21.6667 1.66669 20.9167 1.66669 20C1.66669 19.0834 2.41669 18.3334 3.33335 18.3334C4.25002 18.3334 5.06669 19.0834 5.06669 20C5.06669 20.9167 4.38335 21.6667 3.46669 21.6667ZM31.6834 9.98335C31.25 9.98335 30.8334 9.81669 30.5 9.50002C29.85 8.85002 29.85 7.80002 30.5 7.15002L30.7167 6.93335C31.3667 6.28335 32.4167 6.28335 33.0667 6.93335C33.7167 7.58335 33.7167 8.63335 33.0667 9.28335L32.85 9.50002C32.5334 9.81669 32.1167 9.98335 31.6834 9.98335ZM8.31669 9.98335C7.88335 9.98335 7.46669 9.81669 7.13335 9.50002L6.91669 9.26669C6.26669 8.61669 6.26669 7.56669 6.91669 6.91669C7.56669 6.26669 8.61669 6.26669 9.26669 6.91669L9.48335 7.13335C10.1334 7.78335 10.1334 8.83335 9.48335 9.48335C9.16669 9.81669 8.73335 9.98335 8.31669 9.98335ZM20 5.06669C19.0834 5.06669 18.3334 4.38335 18.3334 3.46669V3.33335C18.3334 2.41669 19.0834 1.66669 20 1.66669C20.9167 1.66669 21.6667 2.41669 21.6667 3.33335C21.6667 4.25002 20.9167 5.06669 20 5.06669Z" fill="white"/>
</svg>
