<svg width="24" height="25" viewBox="0 0 24 25" fill="none" xmlns="http://www.w3.org/2000/svg">
<path d="M21.0702 6.0436C19.4602 5.8836 17.8502 5.7636 16.2302 5.6736V5.6636L16.0102 4.3636C15.8602 3.4436 15.6402 2.0636 13.3002 2.0636H10.6802C8.35016 2.0636 8.13016 3.3836 7.97016 4.3536L7.76016 5.6336C6.83016 5.6936 5.90016 5.7536 4.97016 5.8436L2.93016 6.0436C2.51016 6.0836 2.21016 6.4536 2.25016 6.8636C2.29016 7.2736 2.65016 7.5736 3.07016 7.5336L5.11016 7.3336C10.3502 6.8136 15.6302 7.0136 20.9302 7.5436C20.9602 7.5436 20.9802 7.5436 21.0102 7.5436C21.3902 7.5436 21.7202 7.2536 21.7602 6.8636C21.7902 6.4536 21.4902 6.0836 21.0702 6.0436Z" fill="currentColor"/>
<path d="M19.2302 8.9536C18.9902 8.7036 18.6602 8.5636 18.3202 8.5636H5.68024C5.34024 8.5636 5.00024 8.7036 4.77024 8.9536C4.54024 9.2036 4.41024 9.5436 4.43024 9.8936L5.05024 20.1536C5.16024 21.6736 5.30024 23.5736 8.79024 23.5736H15.2102C18.7002 23.5736 18.8402 21.6836 18.9502 20.1536L19.5702 9.9036C19.5902 9.5436 19.4602 9.2036 19.2302 8.9536Z" fill="#DBDFE6"/>
<path fill-rule="evenodd" clip-rule="evenodd" d="M9.58008 17.8136C9.58008 17.3994 9.91586 17.0636 10.3301 17.0636H13.6601C14.0743 17.0636 14.4101 17.3994 14.4101 17.8136C14.4101 18.2278 14.0743 18.5636 13.6601 18.5636H10.3301C9.91586 18.5636 9.58008 18.2278 9.58008 17.8136Z" fill="currentColor"/>
<path fill-rule="evenodd" clip-rule="evenodd" d="M8.75 13.8136C8.75 13.3994 9.08579 13.0636 9.5 13.0636H14.5C14.9142 13.0636 15.25 13.3994 15.25 13.8136C15.25 14.2278 14.9142 14.5636 14.5 14.5636H9.5C9.08579 14.5636 8.75 14.2278 8.75 13.8136Z" fill="currentColor"/>
</svg>
