<svg width="46" height="46" viewBox="0 0 46 46" fill="none" xmlns="http://www.w3.org/2000/svg">
<path opacity="0.4" d="M20.6041 4.69578C21.9266 3.56495 24.0925 3.56495 25.4341 4.69578L28.4625 7.30245C29.0375 7.80078 30.1108 8.20328 30.8775 8.20328H34.1358C36.1675 8.20328 37.835 9.87078 37.835 11.9024V15.1608C37.835 15.9083 38.2375 17.0008 38.7358 17.5758L41.3425 20.6041C42.4733 21.9266 42.4733 24.0924 41.3425 25.4341L38.7358 28.4624C38.2375 29.0374 37.835 30.1108 37.835 30.8774V34.1358C37.835 36.1674 36.1675 37.8349 34.1358 37.8349H30.8775C30.13 37.8349 29.0375 38.2374 28.4625 38.7358L25.4341 41.3424C24.1116 42.4733 21.9458 42.4733 20.6041 41.3424L17.5758 38.7358C17.0008 38.2374 15.9275 37.8349 15.1608 37.8349H11.845C9.81331 37.8349 8.14581 36.1674 8.14581 34.1358V30.8583C8.14581 30.1108 7.74331 29.0374 7.26415 28.4624L4.67665 25.4149C3.56498 24.0924 3.56498 21.9458 4.67665 20.6233L7.26415 17.5758C7.74331 17.0008 8.14581 15.9274 8.14581 15.1799V11.8833C8.14581 9.85161 9.81331 8.18411 11.845 8.18411H15.1608C15.9083 8.18411 17.0008 7.78161 17.5758 7.28328L20.6041 4.69578Z" fill="white"/>
<path d="M20.6808 29.075C20.2974 29.075 19.9333 28.9216 19.6649 28.6533L15.0266 24.015C14.4708 23.4591 14.4708 22.5391 15.0266 21.9833C15.5824 21.4275 16.5024 21.4275 17.0583 21.9833L20.6808 25.6058L28.9225 17.3641C29.4783 16.8083 30.3983 16.8083 30.9541 17.3641C31.5099 17.92 31.5099 18.84 30.9541 19.3958L21.6966 28.6533C21.4283 28.9216 21.0641 29.075 20.6808 29.075Z" fill="white"/>
</svg>
