<svg width="46" height="46" viewBox="0 0 46 46" fill="none" xmlns="http://www.w3.org/2000/svg">
<path opacity="0.4" d="M24.9167 6.22852H13.4167C6.86167 6.22852 4.3125 8.77768 4.3125 15.3327V30.666C4.3125 35.0744 6.70833 39.7702 13.4167 39.7702H24.9167C31.4717 39.7702 34.0208 37.221 34.0208 30.666V15.3327C34.0208 8.77768 31.4717 6.22852 24.9167 6.22852Z" fill="white"/>
<path d="M22.0417 21.8121C24.0318 21.8121 25.645 20.1989 25.645 18.2088C25.645 16.2187 24.0318 14.6055 22.0417 14.6055C20.0516 14.6055 18.4384 16.2187 18.4384 18.2088C18.4384 20.1989 20.0516 21.8121 22.0417 21.8121Z" fill="white"/>
<path d="M41.4958 11.8262C40.71 11.4237 39.0616 10.9637 36.8191 12.5354L33.9825 14.5287C34.0016 14.7971 34.0208 15.0462 34.0208 15.3337V30.6671C34.0208 30.9546 33.9825 31.2037 33.9825 31.4721L36.8191 33.4654C38.0075 34.3087 39.0425 34.5771 39.8666 34.5771C40.5758 34.5771 41.1316 34.3854 41.4958 34.1937C42.2816 33.7912 43.6042 32.6987 43.6042 29.9579V16.0621C43.6042 13.3212 42.2816 12.2287 41.4958 11.8262Z" fill="white"/>
</svg>
