<svg width="77" height="72" viewBox="0 0 77 72" fill="none" xmlns="http://www.w3.org/2000/svg">
<path d="M46.5745 6.74225C47.535 7.51881 48.0508 7.72169 48.1815 7.70227C48.4926 7.082 48.202 6.79176 47.9406 6.56267C47.6793 6.33358 47.0971 5.94239 46.7705 5.55314C46.4438 5.16389 46.3092 4.17377 46.3092 4.17377C46.0479 2.83421 44.7226 2.00426 44.7226 2.00426C45.7163 1.32477 46.5901 1.91398 46.8407 2.13433C47.1722 2.63424 47.7281 2.36439 47.7281 2.36439C47.7281 1.40436 46.6164 1.07141 46.081 0.908334C43.5642 0.148275 42.2019 2.57115 42.2019 2.57115C41.4491 3.61077 40.0692 4.29414 40.0692 4.29414C40.0692 4.29414 39.7513 5.28037 40.4593 4.92995C41.0717 4.59991 42.3676 3.77093 42.5071 3.69036C42.6465 3.6098 44.1844 3.35062 44.043 4.25046C43.8323 5.03964 42.8582 8.35847 43.1595 9.62815C43.1595 9.62815 43.9133 10.2882 44.1541 9.05834C44.2946 7.78867 44.6359 5.73952 45.2785 5.13962C45.2795 5.14545 46.2029 6.44522 46.5745 6.74225Z" fill="#363636"/>
<path d="M0 60.5516V48.049H9.03869V50.3262H2.37255V53.7421H8.67886V55.9243H2.37255V60.5564L0 60.5516Z" fill="#363636"/>
<path d="M10.8711 60.5513V48.0293H13.2251V60.5513H10.8711Z" fill="#363636"/>
<path d="M23.7227 48.0146H26.0952V60.5522H24.6169V60.5707L18.0044 52.11V60.5551H15.6289V48.0331H17.5509L23.7139 55.7987L23.7227 48.0146Z" fill="#363636"/>
<path d="M50.1846 48.0146H52.5562V60.5522H51.0837V60.5707L44.4712 52.11V60.5551H42.0986V48.0331H44.0216L50.1846 55.7987V48.0146Z" fill="#363636"/>
<path d="M65.8166 58.9783C64.5225 60.248 62.8511 60.8381 61.0383 60.8381C56.3673 60.8381 54.3907 57.6348 54.3722 54.381C54.3546 51.1078 56.4931 47.7803 61.0383 47.7803C61.8967 47.7797 62.7466 47.9486 63.5389 48.2774C64.3311 48.6061 65.05 49.0881 65.6537 49.6955L64.072 51.2156C63.2461 50.4109 62.1315 50.0352 61.0354 50.0352C57.9988 50.0352 56.6872 52.2882 56.7057 54.381C56.7233 56.4564 57.9276 58.6201 61.0354 58.6201C62.1315 58.6201 63.3758 58.1736 64.1978 57.3504L65.8166 58.9783Z" fill="#363636"/>
<path d="M69.8382 55.522H76.7003V53.1797H69.8177L67.3242 55.5822V60.6259H76.9197V58.2827H69.8382V55.522Z" fill="#363636"/>
<path d="M35.199 48.0312H32.612L26.9697 60.5514H29.5393L33.906 50.6609L38.2542 60.5514H40.8413L35.199 48.0312Z" fill="#363636"/>
<path d="M32.9371 65.3033C32.9371 65.9644 32.6172 66.6021 31.8166 66.9535C32.8259 67.2593 33.1955 68.3251 33.1955 68.8648C33.1955 70.7762 31.7552 71.3887 29.9707 71.3887H25.8848V62.8164H29.9707C31.6694 62.8164 32.9371 63.5755 32.9371 65.3033ZM27.484 66.2585H29.9707C30.9926 66.2585 31.3242 65.8304 31.3242 65.3402C31.3242 64.9519 31.0043 64.286 29.9707 64.286H27.484V66.2585ZM27.484 69.8851H29.9707C30.6357 69.8851 31.5836 69.6647 31.5836 68.8561C31.5836 68.0844 30.6357 67.6796 29.9707 67.6796H27.484V69.8851Z" fill="#0567AC"/>
<path d="M41.9831 71.3904H40.0504L37.5393 68.523H35.9791V71.3904H34.3516V62.8036C35.7168 62.8036 37.082 62.8162 38.4472 62.8162C40.4784 62.8279 41.5492 64.1752 41.5492 65.6584C41.5492 66.8339 41.008 68.023 39.3707 68.3541L41.9802 71.2817L41.9831 71.3904ZM35.9762 64.3208V67.065H38.4472C39.4818 67.065 39.9246 66.3797 39.9246 65.6934C39.9246 65.0071 39.4692 64.3208 38.4472 64.3208H35.9762Z" fill="#0567AC"/>
<path d="M51.1151 67.1534C51.0908 69.3705 49.7246 71.5847 46.6967 71.5847C43.6689 71.5847 42.2656 69.4161 42.2656 67.1612C42.2656 64.9062 43.7176 62.6406 46.6967 62.6406C49.6758 62.6406 51.1395 64.9111 51.1151 67.1534ZM43.8659 67.1903C43.9019 68.5988 44.6655 70.1024 46.6938 70.1024C48.7221 70.1024 49.4876 68.5823 49.512 67.1738C49.5364 65.7284 48.7241 64.1103 46.6938 64.1103C44.6635 64.1103 43.8288 65.744 43.8659 67.1903Z" fill="#0567AC"/>
<path d="M67.9132 47.958H67.4237H67.3242V52.9115L67.5475 52.6824L69.9171 50.3799H76.9987V47.958H67.9132Z" fill="#0567AC"/>
<path d="M31.7051 60.5518L34.0591 55.0334L36.2405 60.5518H31.7051Z" fill="#0567AC"/>
<path d="M23.0497 66.8205H0V67.6097H23.0497V66.8205Z" fill="#0567AC"/>
<path d="M76.9999 66.8205H53.9785V67.6097H76.9999V66.8205Z" fill="#0567AC"/>
<path d="M50.1832 27.5695C50.1832 27.5695 36.5945 38.3918 23.5791 39.7518C23.5791 39.7518 33.3667 49.5879 47.6127 42.3367C49.0579 41.3777 59.8226 36.1534 58.1092 20.959L55.5924 23.1984C55.5924 23.1984 56.0741 32.5948 49.2861 37.8725C47.5181 39.2315 42.2562 43.1502 35.5081 42.1106C34.9464 41.9106 32.8577 40.6312 35.3082 38.9072C36.5525 38.3122 45.2158 33.2209 50.1832 27.5695Z" fill="#363636"/>
<path d="M16.2289 21.6785C16.2289 21.6785 11.2079 37.1126 30.9303 31.7942C34.907 30.5944 38.5619 29.3946 43.1412 26.6757C46.7961 24.5168 53.9059 20.0749 58.2034 14.2012L56.1956 13.3615L62.8266 10.6436L61.9031 17.2443L60.613 15.5204C60.613 15.5204 55.1639 24.9032 41.2933 32.1009C41.2933 32.1009 32.5774 36.9923 25.2267 37.6339C22.897 37.7533 18.5186 38.6735 15.7472 35.3945C14.8228 34.0326 12.4931 30.6342 16.2289 21.6785Z" fill="#363636"/>
<path d="M36.8883 5.20618C37.4209 5.20618 37.8527 4.77636 37.8527 4.24616C37.8527 3.71595 37.4209 3.28613 36.8883 3.28613C36.3556 3.28613 35.9238 3.71595 35.9238 4.24616C35.9238 4.77636 36.3556 5.20618 36.8883 5.20618Z" fill="#0567AC"/>
<path d="M41.6275 2.42005C42.1602 2.42005 42.5919 1.99023 42.5919 1.46002C42.5919 0.929817 42.1602 0.5 41.6275 0.5C41.0949 0.5 40.6631 0.929817 40.6631 1.46002C40.6631 1.99023 41.0949 2.42005 41.6275 2.42005Z" fill="#363636"/>
<path d="M45.2735 6.32495C45.2735 6.32495 44.8317 7.30439 44.8512 7.8441C44.8512 7.8441 51.218 10.5426 53.7085 16.2407L55.6764 14.1051C55.6764 14.1051 51.7602 8.16734 48.8503 7.04812C48.8503 7.04812 48.863 8.60707 47.8596 8.10133C47.2111 7.76353 45.2735 6.32495 45.2735 6.32495Z" fill="#0567AC"/>
<path d="M38.0801 3.56556C38.0801 3.56556 38.3726 4.14798 38.2 4.4722C38.2 4.4722 39.3585 4.33241 40.2556 3.76552C39.5526 3.5474 38.8113 3.47926 38.0801 3.56556Z" fill="#0567AC"/>
<path d="M35.6024 3.68652C35.6024 3.68652 35.0534 4.88631 35.9369 5.25906C35.9369 5.25906 34.1163 6.47244 34.0353 6.47244C33.9544 6.47244 24.5422 8.36433 21.1282 16.3212C20.6465 17.2404 14.7819 28.4365 25.6675 28.2763V17.8811H30.4204V28.0502L33.5799 27.5435V13.0421H38.3201V26.0495L41.0798 25.0381V9.36318H45.7391V22.6123C45.7391 22.6123 52.9699 18.48 56.1294 15.1214C56.1294 15.1214 49.6485 23.8781 37.0768 28.4763C37.0768 28.4763 30.0479 31.0351 22.6163 30.8351C20.9293 30.6351 16.8726 30.8749 16.5918 24.9973C16.5918 22.0794 17.0735 13.1625 25.7894 7.04515C27.6754 6.00553 29.2688 4.4592 35.6024 3.68652Z" fill="#0567AC"/>
<path d="M38.7822 6.13472C38.7822 6.13472 41.0719 5.58433 42.6828 4.18555H43.5059C43.5059 4.18555 42.9842 6.91419 42.9744 7.09765C42.9705 7.09377 39.8071 6.57444 38.7822 6.13472Z" fill="#0567AC"/>
<path d="M36.031 9.31307C36.031 9.31307 35.7794 12.2252 34.0924 13.6317C34.0924 13.6317 33.0285 13.192 34.1528 11.7621C34.5637 11.0962 34.7923 10.3349 34.8159 9.5538C34.8364 9.17329 35.5687 7.2843 35.6195 6.90476C35.6195 6.90476 34.7652 6.90476 33.9929 8.91411C33.9929 8.91411 32.9982 8.86364 33.6711 7.68423C34.0524 7.02416 34.8861 5.6147 39.7863 4.56537C39.7863 4.56537 40.309 5.03519 39.7765 5.26524C39.2948 5.45938 37.3162 5.76516 37.0656 7.9337V8.19773C37.0656 8.19773 37.1056 8.44817 38.0895 8.45788C38.3606 8.50739 38.8628 8.57728 39.0539 9.72756C39.2743 10.5866 39.5357 11.1564 39.1515 11.5962C38.9213 11.6661 38.4386 11.9359 37.9666 9.43732L36.031 9.31307Z" fill="#0567AC"/>
</svg>
